 <svg xmlns="http://www.w3.org/2000/svg" xmlns:xlink="http://www.w3.org/1999/xlink" preserveAspectRatio="xMidYMid meet"
    version="1.0" viewBox="0.0 0.0 490.3 301.3" zoomAndPan="magnify" style="fill: rgb(0, 0, 0);"
    original_string_length="1676" width="75px" height="50px">
    <!-- <g id="__id57_steip4k8tn">
      <path
        d="M247.0214691,298.9450684H117.6845932c-2.9942245,0-5.421524-2.8509827-5.421524-6.3678589V86.1424103 c0-3.5168686,2.4272995-6.3678589,5.421524-6.3678589h64.0542831h65.2825928c2.9942169,0,5.421524,2.8509903,5.421524,6.3678589 v206.4347992C252.4429932,296.0940857,250.015686,298.9450684,247.0214691,298.9450684z"
        style="fill: rgb(196, 196, 195);" />
    </g> -->
    <g id="__id58_steip4k8tn">
      <path
        d="M486.3432617,301.3134766H291.2797852c-2.2089844,0-4-1.7910156-4-4v-27.5810547H186.4194336 c-2.2089844,0-4-1.7910156-4-4V149.2900391L74.0942383,200.8427734v95.2929688c0,2.2089844-1.7910156,4-4,4H4 c-2.2089844,0-4-1.7910156-4-4s1.7910156-4,4-4h62.0942383v-93.8193359c0-1.5429688,0.8876953-2.9492188,2.28125-3.6113281 l114.0439453-54.2749023V4c0-2.2089844,1.7910156-4,4-4h103.1064453c2.2089844,0,4,1.7910156,4,4v89.8876953 c0,1.5429688-0.8876953,2.9487305-2.28125,3.6118164l-100.8251953,47.9833984v116.2495117h96.8603516V116.1176758 c0-1.453125,0.7880859-2.7924805,2.0585938-3.4975586c1.2724609-0.7036133,2.8242188-0.6655273,4.0576172,0.1030273 l100.03125,62.3706055c1.171875,0.7304688,1.8837891,2.0136719,1.8837891,3.3945312v87.2441406c0,2.2089844-1.7910156,4-4,4 h-96.03125v23.5810547h191.0634766c2.2089844,0,4,1.7910156,4,4S488.5522461,301.3134766,486.3432617,301.3134766z M295.2797852,261.7324219h92.03125v-81.0244141l-92.03125-57.3823242V261.7324219z M190.4194336,8v128.6230469 l95.1064453-45.2617188V8H190.4194336z"
        style="fill: rgb(84, 84, 84);" />
    </g>
  </svg>