<svg xmlns="http://www.w3.org/2000/svg" viewBox="0 0 490 301" fill="none"><path d="M486.343 301.313H291.28a4 4 0 0 1-4-4v-27.58H186.42a4 4 0 0 1-4-4V149.29L74.093 200.843v95.293a4 4 0 0 1-4 4H4a4 4 0 0 1 0-8h62.094v-93.82c0-1.543.888-2.949 2.281-3.61L182.42 140.43V4a4 4 0 0 1 4-4h103.107a4 4 0 0 1 4 4v89.888a4 4 0 0 1-2.281 3.612L190.42 145.483v116.25h96.86V116.117a4 4 0 0 1 6.117-3.395l100.031 62.37a4 4 0 0 1 1.884 3.395v87.244a4 4 0 0 1-4 4H295.28v23.581h191.063a4 4 0 0 1 0 8m-191.063-39.58h92.031v-81.025l-92.031-57.382zM190.42 8v128.623l95.106-45.262V8z" style="fill:#ffffff"  width="75px" height="50px"/></svg>