<svg xmlns="http://www.w3.org/2000/svg" width="336" height="192" viewBox="0 0 3.5 2" xml:space="preserve"><path d="M486.343 301.313H295.917a4 4 0 0 1-4-4v-27.58h-100.86a4 4 0 0 1-4-4V149.29L78.73 200.843v96.549a4 4 0 0 1-4 4H4a4 4 0 0 1 0-8h66.731v-95.076c0-1.543.888-2.949 2.282-3.61l114.044-54.276V4a4 4 0 0 1 4-4h103.106a4 4 0 0 1 4 4v89.888a4 4 0 0 1-2.281 3.612l-100.825 47.983v116.25h96.86V116.117a4 4 0 0 1 6.116-3.395l100.031 62.37a4 4 0 0 1 1.884 3.395v87.244a4 4 0 0 1-4 4h-96.031v23.581h186.426a4 4 0 0 1 0 8zm-186.426-39.58h92.031v-81.025l-92.031-57.382ZM195.057 8v128.623l95.106-45.262V8Z" style="fill:none;stroke:#000;stroke-width:1.25517;stroke-dasharray:none;stroke-opacity:1" transform="translate(1.001 1.031)scale(.00203)"/></svg>