<?xml version="1.0" encoding="UTF-8" standalone="no"?>
<!-- Created with Inkscape (http://www.inkscape.org/) -->

<svg
   width="77.193565mm"
   height="15.572442mm"
   viewBox="0 0 3.0391168 0.61308828"
   id="SVGRoot"
   version="1.1"
   xml:space="preserve"
   xmlns="http://www.w3.org/2000/svg"
   xmlns:svg="http://www.w3.org/2000/svg"><defs
     id="defs1" /><path
     d="M 3.0309767,0.61292614 H 1.6227818 c -0.00449,0 -0.00814,-0.00364 -0.00814,-0.00814 V 0.54868464 H 1.409477 c -0.00449,0 -0.00814,-0.00364 -0.00814,-0.00814 v -0.2368615 l -0.220353,0.1048675 v 0.1963977 c 0,0.00449 -0.00364,0.00814 -0.00814,0.00814 H 0.008137 C 0.003644,0.61308834 0,0.60944834 0,0.60494834 c 0,-0.00449 0.003643,-0.00814 0.008137,-0.00814 h 1.1565769 v -0.1933968 c 0,-0.00314 0.00181,-0.006 0.00464,-0.00735 l 0.2319864,-0.110401 V 0.00813703 c 0,-0.004493 0.00364,-0.0081370058736 0.00814,-0.0081370058736 h 0.2097371 c 0.00449,0 0.00814,0.0036430058736 0.00814,0.0081370058736 v 0.18284771 c 0,0.00314 -0.00181,0.006 -0.00464,0.00735 l -0.2051037,0.097604 v 0.2364724 h 0.1970314 v -0.2962066 c 0,-0.00296 0.0016,-0.00568 0.00419,-0.00712 0.00259,-0.00143 0.00574,-0.00135 0.00825,2.096e-4 l 0.2034815,0.126873 c 0.00238,0.00149 0.00383,0.0041 0.00383,0.00691 v 0.1774703 c 0,0.00449 -0.00364,0.00814 -0.00814,0.00814 H 1.6309185 v 0.047968 h 1.4000582 c 0.00449,0 0.00814,0.00364 0.00814,0.00814 0,0.00449 -0.00364,0.00814 -0.00814,0.00814 z M 1.6309185,0.53241114 H 1.8181267 V 0.36759294 L 1.6309185,0.25086694 Z M 1.4176137,0.01627375 V 0.27791614 L 1.6110773,0.18584564 V 0.01627375 Z"
     style="font-size:0.152778px;line-height:1;font-family:'Leelawadee UI';-inkscape-font-specification:'Leelawadee UI';text-align:end;letter-spacing:0.00625px;word-spacing:0px;text-anchor:end;stroke-width:0.00208333;stroke-linecap:round;stroke-linejoin:round;paint-order:stroke fill markers"
     id="path1" /></svg>
