<?xml version="1.0" encoding="UTF-8" standalone="no"?>
<!-- Created with Inkscape (http://www.inkscape.org/) -->

<svg
   width="88.899994mm"
   height="50.799999mm"
   viewBox="0 0 3.4999998 2"
   id="SVGRoot"
   version="1.1"
   xml:space="preserve"
   xmlns="http://www.w3.org/2000/svg"
   xmlns:svg="http://www.w3.org/2000/svg"><defs
     id="defs1" /><path
     id="text46"
     style="font-size:0.152778px;line-height:1;font-family:'Leelawadee UI';-inkscape-font-specification:'Leelawadee UI';text-align:end;letter-spacing:0.00625px;word-spacing:0px;text-anchor:end;stroke-width:0.00208333;stroke-linecap:round;stroke-linejoin:round;paint-order:stroke fill markers"
     d="m 0.75062747,1.0934933 -0.0229018,0.076389 h -0.0126818 l -0.0157403,-0.054681 q -8.9518e-4,-0.00313 -0.001194,-0.00709 h -2.9839e-4 q -2.238e-4,0.00269 -0.001567,0.00694 l -0.0170831,0.05483 H 0.6669278 L 0.6438022,1.0934933 h 0.012831 l 0.0158149,0.057441 q 7.4599e-4,0.00261 0.001044,0.00686 h 5.9679e-4 q 2.238e-4,-0.00328 0.001343,-0.00701 l 0.0176054,-0.057291 h 0.0111898 l 0.0158149,0.05759 q 7.4599e-4,0.00276 0.001119,0.00686 h 5.9679e-4 q 1.492e-4,-0.00291 0.001268,-0.00686 l 0.0155165,-0.05759 z m 0.11665598,0 -0.0229018,0.076389 H 0.8316999 L 0.8159596,1.1152013 q -8.9519e-4,-0.00313 -0.001194,-0.00709 h -2.984e-4 q -2.2379e-4,0.00269 -0.001567,0.00694 l -0.0170831,0.05483 H 0.78358378 L 0.7604582,1.0934933 h 0.012831 l 0.0158149,0.057441 q 7.4599e-4,0.00261 0.001044,0.00686 h 5.9679e-4 q 2.2379e-4,-0.00328 0.001343,-0.00701 l 0.0176054,-0.057291 h 0.0111898 l 0.0158149,0.05759 q 7.4598e-4,0.00276 0.001119,0.00686 h 5.9678e-4 q 1.492e-4,-0.00291 0.001268,-0.00686 l 0.0155165,-0.05759 z m 0.11665597,0 -0.0229018,0.076389 h -0.0126818 l -0.0157403,-0.054681 q -8.9518e-4,-0.00313 -0.001194,-0.00709 h -2.9839e-4 q -2.238e-4,0.00269 -0.001567,0.00694 l -0.0170831,0.05483 h -0.0122333 l -0.0231256,-0.076388 h 0.012831 l 0.0158149,0.057441 q 7.4599e-4,0.00261 0.001044,0.00686 h 5.9678e-4 q 2.238e-4,-0.00328 0.001343,-0.00701 l 0.0176054,-0.057291 h 0.0111898 l 0.0158149,0.05759 q 7.4599e-4,0.00276 0.001119,0.00686 h 5.9679e-4 q 1.492e-4,-0.00291 0.001268,-0.00686 l 0.0155165,-0.05759 z m 0.0170668,0.07803 q -0.003432,0 -0.005893,-0.00246 -0.002387,-0.00246 -0.002387,-0.00589 0,-0.00343 0.002387,-0.00589 0.002462,-0.00254 0.005893,-0.00254 0.00351,0 0.00597,0.00254 0.00246,0.00246 0.00246,0.00589 0,0.00343 -0.00246,0.00589 -0.00246,0.00246 -0.00597,0.00246 z m 0.047354,-0.00485 q 0,0.018799 -0.00761,0.028944 -0.00753,0.01022 -0.021634,0.01022 -0.00522,0 -0.010145,-0.00239 v -0.011414 q 0.00552,0.00336 0.010444,0.00336 0.01671,0 0.01671,-0.026706 v -0.075194 h 0.012234 z m -0.00597,-0.092577 q -0.00328,0 -0.00559,-0.00224 -0.00231,-0.00224 -0.00231,-0.00567 0,-0.00343 0.00231,-0.00567 0.00231,-0.00231 0.00559,-0.00231 0.00336,0 0.00567,0.00231 0.00239,0.00224 0.00239,0.00567 0,0.00328 -0.00239,0.00559 -0.00231,0.00231 -0.00567,0.00231 z m 0.145451,0.095785 h -0.012232 v -0.043863 q 0,-0.012682 -0.00395,-0.018351 -0.00388,-0.00567 -0.013129,-0.00567 -0.00783,0 -0.013353,0.00716 -0.00545,0.00716 -0.00545,0.017158 v 0.043566 h -0.012234 v -0.045356 q 0,-0.022529 -0.017381,-0.022529 -0.00806,0 -0.013279,0.00679 -0.00522,0.00671 -0.00522,0.017531 v 0.043565 h -0.012236 v -0.076389 h 0.012234 v 0.012085 h 2.984e-4 q 0.00813,-0.013875 0.023722,-0.013875 0.00783,0 0.013651,0.0044 0.00582,0.00433 0.00798,0.011414 0.0085,-0.015815 0.025364,-0.015815 0.025214,0 0.025214,0.031108 z m 0.084056,0 h -0.012234 v -0.011936 h -2.983e-4 q -0.00798,0.013726 -0.023499,0.013726 -0.011414,0 -0.017904,-0.00604 -0.00642,-0.00604 -0.00642,-0.016039 0,-0.02141 0.025214,-0.024916 l 0.022902,-0.00321 q 0,-0.01947 -0.01574,-0.01947 -0.013801,0 -0.024916,0.0094 v -0.012533 q 0.011264,-0.00716 0.02596,-0.00716 0.02693,0 0.02693,0.028497 z m -0.012234,-0.038642 -0.018426,0.00254 q -0.0085,0.00119 -0.012831,0.00425 -0.00433,0.00298 -0.00433,0.010668 0,0.00559 0.00395,0.00918 0.00403,0.00351 0.010668,0.00351 0.0091,0 0.014994,-0.00634 0.00597,-0.00642 0.00597,-0.016188 z m 0.093605,0.035136 q -0.0088,0.0053 -0.020888,0.0053 -0.016337,0 -0.026408,-0.010593 -0.01,-0.010668 -0.01,-0.027602 0,-0.018873 0.010817,-0.030287 0.010817,-0.011488 0.02887,-0.011488 0.010071,0 0.017755,0.00373 v 0.012533 q -0.0085,-0.00597 -0.018202,-0.00597 -0.011712,0 -0.019246,0.00843 -0.00746,0.00836 -0.00746,0.022007 0,0.013428 0.00701,0.021186 0.00709,0.00776 0.018948,0.00776 0.01,0 0.018799,-0.00664 z m 0.088159,0.00351 H 1.424272 L 1.390554,1.1331793 h -2.984e-4 v 0.036703 H 1.3780209 V 1.0567908 h 0.012234 v 0.071689 h 2.984e-4 l 0.032078,-0.034987 h 0.016039 l -0.035434,0.036852 z m 0.077119,-0.035136 h -0.053935 q 2.984e-4,0.012756 0.00686,0.019694 0.00656,0.00694 0.018053,0.00694 0.012906,0 0.023722,-0.0085 v 0.011488 q -0.010071,0.00731 -0.026632,0.00731 -0.016188,0 -0.025438,-0.010369 -0.00925,-0.010444 -0.00925,-0.029317 0,-0.017829 0.010071,-0.029019 0.010145,-0.011264 0.02514,-0.011264 0.014994,0 0.0232,0.0097 0.00821,0.0097 0.00821,0.02693 z m -0.012533,-0.010369 q -7.46e-5,-0.010593 -0.00515,-0.016486 -0.005,-0.00589 -0.01395,-0.00589 -0.00865,0 -0.014696,0.00619 -0.00604,0.00619 -0.00746,0.016188 z m 0.098081,-0.030884 -0.035136,0.088623 q -0.0094,0.023722 -0.026408,0.023722 -0.00477,0 -0.00798,-9.698e-4 v -0.010966 q 0.00395,0.00134 0.00724,0.00134 0.00925,0 0.013875,-0.011041 l 0.00612,-0.014472 -0.02984,-0.07624 h 0.013577 l 0.020664,0.058784 q 3.73e-4,0.00112 0.00157,0.00582 h 4.476e-4 q 3.729e-4,-0.00179 0.00149,-0.00567 l 0.021701,-0.058933 z m 0.070706,0.07288 q -0.0088,0.0053 -0.020888,0.0053 -0.016337,0 -0.026408,-0.010593 -0.01,-0.010668 -0.01,-0.027602 0,-0.018873 0.010817,-0.030287 0.010817,-0.011488 0.02887,-0.011488 0.010071,0 0.017754,0.00373 v 0.012533 q -0.0085,-0.00597 -0.018202,-0.00597 -0.011712,0 -0.019246,0.00843 -0.00746,0.00836 -0.00746,0.022007 0,0.013428 0.00701,0.021186 0.00709,0.00776 0.018948,0.00776 0.01,0 0.018799,-0.00664 z m 0.056679,0.0053 q -0.016934,0 -0.027079,-0.010668 -0.010071,-0.010742 -0.010071,-0.028422 0,-0.019246 0.010518,-0.030063 0.010518,-0.010817 0.028422,-0.010817 0.017083,0 0.026632,0.010518 0.00962,0.010518 0.00962,0.029168 0,0.018277 -0.010369,0.029317 -0.010295,0.010966 -0.027676,0.010966 z m 8.952e-4,-0.069675 q -0.011787,0 -0.01865,0.00806 -0.00686,0.00798 -0.00686,0.022081 0,0.013577 0.00694,0.02141 0.00694,0.00783 0.018575,0.00783 0.011861,0 0.018202,-0.00768 0.00642,-0.00768 0.00642,-0.021857 0,-0.014323 -0.00642,-0.022081 -0.00634,-0.00776 -0.018202,-0.00776 z m 0.1263539,0.067885 h -0.012234 v -0.043566 q 0,-0.024319 -0.017755,-0.024319 -0.00918,0 -0.015218,0.00694 -0.00597,0.00686 -0.00597,0.017381 v 0.04356 h -0.012232 v -0.076389 h 0.012234 v 0.012682 h 2.984e-4 q 0.00865,-0.014472 0.025065,-0.014472 0.012533,0 0.019172,0.00813 0.00664,0.00806 0.00664,0.023349 z m 0.024676,-0.00276 v -0.013129 q 0.01,0.00739 0.022007,0.00739 0.016113,0 0.016113,-0.010742 0,-0.00306 -0.00142,-0.00515 -0.00134,-0.00216 -0.00373,-0.0038 -0.00231,-0.00164 -0.00552,-0.00291 -0.00313,-0.00134 -0.00679,-0.00276 -0.00507,-0.00201 -0.00895,-0.00403 -0.0038,-0.00209 -0.00642,-0.00463 -0.00254,-0.00261 -0.00388,-0.00589 -0.00127,-0.00328 -0.00127,-0.00768 0,-0.00537 0.00246,-0.00947 0.00246,-0.00418 0.00656,-0.00694 0.0041,-0.00283 0.00932,-0.00425 0.0053,-0.00142 0.010891,-0.00142 0.00992,0 0.017754,0.00343 v 0.012383 q -0.00843,-0.00552 -0.019396,-0.00552 -0.00343,0 -0.00619,8.206e-4 -0.00276,7.46e-4 -0.00477,0.00216 -0.00194,0.00142 -0.00306,0.00343 -0.00104,0.00194 -0.00104,0.00433 0,0.00298 0.00104,0.005 0.00112,0.00201 0.00321,0.00358 0.00209,0.00157 0.00507,0.00283 0.00298,0.00127 0.00679,0.00276 0.00507,0.00194 0.0091,0.00403 0.00403,0.00201 0.00686,0.00463 0.00283,0.00254 0.00433,0.00589 0.00157,0.00336 0.00157,0.00798 0,0.00567 -0.00254,0.00985 -0.00246,0.00418 -0.00664,0.00694 -0.00418,0.00276 -0.00962,0.0041 -0.00545,0.00134 -0.011414,0.00134 -0.011786,0 -0.02044,-0.00455 z m 0.1111356,0.00201 q -0.00433,0.00239 -0.011414,0.00239 -0.020067,0 -0.020067,-0.02238 v -0.045209 h -0.01313 v -0.010444 h 0.013129 v -0.01865 l 0.012234,-0.00395 v 0.0226 h 0.019246 v 0.010444 h -0.019246 v 0.043043 q 0,0.00768 0.00261,0.010966 0.00261,0.00328 0.00865,0.00328 0.00463,0 0.00798,-0.00254 z m 0.062423,-0.06326 q -0.00321,-0.00246 -0.00925,-0.00246 -0.00783,0 -0.013129,0.00739 -0.00522,0.00739 -0.00522,0.020142 v 0.03894 h -0.012237 v -0.076395 h 0.012234 v 0.01574 h 2.984e-4 q 0.00261,-0.00806 0.00798,-0.012533 0.00537,-0.00455 0.01201,-0.00455 0.00477,0 0.00731,0.00104 z m 0.081296,0.064006 H 2.126024 v -0.012085 h -2.984e-4 q -0.00761,0.013875 -0.023573,0.013875 -0.027303,0 -0.027303,-0.032525 v -0.045654 h 0.012159 v 0.043715 q 0,0.02417 0.018501,0.02417 0.00895,0 0.014696,-0.00656 0.00582,-0.00664 0.00582,-0.017307 v -0.044018 h 0.012234 z m 0.083012,-0.00351 q -0.0088,0.0053 -0.020888,0.0053 -0.016337,0 -0.026408,-0.010593 -0.01,-0.010668 -0.01,-0.027602 0,-0.018873 0.010817,-0.030287 0.010817,-0.011488 0.02887,-0.011488 0.010071,0 0.017754,0.00373 v 0.012533 q -0.0085,-0.00597 -0.018202,-0.00597 -0.011712,0 -0.019246,0.00843 -0.00746,0.00836 -0.00746,0.022007 0,0.013428 0.00701,0.021186 0.00709,0.00776 0.018948,0.00776 0.01,0 0.018799,-0.00664 z m 0.060185,0.00276 q -0.00433,0.00239 -0.011414,0.00239 -0.020067,0 -0.020067,-0.02238 v -0.045205 h -0.01313 v -0.010444 h 0.013129 v -0.01865 l 0.012234,-0.00395 v 0.0226 h 0.019246 v 0.010444 h -0.019246 v 0.043043 q 0,0.00768 0.00261,0.010966 0.00261,0.00328 0.00865,0.00328 0.00463,0 0.00798,-0.00254 z m 0.028853,-0.095039 q -0.00328,0 -0.00559,-0.00224 -0.00231,-0.00224 -0.00231,-0.00567 0,-0.00343 0.00231,-0.00567 0.00231,-0.00231 0.00559,-0.00231 0.00336,0 0.00567,0.00231 0.00239,0.00224 0.00239,0.00567 0,0.00328 -0.00239,0.00559 -0.00231,0.00231 -0.00567,0.00231 z m 0.00597,0.095785 h -0.012237 v -0.076385 h 0.012234 z m 0.062945,0.00179 q -0.016934,0 -0.027079,-0.010668 -0.010071,-0.010742 -0.010071,-0.028422 0,-0.019246 0.010518,-0.030063 0.010518,-0.010817 0.028422,-0.010817 0.017083,0 0.026632,0.010518 0.00962,0.010518 0.00962,0.029168 0,0.018277 -0.010369,0.029317 -0.010295,0.010966 -0.027676,0.010966 z m 8.952e-4,-0.069675 q -0.011787,0 -0.01865,0.00806 -0.00686,0.00798 -0.00686,0.022081 0,0.013577 0.00694,0.02141 0.00694,0.00783 0.018575,0.00783 0.011861,0 0.018202,-0.00768 0.00642,-0.00768 0.00642,-0.021857 0,-0.014323 -0.00642,-0.022081 -0.00634,-0.00776 -0.018202,-0.00776 z m 0.1263513,0.067889 H 2.494236 v -0.043566 q 0,-0.024319 -0.017754,-0.024319 -0.00918,0 -0.015218,0.00694 -0.00597,0.00686 -0.00597,0.017381 v 0.043564 H 2.443061 v -0.076389 h 0.012234 v 0.012682 h 2.984e-4 q 0.00865,-0.014472 0.025065,-0.014472 0.012532,0 0.019172,0.00813 0.00664,0.00806 0.00664,0.023349 z m 0.033553,0.00164 q -0.00343,0 -0.00589,-0.00246 -0.00239,-0.00246 -0.00239,-0.00589 0,-0.00343 0.00239,-0.00589 0.00246,-0.00254 0.00589,-0.00254 0.00351,0 0.00597,0.00254 0.00246,0.00246 0.00246,0.00589 0,0.00343 -0.00246,0.00589 -0.00246,0.00246 -0.00597,0.00246 z m 0.08719,-0.00515 q -0.0088,0.0053 -0.020888,0.0053 -0.016337,0 -0.026408,-0.010593 -0.01,-0.010668 -0.01,-0.027602 0,-0.018873 0.010817,-0.030287 0.010817,-0.011488 0.02887,-0.011488 0.010071,0 0.017754,0.00373 v 0.012533 q -0.0085,-0.00597 -0.018202,-0.00597 -0.011712,0 -0.019246,0.00843 -0.00746,0.00836 -0.00746,0.022007 0,0.013428 0.00701,0.021186 0.00709,0.00776 0.018948,0.00776 0.01,0 0.018799,-0.00664 z m 0.056679,0.0053 q -0.016934,0 -0.027079,-0.010668 -0.010071,-0.010742 -0.010071,-0.028422 0,-0.019246 0.010518,-0.030063 0.010518,-0.010817 0.028422,-0.010817 0.017083,0 0.026632,0.010518 0.00962,0.010518 0.00962,0.029168 0,0.018277 -0.010369,0.029317 -0.010295,0.010966 -0.027676,0.010966 z m 8.951e-4,-0.069675 q -0.011786,0 -0.01865,0.00806 -0.00686,0.00798 -0.00686,0.022081 0,0.013577 0.00694,0.02141 0.00694,0.00783 0.018575,0.00783 0.011861,0 0.018202,-0.00768 0.00642,-0.00768 0.00642,-0.021857 0,-0.014323 -0.00642,-0.022081 -0.00634,-0.00776 -0.018202,-0.00776 z m 0.1714107,0.067885 h -0.012234 v -0.043864 q 0,-0.012682 -0.00395,-0.018351 -0.00388,-0.00567 -0.013129,-0.00567 -0.00783,0 -0.013353,0.00716 -0.00545,0.00716 -0.00545,0.017158 v 0.043566 h -0.012234 v -0.045356 q 0,-0.022529 -0.017381,-0.022529 -0.00806,0 -0.013279,0.00679 -0.00522,0.00671 -0.00522,0.017531 v 0.043565 h -0.012236 v -0.076389 h 0.012234 v 0.012085 h 2.983e-4 q 0.00813,-0.013875 0.023722,-0.013875 0.00783,0 0.013652,0.0044 0.00582,0.00433 0.00798,0.011414 0.0085,-0.015815 0.025364,-0.015815 0.025214,0 0.025214,0.031108 z M 0.84192234,1.3944275 v -0.077778 h 0.0327778 q 0.0124444,0 0.0218889,0.00489 0.009556,0.00489 0.0147778,0.013667 0.005333,0.00878 0.005333,0.020333 0,0.011556 -0.005333,0.020333 -0.005222,0.00878 -0.0147778,0.013667 -0.009444,0.00489 -0.0218889,0.00489 z m 0.0111111,-0.00967 h 0.021 q 0.009667,0 0.0166667,-0.00367 0.007111,-0.00367 0.011,-0.010222 0.003889,-0.00667 0.003889,-0.015333 0,-0.00878 -0.003889,-0.015333 -0.003889,-0.00656 -0.011,-0.010222 -0.007,-0.00367 -0.0166667,-0.00367 h -0.021 z m 0.0783749,0.00967 v -0.077778 h 0.0548888 v 0.00967 h -0.0437777 v 0.068111 z m 0.01,-0.031444 v -0.00956 h 0.0401111 v 0.00956 z m 0.0761527,0.031444 -0.026,-0.077778 h 0.0114444 l 0.023889,0.071778 h -0.00578 l 0.024778,-0.071778 h 0.010222 l 0.024222,0.071778 h -0.00556 l 0.024222,-0.071778 h 0.010555 l -0.026,0.077778 h -0.011667 l -0.022667,-0.066555 h 0.003 L 1.02945,1.3944275 Z m 0.1325275,0 v -0.077778 h 0.030333 q 0.010222,0 0.017444,0.00322 0.00722,0.00322 0.011111,0.00933 0.00389,0.00611 0.00389,0.014555 0,0.00844 -0.00389,0.014555 -0.00389,0.006 -0.011111,0.00933 -0.00722,0.00322 -0.017444,0.00322 h -0.024222 l 0.005,-0.00522 v 0.028778 z m 0.011111,-0.027667 -0.005,-0.00556 h 0.023889 q 0.010667,0 0.016111,-0.00456 0.00556,-0.00456 0.00556,-0.012889 0,-0.00833 -0.00556,-0.012889 -0.00544,-0.00456 -0.016111,-0.00456 h -0.023889 l 0.005,-0.00556 z m 0.065708,0.027667 v -0.077778 h 0.030333 q 0.015111,0 0.023778,0.00722 0.00867,0.00711 0.00867,0.019889 0,0.00844 -0.00389,0.014555 -0.00389,0.006 -0.011111,0.00922 -0.00722,0.00322 -0.017444,0.00322 H 1.233019 l 0.005,-0.00511 v 0.028778 z m 0.052,0 -0.019778,-0.028222 h 0.011889 l 0.02,0.028222 z m -0.040889,-0.027667 -0.005,-0.00544 h 0.023889 q 0.010667,0 0.016111,-0.00456 0.00556,-0.00467 0.00556,-0.013 0,-0.00833 -0.00556,-0.012889 -0.00544,-0.00456 -0.016111,-0.00456 H 1.233019 l 0.005,-0.00556 z m 0.1024859,0.028555 q -0.00889,0 -0.016555,-0.003 -0.00756,-0.003 -0.013111,-0.00833 -0.00556,-0.00544 -0.00867,-0.012667 -0.00311,-0.00722 -0.00311,-0.015778 0,-0.00856 0.00311,-0.015778 0.00311,-0.00722 0.00867,-0.012555 0.00556,-0.00544 0.013111,-0.00844 0.00756,-0.003 0.016555,-0.003 0.00889,0 0.016333,0.003 0.00756,0.00289 0.013111,0.00833 0.00567,0.00533 0.00867,0.012556 0.00311,0.00722 0.00311,0.015889 0,0.00867 -0.00311,0.015889 -0.003,0.00722 -0.00867,0.012667 -0.00556,0.00533 -0.013111,0.00833 -0.00744,0.00289 -0.016333,0.00289 z m 0,-0.00989 q 0.00644,0 0.011889,-0.00222 0.00556,-0.00222 0.00956,-0.00622 0.00411,-0.00411 0.00633,-0.00956 0.00233,-0.00544 0.00233,-0.011889 0,-0.00644 -0.00233,-0.011889 -0.00222,-0.00544 -0.00633,-0.00944 -0.004,-0.00411 -0.00956,-0.00633 -0.00544,-0.00222 -0.011889,-0.00222 -0.00656,0 -0.012111,0.00222 -0.00544,0.00222 -0.00956,0.00633 -0.00411,0.004 -0.00644,0.00944 -0.00222,0.00544 -0.00222,0.011889 0,0.00644 0.00222,0.011889 0.00233,0.00544 0.00644,0.00956 0.00411,0.004 0.00956,0.00622 0.00556,0.00222 0.012111,0.00222 z m 0.088153,0.00989 q -0.015333,0 -0.024111,-0.00878 -0.00878,-0.00878 -0.00878,-0.025667 v -0.044222 h 0.011111 v 0.043778 q 0,0.013 0.00567,0.019 0.00578,0.006 0.016222,0.006 0.010556,0 0.016222,-0.006 0.00578,-0.006 0.00578,-0.019 v -0.043778 h 0.010778 v 0.044222 q 0,0.016889 -0.00878,0.025667 -0.00867,0.00878 -0.024112,0.00878 z m 0.053375,-8.889e-4 v -0.077778 h 0.032778 q 0.012444,0 0.021889,0.00489 0.00956,0.00489 0.014778,0.013667 0.00533,0.00878 0.00533,0.020333 0,0.011556 -0.00533,0.020333 -0.00522,0.00878 -0.014778,0.013667 -0.00944,0.00489 -0.021889,0.00489 z m 0.011111,-0.00967 h 0.021 q 0.00967,0 0.016667,-0.00367 0.00711,-0.00367 0.011,-0.010222 0.00389,-0.00667 0.00389,-0.015333 0,-0.00878 -0.00389,-0.015333 -0.00389,-0.00656 -0.011,-0.010222 -0.007,-0.00367 -0.016667,-0.00367 h -0.021 z m 0.105972,0.00967 v -0.077778 h 0.054889 v 0.00967 h -0.043778 v 0.068111 z m 0.01,-0.031444 v -0.00956 h 0.040111 v 0.00956 z m 0.092486,0.032333 q -0.00889,0 -0.016556,-0.003 -0.00756,-0.003 -0.013111,-0.00833 -0.00556,-0.00544 -0.00867,-0.012667 -0.00311,-0.00722 -0.00311,-0.015778 0,-0.00856 0.00311,-0.015778 0.00311,-0.00722 0.00867,-0.012555 0.00556,-0.00544 0.013111,-0.00844 0.00756,-0.003 0.016556,-0.003 0.00889,0 0.016333,0.003 0.00756,0.00289 0.013111,0.00833 0.00567,0.00533 0.00867,0.012556 0.00311,0.00722 0.00311,0.015889 0,0.00867 -0.00311,0.015889 -0.003,0.00722 -0.00867,0.012667 -0.00556,0.00533 -0.013111,0.00833 -0.00744,0.00289 -0.016333,0.00289 z m 0,-0.00989 q 0.00644,0 0.011889,-0.00222 0.00556,-0.00222 0.00956,-0.00622 0.00411,-0.00411 0.00633,-0.00956 0.00233,-0.00544 0.00233,-0.011889 0,-0.00644 -0.00233,-0.011889 -0.00222,-0.00544 -0.00633,-0.00944 -0.004,-0.00411 -0.00956,-0.00633 -0.00544,-0.00222 -0.011889,-0.00222 -0.00656,0 -0.012111,0.00222 -0.00544,0.00222 -0.00956,0.00633 -0.00411,0.004 -0.00644,0.00944 -0.00222,0.00544 -0.00222,0.011889 0,0.00644 0.00222,0.011889 0.00233,0.00544 0.00644,0.00956 0.00411,0.004 0.00956,0.00622 0.00556,0.00222 0.012111,0.00222 z m 0.055931,0.009 v -0.077778 h 0.030333 q 0.015111,0 0.023778,0.00722 0.00867,0.00711 0.00867,0.019889 0,0.00844 -0.00389,0.014555 -0.00389,0.006 -0.011111,0.00922 -0.00722,0.00322 -0.017444,0.00322 h -0.024222 l 0.005,-0.00511 v 0.028778 z m 0.052,0 -0.019778,-0.028222 h 0.011889 l 0.02,0.028222 z m -0.040889,-0.027667 -0.005,-0.00544 h 0.023889 q 0.010667,0 0.016111,-0.00456 0.00556,-0.00467 0.00556,-0.013 0,-0.00833 -0.00556,-0.012889 -0.00544,-0.00456 -0.016111,-0.00456 h -0.023889 l 0.005,-0.00556 z m 0.1300829,0.028555 q -0.00889,0 -0.016555,-0.003 -0.00756,-0.003 -0.013111,-0.00833 -0.00556,-0.00544 -0.00867,-0.012667 -0.00311,-0.00722 -0.00311,-0.015778 0,-0.00856 0.00311,-0.015778 0.00311,-0.00722 0.00867,-0.012555 0.00556,-0.00544 0.013111,-0.00844 0.00756,-0.003 0.016555,-0.003 0.00889,0 0.016333,0.003 0.00756,0.00289 0.013111,0.00833 0.00567,0.00533 0.00867,0.012556 0.00311,0.00722 0.00311,0.015889 0,0.00867 -0.00311,0.015889 -0.003,0.00722 -0.00867,0.012667 -0.00556,0.00533 -0.013111,0.00833 -0.00744,0.00289 -0.016333,0.00289 z m 0,-0.00989 q 0.00644,0 0.011889,-0.00222 0.00556,-0.00222 0.00956,-0.00622 0.00411,-0.00411 0.00633,-0.00956 0.00233,-0.00544 0.00233,-0.011889 0,-0.00644 -0.00233,-0.011889 -0.00222,-0.00544 -0.00633,-0.00944 -0.004,-0.00411 -0.00956,-0.00633 -0.00544,-0.00222 -0.011889,-0.00222 -0.00656,0 -0.012111,0.00222 -0.00544,0.00222 -0.00956,0.00633 -0.00411,0.004 -0.00644,0.00944 -0.00222,0.00544 -0.00222,0.011889 0,0.00644 0.00222,0.011889 0.00233,0.00544 0.00644,0.00956 0.00411,0.004 0.00956,0.00622 0.00556,0.00222 0.012111,0.00222 z m 0.075931,0.009 -0.034222,-0.077778 h 0.012 l 0.031444,0.071778 h -0.00689 l 0.031667,-0.071778 h 0.011111 l -0.034111,0.077778 z m 0.052708,0 v -0.077778 h 0.054889 v 0.00967 h -0.043778 v 0.058444 h 0.045333 v 0.00967 z m 0.010111,-0.034778 v -0.00944 h 0.04 v 0.00944 z m 0.062042,0.034778 v -0.077778 h 0.030333 q 0.015111,0 0.023778,0.00722 0.00867,0.00711 0.00867,0.019889 0,0.00844 -0.00389,0.014555 -0.00389,0.006 -0.011111,0.00922 -0.00722,0.00322 -0.017444,0.00322 h -0.024222 l 0.005,-0.00511 v 0.028778 z m 0.052,0 -0.019778,-0.028222 h 0.011889 l 0.02,0.028222 z m -0.040889,-0.027667 -0.005,-0.00544 h 0.023889 q 0.010667,0 0.016111,-0.00456 0.00556,-0.00467 0.00556,-0.013 0,-0.00833 -0.00556,-0.012889 -0.00544,-0.00456 -0.016111,-0.00456 h -0.023889 l 0.005,-0.00556 z m 0.087528,0.00856 v -0.00778 l 0.039778,-0.050889 h 0.012 l -0.039444,0.050889 -0.00567,-0.00178 h 0.062111 v 0.00956 z m 0.043222,0.019111 v -0.019111 l 3.333e-4,-0.00956 v -0.016889 h 0.010445 v 0.045556 z m 0.054931,8.889e-4 q -0.00822,0 -0.016,-0.00256 -0.00767,-0.00256 -0.012556,-0.00689 l 0.00511,-0.00878 q 0.00389,0.00367 0.010111,0.006 0.00622,0.00233 0.013222,0.00233 0.00889,0 0.013667,-0.00378 0.00478,-0.00378 0.00478,-0.010111 0,-0.00433 -0.00211,-0.00756 -0.00211,-0.00322 -0.00733,-0.00489 -0.00511,-0.00178 -0.014111,-0.00178 h -0.017667 l 0.00411,-0.040667 h 0.043889 v 0.00967 h -0.039778 l 0.00578,-0.00544 -0.00322,0.032111 -0.00578,-0.00533 h 0.015 q 0.011667,0 0.018778,0.003 0.00711,0.003 0.010333,0.00833 0.00322,0.00522 0.00322,0.012111 0,0.00667 -0.00322,0.012222 -0.00322,0.00544 -0.00978,0.00878 -0.00644,0.00322 -0.016444,0.00322 z m 0.089083,-8.889e-4 v -0.029778 l 0.00256,0.00689 -0.033444,-0.054889 h 0.011889 l 0.028111,0.046333 h -0.00644 l 0.028222,-0.046333 h 0.011 l -0.033333,0.054889 0.00244,-0.00689 v 0.029778 z m 0.049153,0 v -0.077778 h 0.054889 v 0.00967 h -0.043778 v 0.058444 h 0.045333 v 0.00967 z m 0.010111,-0.034778 v -0.00944 h 0.04 v 0.00944 z m 0.050264,0.034778 0.035222,-0.077778 h 0.011 l 0.035333,0.077778 H 2.564809 L 2.533365,1.3228716 h 0.00444 l -0.031444,0.071556 z m 0.015,-0.019444 0.003,-0.00889 h 0.043778 l 0.00322,0.00889 z m 0.075819,0.019444 v -0.077778 h 0.030333 q 0.015111,0 0.023778,0.00722 0.00867,0.00711 0.00867,0.019889 0,0.00844 -0.00389,0.014555 -0.00389,0.006 -0.011111,0.00922 -0.00722,0.00322 -0.017444,0.00322 h -0.024222 l 0.005,-0.00511 v 0.028778 z m 0.052,0 -0.019778,-0.028222 h 0.011889 l 0.02,0.028222 z m -0.040889,-0.027667 -0.005,-0.00544 h 0.023889 q 0.010667,0 0.016111,-0.00456 0.00556,-0.00467 0.00556,-0.013 0,-0.00833 -0.00556,-0.012889 -0.00544,-0.00456 -0.016111,-0.00456 h -0.023889 l 0.005,-0.00556 z m 0.090041,0.028555 q -0.00889,0 -0.017,-0.00267 -0.00811,-0.00278 -0.012778,-0.00711 l 0.00411,-0.00867 q 0.00444,0.00389 0.011333,0.00644 0.00689,0.00256 0.014333,0.00256 0.00678,0 0.011,-0.00156 0.00422,-0.00156 0.00622,-0.00422 0.002,-0.00278 0.002,-0.00622 0,-0.004 -0.00267,-0.00644 -0.00256,-0.00244 -0.00678,-0.00389 -0.00411,-0.00156 -0.00911,-0.00267 -0.005,-0.00111 -0.010111,-0.00256 -0.005,-0.00156 -0.00922,-0.00389 -0.00411,-0.00233 -0.00667,-0.00622 -0.00256,-0.004 -0.00256,-0.010222 0,-0.006 0.00311,-0.011 0.00322,-0.00511 0.00978,-0.00811 0.00667,-0.00311 0.016889,-0.00311 0.00678,0 0.013444,0.00178 0.00667,0.00178 0.011556,0.00511 l -0.00367,0.00889 q -0.005,-0.00333 -0.010556,-0.00478 -0.00556,-0.00156 -0.010778,-0.00156 -0.00656,0 -0.010778,0.00167 -0.00422,0.00167 -0.00622,0.00444 -0.00189,0.00278 -0.00189,0.00622 0,0.00411 0.00256,0.00656 0.00267,0.00244 0.00678,0.00389 0.00422,0.00144 0.00922,0.00267 0.005,0.00111 0.01,0.00256 0.00511,0.00144 0.00922,0.00378 0.00422,0.00233 0.00678,0.00622 0.00256,0.00389 0.00256,0.01 0,0.00589 -0.00322,0.011 -0.00322,0.005 -0.01,0.00811 -0.00667,0.003 -0.016889,0.003 z m -1.211348,-0.393537 q -0.018701,0 -0.034764,-0.006234 -0.015824,-0.006473 -0.027571,-0.0179814 -0.011748,-0.0115081 -0.018221,-0.0268522 -0.00647,-0.0155839 -0.00647,-0.0340448 0,-0.0184609 0.00647,-0.033805 0.00647,-0.0155839 0.018221,-0.027092 0.011988,-0.0115081 0.027811,-0.0177416 0.015824,-0.006473 0.034524,-0.006473 0.017742,0 0.033086,0.005754 0.015584,0.005754 0.026612,0.0175019 l -0.00767,0.007912 q -0.010789,-0.0105491 -0.023975,-0.0151044 -0.012947,-0.004795 -0.027571,-0.004795 -0.016063,0 -0.029969,0.005514 -0.013666,0.005514 -0.023975,0.0155839 -0.01007,0.0100696 -0.015824,0.0234957 -0.00551,0.0134261 -0.00551,0.0292497 0,0.0158236 0.00551,0.0292497 0.00575,0.0134261 0.015824,0.0234957 0.010309,0.0100696 0.023975,0.0155839 0.013906,0.005514 0.029969,0.005514 0.014625,0 0.027571,-0.004555 0.013186,-0.004795 0.023975,-0.0155839 l 0.00767,0.007912 q -0.011029,0.0117479 -0.026612,0.0177417 -0.015344,0.005754 -0.033086,0.005754 z m 0.1507904,0 q -0.018701,0 -0.034764,-0.006234 -0.015824,-0.006473 -0.027811,-0.0179814 -0.011748,-0.0117479 -0.018221,-0.027092 -0.00647,-0.0155839 -0.00647,-0.033805 0,-0.0182212 0.00647,-0.0335653 0.00647,-0.0155839 0.018221,-0.027092 0.011988,-0.0117479 0.027811,-0.0179814 0.016063,-0.006473 0.034764,-0.006473 0.018701,0 0.034524,0.006473 0.016063,0.006234 0.027811,0.0177416 0.011748,0.0115081 0.018221,0.027092 0.00671,0.0153441 0.00671,0.033805 0,0.0184609 -0.00671,0.0340448 -0.00647,0.0153441 -0.018221,0.0268522 -0.011748,0.0115081 -0.027811,0.0179814 -0.015824,0.006234 -0.034524,0.006234 z m 0,-0.0112683 q 0.016063,0 0.029729,-0.005514 0.013666,-0.005514 0.023735,-0.0155839 0.01007,-0.0100696 0.015584,-0.0234957 0.00575,-0.0134261 0.00575,-0.0292497 0,-0.0160634 -0.00575,-0.0292497 -0.00551,-0.0134261 -0.015584,-0.0234957 -0.01007,-0.0100696 -0.023735,-0.0155839 -0.013666,-0.005514 -0.029729,-0.005514 -0.016063,0 -0.029729,0.005514 -0.013666,0.005514 -0.023975,0.0155839 -0.01007,0.0100696 -0.015824,0.0234957 -0.00551,0.0131864 -0.00551,0.0292497 0,0.0158236 0.00551,0.0292497 0.00575,0.0134261 0.015824,0.0234957 0.010309,0.0100696 0.023975,0.0155839 0.013666,0.005514 0.029729,0.005514 z M 1.7457176,1.0005798 V 0.83275344 h 0.010309 l 0.1196363,0.15272202 h -0.00551 V 0.83275344 h 0.012227 V 1.0005798 h -0.01007 L 1.7524306,0.84785781 h 0.00551 V 1.0005798 Z m 0.2289494,0.0012 q -0.018701,0 -0.035483,-0.006234 Q 1.922641,0.9890728 1.913531,0.9790029 l 0.00551,-0.009111 q 0.00863,0.008871 0.023496,0.0151044 0.015104,0.005994 0.031887,0.005994 0.016783,0 0.027332,-0.004316 Q 2.012545,0.9821193 2.01758,0.9746867 2.02285,0.9672547 2.02285,0.9581438 2.02285,0.947355 2.0171,0.9408817 2.01135,0.9344087 2.001996,0.9305724 1.992646,0.9267364 1.981617,0.9240994 1.970588,0.9214624 1.95932,0.9185854 1.948052,0.9154684 1.938701,0.9106734 1.929351,0.9058784 1.923597,0.8977268 1.918087,0.8893358 1.918087,0.8761491 q 0,-0.0119876 0.00623,-0.0220572 0.00623,-0.0100696 0.01942,-0.0163031 0.013186,-0.006234 0.033805,-0.006234 0.013906,0 0.027332,0.004076 0.013666,0.004076 0.023256,0.0110286 l -0.00456,0.00983 Q 2.0130274,0.84929633 2.0008,0.8459398 1.988812,0.8423438 1.977544,0.8423438 q -0.016063,0 -0.026612,0.004555 -0.010549,0.004555 -0.015584,0.0122273 -0.00503,0.007432 -0.00503,0.0167826 0,0.0107888 0.00551,0.0172621 0.00575,0.006473 0.015104,0.0103093 0.00935,0.003836 0.020619,0.006473 0.011268,0.002637 0.022297,0.005754 0.011029,0.002877 0.020379,0.007672 0.00935,0.004795 0.015104,0.0129466 0.00575,0.008152 0.00575,0.0210982 0,0.0117479 -0.00647,0.0220572 -0.00647,0.0100696 -0.019899,0.0163031 -0.013186,0.005994 -0.034045,0.005994 z m 0.1213009,-0.0012 V 0.84378203 h -0.060418 v -0.0110286 h 0.1330623 v 0.0110286 H 2.1081952 V 1.0005798 Z m 0.092531,0 V 0.83275344 h 0.060178 q 0.031647,0 0.049629,0.0148646 0.017981,0.0148646 0.017981,0.0417169 0,0.0175019 -0.00815,0.0302088 -0.00815,0.0124671 -0.023256,0.0194199 -0.015104,0.006713 -0.036202,0.006713 h -0.053465 l 0.00551,-0.005754 v 0.0606572 z m 0.1165195,0 -0.043635,-0.060897 h 0.013906 l 0.043635,0.060897 z m -0.1042921,-0.059938 -0.00551,-0.005754 h 0.053465 q 0.027092,0 0.040998,-0.0119876 0.014145,-0.0119876 0.014145,-0.0335653 0,-0.0218174 -0.014145,-0.0335653 Q 2.2757733,0.843782 2.2486813,0.843782 h -0.053465 l 0.00551,-0.005994 z m 0.2157631,0.0611368 q -0.031168,0 -0.049149,-0.0182212 Q 2.3493594,0.9653362 2.3493594,0.9293735 V 0.8327534 h 0.012227 V 0.928894 q 0,0.0314075 0.014385,0.0465119 0.014385,0.0151044 0.040758,0.0151044 0.026133,0 0.040518,-0.0151044 0.014385,-0.0151044 0.014385,-0.0465119 V 0.8327534 h 0.012227 v 0.0966201 q 0,0.0359628 -0.017981,0.0541839 -0.017981,0.0182212 -0.049389,0.0182212 z m 0.1850749,0 q -0.018701,0 -0.034764,-0.006234 -0.015824,-0.006473 -0.027572,-0.0179814 -0.011748,-0.0115081 -0.018221,-0.0268522 -0.00647,-0.0155839 -0.00647,-0.0340448 0,-0.0184609 0.00647,-0.033805 0.00647,-0.0155839 0.018221,-0.027092 0.011988,-0.0115081 0.027811,-0.0177416 0.015824,-0.006473 0.034524,-0.006473 0.017742,0 0.033086,0.005754 0.015584,0.005754 0.026612,0.0175019 l -0.00767,0.007912 q -0.010789,-0.0105491 -0.023975,-0.0151044 -0.012947,-0.004795 -0.027571,-0.004795 -0.016063,0 -0.029969,0.005514 -0.013666,0.005514 -0.023975,0.0155839 -0.01007,0.0100696 -0.015824,0.0234957 -0.00551,0.0134261 -0.00551,0.0292497 0,0.0158236 0.00551,0.0292497 0.00575,0.0134261 0.015824,0.0234957 0.010309,0.0100696 0.023975,0.0155839 0.013906,0.005514 0.029969,0.005514 0.014625,0 0.027571,-0.004555 0.013186,-0.004795 0.023975,-0.0155839 l 0.00767,0.007912 q -0.011029,0.0117479 -0.026612,0.0177417 -0.015344,0.005754 -0.033086,0.005754 z m 0.1169853,-0.0012 V 0.84378203 H 2.6581326 V 0.83275343 H 2.791195 v 0.0110286 H 2.7307767 V 1.0005798 Z m 0.092531,0 V 0.83275344 h 0.012227 V 1.0005798 Z m 0.1316104,0.0012 q -0.018701,0 -0.034764,-0.006234 Q 2.892103,0.9890716 2.880116,0.9775632 2.868368,0.9658153 2.861895,0.9504712 2.855425,0.9348873 2.855425,0.9166662 q 0,-0.0182212 0.00647,-0.0335653 Q 2.868365,0.867517 2.880116,0.8560089 2.892104,0.844261 2.907927,0.8380275 2.92399,0.8315545 2.942691,0.8315545 q 0.018701,0 0.034524,0.006473 0.016063,0.006234 0.027811,0.0177416 0.011748,0.0115081 0.018221,0.027092 0.00671,0.0153441 0.00671,0.033805 0,0.0184609 -0.00671,0.0340448 Q 3.016777,0.966055 3.005026,0.9775631 2.993278,0.9890712 2.977215,0.9955445 2.961391,1.0017785 2.942691,1.0017786 Z m 0,-0.0112683 q 0.016063,0 0.029729,-0.005514 0.013666,-0.005514 0.023735,-0.0155839 0.01007,-0.0100696 0.015584,-0.0234957 0.00575,-0.0134261 0.00575,-0.0292497 0,-0.0160634 -0.00575,-0.0292497 Q 3.006229,0.8739912 2.996155,0.8639216 2.986085,0.853852 2.97242,0.8483377 2.958754,0.8428237 2.942691,0.8428237 q -0.016063,0 -0.029729,0.005514 -0.013666,0.005514 -0.023975,0.0155839 -0.01007,0.0100696 -0.015824,0.0234957 -0.00551,0.0131864 -0.00551,0.0292497 0,0.0158236 0.00551,0.0292497 0.00575,0.0134261 0.015824,0.0234957 0.010309,0.0100696 0.023975,0.0155839 0.013666,0.005514 0.029729,0.005514 z M 3.0620733,1.0005798 V 0.83275344 h 0.010309 l 0.1196363,0.15272202 h -0.00551 V 0.83275344 h 0.012227 V 1.0005798 H 3.1886624 L 3.0687864,0.84785781 h 0.00551 V 1.0005798 Z m -2.7018794,0 V 0.83275344 H 0.3923207 L 0.4637668,0.95119092 H 0.44674437 L 0.5169917,0.83275344 h 0.031887 L 0.5493582,1.0005798 H 0.51291592 L 0.51267616,0.88861565 h 0.006713 l -0.056102,0.0942225 h -0.0175019 l -0.0573007,-0.0942225 h 0.008152 V 1.0005798 Z m 0.19658315,0 0.0748026,-0.16782636 H 0.66994 L 0.74498237,1.0005798 H 0.70422453 L 0.64284802,0.8524131 h 0.0153441 L 0.59657582,1.0005798 Z M 0.59417835,0.964617 0.60448765,0.9351275 h 0.0863107 l 0.0105491,0.0294895 z m 0.23590262,0.0388399 q -0.0194199,0 -0.0362026,-0.006234 -0.0165429,-0.006473 -0.0287702,-0.0182212 -0.0122273,-0.0117478 -0.0191802,-0.0275715 -0.006713,-0.0158236 -0.006713,-0.034764 0,-0.0189404 0.006713,-0.034764 0.006953,-0.0158236 0.0191802,-0.0275715 0.0124671,-0.0117479 0.02901,-0.0179814 0.0165429,-0.006473 0.0362026,-0.006473 0.0218174,0 0.0393193,0.007672 0.0177417,0.007432 0.0297293,0.0220572 l -0.0249342,0.0230162 q -0.008631,-0.00983 -0.0191802,-0.0146249 -0.0105491,-0.005035 -0.0230162,-0.005035 -0.0117479,0 -0.0215777,0.003836 -0.00983,0.003836 -0.0170224,0.0110286 -0.007193,0.007193 -0.0112683,0.0170224 -0.003836,0.00983 -0.003836,0.0218174 0,0.0119876 0.003836,0.0218174 0.004076,0.00983 0.0112683,0.0170224 0.007193,0.007193 0.0170224,0.0110286 0.00983,0.003836 0.0215777,0.003836 0.0124671,0 0.0230162,-0.004795 0.0105491,-0.005035 0.0191802,-0.0151044 l 0.0249342,0.0230162 q -0.0119876,0.0146249 -0.0297293,0.0222969 -0.0175019,0.007672 -0.0395591,0.007673 z M 0.94778593,0.9622195 0.94562793,0.9173859 1.0259448,0.8327534 h 0.043155 L 0.99669473,0.9106728 0.97511703,0.933689 Z m -0.034764,0.0383603 V 0.83275344 h 0.0386001 V 1.0005798 Z m 0.11484117,0 L 0.9681649,0.9274555 0.9935786,0.899884 1.0731762,1.0005798 Z m 0.052252,0 V 0.83275344 h 0.1268288 v 0.0311678 h -0.088229 v 0.10549087 h 0.091345 V 1.0005798 Z M 1.1158381,0.9305723 V 0.9003635 h 0.080796 v 0.0302088 z m 0.1548662,0.0700075 v -0.068569 l 0.00887,0.0234957 -0.073844,-0.12275302 h 0.041237 l 0.056581,0.0942225 h -0.023735 l 0.056821,-0.0942225 h 0.038121 l -0.073844,0.12275302 0.00863,-0.0234957 v 0.068569 z M 3.2908812,0.76471689 H 1.8826863 c -0.00449,0 -0.00814,-0.003643 -0.00814,-0.008137 V 0.70047533 H 1.6693815 c -0.00449,0 -0.00814,-0.003643 -0.00814,-0.008137 V 0.45547385 l -0.220353,0.10486753 v 0.19639766 c 0,0.004493 -0.00364,0.008137 -0.00814,0.008137 H 0.26804149 c -0.004493,0 -0.008137,-0.003643 -0.008137,-0.008137 0,-0.004493 0.003643,-0.008137 0.008137,-0.008137 H 1.4246184 V 0.55520231 c 0,-0.003139 0.00181,-0.005999 0.00464,-0.007346 L 1.6612448,0.4374513 V 0.15992776 c 0,-0.004493 0.00364,-0.008137 0.00814,-0.008137 h 0.2097371 c 0.00449,0 0.00814,0.003643 0.00814,0.008137 v 0.18284775 c 0,0.003139 -0.00181,0.005998 -0.00464,0.007347 l -0.2051037,0.097607 V 0.68420189 H 1.8745496 V 0.3879953 c 0,-0.002956 0.0016,-0.00568 0.00419,-0.007115 0.00259,-0.001431 0.00574,-0.001354 0.00825,2.0956e-4 l 0.2034815,0.12687305 c 0.00238,0.001486 0.00383,0.004096 0.00383,0.006905 v 0.17747028 c 0,0.004493 -0.00364,0.008137 -0.00814,0.008137 H 1.890823 v 0.0479681 h 1.4000582 c 0.00449,0 0.00814,0.003643 0.00814,0.008137 0,0.004493 -0.00364,0.008137 -0.00814,0.008137 z M 1.890823,0.68420189 H 2.0780312 V 0.51938366 L 1.890823,0.40265767 Z M 1.6775182,0.16806448 V 0.42970691 L 1.8709818,0.33763642 V 0.16806448 Z M 2.5407069,1.6488931 v -0.089478 h 0.030823 q 0.010437,0 0.01593,0.00128 0.00769,0.00177 0.013123,0.00641 0.00708,0.00598 0.010559,0.01532 0.00354,0.00928 0.00354,0.02124 0,0.010193 -0.00238,0.018066 -0.00238,0.00787 -0.0061,0.013062 -0.00372,0.00513 -0.00818,0.00812 -0.00439,0.00293 -0.010681,0.00446 -0.00623,0.00153 -0.014343,0.00153 z m 0.011841,-0.010559 h 0.019104 q 0.00885,0 0.013855,-0.00165 0.00507,-0.00165 0.00806,-0.00464 0.00421,-0.00421 0.00653,-0.011292 0.00238,-0.00714 0.00238,-0.017273 0,-0.014038 -0.00464,-0.021545 -0.00458,-0.00757 -0.01117,-0.010132 -0.00476,-0.00183 -0.01532,-0.00183 h -0.018799 z m 0.077582,0.010559 v -0.089478 h 0.060364 v 0.010559 h -0.048523 v 0.02771 h 0.041992 v 0.010559 h -0.041992 v 0.040649 z m 0.089911,0 -0.023743,-0.089478 h 0.012146 l 0.013611,0.058655 q 0.0022,0.00922 0.00378,0.018311 0.00342,-0.014343 0.00403,-0.016541 l 0.017029,-0.060425 h 0.014282 l 0.012817,0.045288 q 0.00482,0.016846 0.00696,0.031677 0.00171,-0.00848 0.00446,-0.01947 l 0.014038,-0.057495 h 0.011902 l -0.024536,0.089478 h -0.011414 l -0.01886,-0.068176 q -0.00238,-0.00854 -0.00281,-0.010498 -0.0014,0.00616 -0.00262,0.010498 l -0.018982,0.068176 z m 0.1338022,0 v -0.089478 h 0.017822 l 0.021179,0.063355 q 0.00293,0.00885 0.00427,0.013245 0.00153,-0.00488 0.00476,-0.014343 l 0.021423,-0.062256 h 0.01593 v 0.089478 h -0.011413 v -0.07489 l -0.026001,0.07489 H 2.8911359 L 2.865257,1.5727212 v 0.076172 z m 0.1460026,-0.020874 0.011353,0.0014 q -0.00269,0.00995 -0.00995,0.015442 -0.00726,0.00549 -0.018555,0.00549 -0.014221,0 -0.022583,-0.00873 -0.0083,-0.00879 -0.0083,-0.024597 0,-0.016358 0.00842,-0.025391 0.00842,-0.00903 0.021851,-0.00903 0.013,0 0.02124,0.00885 0.00824,0.00885 0.00824,0.024902 0,9.761e-4 -6.25e-5,0.00293 h -0.04834 q 6.104e-4,0.010681 0.00604,0.016358 0.00543,0.00568 0.01355,0.00568 0.00604,0 0.010315,-0.00317 0.00427,-0.00317 0.00677,-0.010132 z m -0.036072,-0.017761 h 0.036194 q -7.323e-4,-0.00818 -0.00415,-0.012268 -0.00525,-0.00635 -0.013611,-0.00635 -0.00757,0 -0.012756,0.00507 -0.00513,0.00507 -0.00568,0.01355 z m 0.083747,0.028809 0.00159,0.0097 q -0.00464,9.761e-4 -0.0083,9.761e-4 -0.00598,0 -0.00928,-0.00189 -0.0033,-0.00189 -0.00464,-0.00494 -0.00134,-0.00311 -0.00134,-0.013 v -0.037292 h -0.00806 v -0.00855 h 0.00806 v -0.01605 l 0.010925,-0.00659 v 0.022644 h 0.011047 v 0.00855 h -0.011047 v 0.037903 q 0,0.0047 5.49e-4,0.00604 6.104e-4,0.00134 0.00189,0.00214 0.00134,7.937e-4 0.00378,7.937e-4 0.00183,0 0.00482,-4.271e-4 z m 0.00916,0.00983 v -0.064819 h 0.00989 v 0.00983 q 0.00378,-0.0069 0.00696,-0.00909 0.00323,-0.0022 0.00708,-0.0022 0.00555,0 0.011291,0.00354 l -0.00378,0.010193 q -0.00403,-0.00238 -0.00806,-0.00238 -0.0036,0 -0.00647,0.0022 -0.00287,0.00214 -0.00409,0.00598 -0.00183,0.00586 -0.00183,0.012817 v 0.033935 z m 0.0362,-0.03241 q 0,-0.018005 0.01001,-0.026672 0.00836,-0.0072 0.020386,-0.0072 0.013367,0 0.02185,0.00879 0.00848,0.00873 0.00848,0.02417 0,0.012512 -0.00378,0.019714 -0.00372,0.00714 -0.010925,0.011108 -0.00714,0.00397 -0.015625,0.00397 -0.013611,0 -0.022034,-0.00873 -0.00836,-0.00873 -0.00836,-0.025147 z m 0.011292,0 q 0,0.012451 0.00543,0.018677 0.00543,0.00616 0.013672,0.00616 0.00818,0 0.013611,-0.00623 0.00543,-0.00623 0.00543,-0.018982 0,-0.012024 -0.00549,-0.018189 -0.00543,-0.00623 -0.01355,-0.00623 -0.00824,0 -0.013672,0.00616 -0.00543,0.00616 -0.00543,0.018616 z m 0.060859,0.057251 v -0.089661 h 0.01001 v 0.00842 q 0.00354,-0.00494 0.008,-0.00739 0.00446,-0.0025 0.010803,-0.0025 0.0083,0 0.014649,0.00427 0.00635,0.00427 0.00958,0.012085 0.00323,0.00775 0.00323,0.017029 0,0.00995 -0.0036,0.017944 -0.00354,0.00793 -0.010376,0.012207 -0.00677,0.00421 -0.014282,0.00421 -0.00549,0 -0.00989,-0.00232 -0.00433,-0.00232 -0.00714,-0.00586 v 0.031555 z m 0.00995,-0.056885 q 0,0.012512 0.00507,0.018494 0.00507,0.00598 0.012268,0.00598 0.00732,0 0.012512,-0.00616 0.00525,-0.00623 0.00525,-0.019226 0,-0.01239 -0.00513,-0.018555 -0.00507,-0.00616 -0.012146,-0.00616 -0.00702,0 -0.012451,0.00659 -0.00537,0.00653 -0.00537,0.019043 z m 0.057868,0.032043 v -0.089478 h 0.010986 v 0.089478 z m 0.070929,-0.020874 0.011352,0.0014 q -0.00269,0.00995 -0.00995,0.015442 -0.00726,0.00549 -0.018555,0.00549 -0.014221,0 -0.022583,-0.00873 -0.0083,-0.00879 -0.0083,-0.024597 0,-0.016358 0.00842,-0.025391 0.00842,-0.00903 0.02185,-0.00903 0.013,0 0.02124,0.00885 0.00824,0.00885 0.00824,0.024902 0,9.761e-4 -6.25e-5,0.00293 h -0.04834 q 6.104e-4,0.010681 0.00604,0.016358 0.00543,0.00568 0.01355,0.00568 0.00604,0 0.010315,-0.00317 0.00427,-0.00317 0.00677,-0.010132 z m -0.036072,-0.017761 h 0.036194 q -7.323e-4,-0.00818 -0.00415,-0.012268 -0.00525,-0.00635 -0.013611,-0.00635 -0.00757,0 -0.012756,0.00507 -0.00513,0.00507 -0.00568,0.01355 z m 0.052436,0.038635 0.023682,-0.033691 -0.021912,-0.031128 h 0.013733 l 0.00995,0.015198 q 0.00281,0.00433 0.00452,0.00726 0.00269,-0.00403 0.00494,-0.00714 l 0.010925,-0.01532 h 0.013123 l -0.0224,0.030518 0.024109,0.034302 h -0.013489 l -0.013306,-0.020142 -0.00354,-0.00543 -0.017029,0.025574 z M 2.434181,1.8010268 v -0.089661 h 0.01001 v 0.00842 q 0.00354,-0.00494 0.008,-0.00739 0.00446,-0.0025 0.010803,-0.0025 0.0083,0 0.014648,0.00427 0.00635,0.00427 0.00958,0.012085 0.00323,0.00775 0.00323,0.017029 0,0.00995 -0.0036,0.017944 -0.00354,0.00793 -0.010376,0.012207 -0.00677,0.00421 -0.014282,0.00421 -0.00549,0 -0.00989,-0.00232 -0.00433,-0.00232 -0.00714,-0.00586 v 0.031555 z m 0.00995,-0.056885 q 0,0.012512 0.00507,0.018494 0.00507,0.00598 0.012268,0.00598 0.00732,0 0.012512,-0.00616 0.00525,-0.00623 0.00525,-0.019226 0,-0.01239 -0.00513,-0.018555 -0.00507,-0.00616 -0.012146,-0.00616 -0.00702,0 -0.012451,0.00659 -0.00537,0.00653 -0.00537,0.019043 z m 0.058112,0.032043 v -0.089478 h 0.010986 v 0.032104 q 0.00769,-0.00891 0.019409,-0.00891 0.0072,0 0.012512,0.00287 0.00531,0.00281 0.00757,0.00781 0.00232,0.005 0.00232,0.014526 v 0.041077 H 2.544054 v -0.041077 q 0,-0.00824 -0.0036,-0.011963 -0.00354,-0.00378 -0.010071,-0.00378 -0.00488,0 -0.00922,0.00256 -0.00427,0.0025 -0.0061,0.00684 -0.00183,0.00433 -0.00183,0.011963 v 0.035461 z m 0.071112,-0.052307 v -0.012512 h 0.012512 v 0.012512 z m 0,0.052307 v -0.012512 h 0.012512 v 0.012512 z m 0.1181771,-0.010559 v 0.010559 h -0.059143 q -1.219e-4,-0.00397 0.00128,-0.00763 0.00226,-0.00604 0.0072,-0.011902 0.005,-0.00586 0.014404,-0.01355 0.014587,-0.011963 0.019714,-0.018921 0.00513,-0.00702 0.00513,-0.013245 0,-0.00653 -0.0047,-0.010986 -0.00464,-0.00452 -0.012146,-0.00452 -0.00793,0 -0.012695,0.00476 -0.00476,0.00476 -0.00482,0.013184 l -0.011292,-0.00116 q 0.00116,-0.012634 0.00873,-0.019226 0.00757,-0.00665 0.020325,-0.00665 0.012878,0 0.020386,0.00714 0.00751,0.00714 0.00751,0.0177 0,0.00537 -0.0022,0.010559 -0.0022,0.00519 -0.00732,0.010925 -0.00507,0.00574 -0.016907,0.015747 -0.00989,0.0083 -0.012695,0.011292 -0.00281,0.00293 -0.00464,0.00592 z m 0.051703,0.010559 h -0.010986 v -0.070007 q -0.00397,0.00378 -0.010437,0.00757 -0.00641,0.00378 -0.011536,0.00568 v -0.01062 q 0.00922,-0.00433 0.016113,-0.010498 0.0069,-0.00616 0.00977,-0.011963 h 0.00708 z m 0.061896,0 v -0.021423 h -0.038819 v -0.010071 l 0.040833,-0.057983 h 0.00897 v 0.057983 h 0.012085 v 0.010071 h -0.012085 v 0.021423 z m 0,-0.031494 v -0.040344 l -0.028015,0.040344 z m 0.031623,0.00464 V 1.7382826 H 2.870506 V 1.74933 Z m 0.076606,0.026855 v -0.021423 h -0.038818 v -0.010071 l 0.040833,-0.057983 h 0.00897 v 0.057983 h 0.012085 v 0.010071 h -0.012085 v 0.021423 z m 0,-0.031494 v -0.040344 l -0.028015,0.040344 z m 0.032904,0.00787 0.010986,-0.00146 q 0.00189,0.00934 0.00641,0.013489 0.00458,0.00409 0.011109,0.00409 0.00775,0 0.013061,-0.00537 0.00537,-0.00537 0.00537,-0.013306 0,-0.00757 -0.00494,-0.012451 -0.00494,-0.00494 -0.012573,-0.00494 -0.00311,0 -0.00775,0.00122 l 0.00122,-0.00964 q 0.0011,1.218e-4 0.00177,1.218e-4 0.00702,0 0.012634,-0.00366 0.00562,-0.00366 0.00562,-0.011292 0,-0.00604 -0.00409,-0.01001 -0.00409,-0.00397 -0.010559,-0.00397 -0.00641,0 -0.010681,0.00403 -0.00427,0.00403 -0.00549,0.012085 l -0.010986,-0.00195 q 0.00201,-0.011047 0.00916,-0.01709 0.00714,-0.0061 0.017761,-0.0061 0.00732,0 0.013489,0.00317 0.00616,0.00311 0.0094,0.00854 0.0033,0.00543 0.0033,0.011536 0,0.0058 -0.00311,0.010559 -0.00311,0.00476 -0.00922,0.00757 0.00793,0.00183 0.012329,0.00763 0.00439,0.00574 0.00439,0.014404 0,0.011719 -0.00854,0.019897 -0.00854,0.00812 -0.021606,0.00812 -0.01178,0 -0.019592,-0.00702 -0.00775,-0.00702 -0.00885,-0.018189 z m 0.068732,-0.054138 v -0.010559 h 0.057922 v 0.00854 q -0.00854,0.00909 -0.016968,0.02417 -0.00836,0.015076 -0.012939,0.031006 -0.0033,0.01123 -0.00421,0.024597 H 3.027508 q 1.833e-4,-0.010559 0.00415,-0.025513 0.00397,-0.014954 0.011353,-0.028809 0.00745,-0.013916 0.015808,-0.023437 z m 0.066108,0.050903 v -0.011047 h 0.033752 v 0.01105 z m 0.058295,-0.021667 q -0.00684,-0.0025 -0.010132,-0.00714 -0.0033,-0.00464 -0.0033,-0.011108 0,-0.00977 0.00702,-0.016419 0.00702,-0.00665 0.018677,-0.00665 0.011719,0 0.01886,0.00684 0.00714,0.00677 0.00714,0.01654 0,0.00623 -0.0033,0.010864 -0.00323,0.00458 -0.00989,0.00708 0.00824,0.00269 0.012512,0.00867 0.00433,0.00598 0.00433,0.014282 0,0.011475 -0.00812,0.019287 -0.00812,0.00781 -0.021362,0.00781 -0.013245,0 -0.021362,-0.00781 -0.00812,-0.00787 -0.00812,-0.019592 0,-0.00873 0.00439,-0.014587 0.00446,-0.00592 0.012634,-0.00806 z m -0.0022,-0.018616 q 0,0.00635 0.00409,0.010376 0.00409,0.00403 0.01062,0.00403 0.00635,0 0.010376,-0.00397 0.00409,-0.00403 0.00409,-0.00983 0,-0.00604 -0.00421,-0.010132 -0.00415,-0.00415 -0.010376,-0.00415 -0.00629,0 -0.010437,0.00403 -0.00415,0.00403 -0.00415,0.00964 z m -0.00354,0.041321 q 0,0.0047 0.0022,0.00909 0.00226,0.00439 0.00665,0.00684 0.00439,0.00238 0.00946,0.00238 0.00787,0 0.013,-0.00507 0.00513,-0.00507 0.00513,-0.012878 0,-0.00793 -0.00531,-0.013122 -0.00525,-0.00519 -0.013184,-0.00519 -0.00775,0 -0.012878,0.00513 -0.00507,0.00513 -0.00507,0.012817 z m 0.098273,0.025818 h -0.010986 v -0.070007 q -0.00397,0.00378 -0.010437,0.00757 -0.00641,0.00378 -0.011536,0.00568 v -0.01062 q 0.00922,-0.00433 0.016113,-0.010498 0.0069,-0.00616 0.00977,-0.011963 h 0.00708 z m 0.058784,0 h -0.010986 v -0.070007 q -0.00397,0.00378 -0.010437,0.00757 -0.00641,0.00378 -0.011536,0.00568 v -0.01062 q 0.00922,-0.00433 0.016113,-0.010498 0.0069,-0.00616 0.00977,-0.011963 h 0.00708 z m 0.02674,-0.023621 0.010986,-0.00146 q 0.00189,0.00934 0.00641,0.013489 0.00458,0.00409 0.011108,0.00409 0.00775,0 0.013062,-0.00537 0.00537,-0.00537 0.00537,-0.013306 0,-0.00757 -0.00494,-0.012451 -0.00494,-0.00494 -0.012573,-0.00494 -0.00311,0 -0.00775,0.00122 l 0.00122,-0.00964 q 0.0011,1.218e-4 0.00177,1.218e-4 0.00702,0 0.012634,-0.00366 0.00562,-0.00366 0.00562,-0.011292 0,-0.00604 -0.00409,-0.01001 -0.00409,-0.00397 -0.010559,-0.00397 -0.00641,0 -0.010681,0.00403 -0.00427,0.00403 -0.00549,0.012085 l -0.010986,-0.00195 q 0.00201,-0.011047 0.00916,-0.01709 0.00714,-0.0061 0.017761,-0.0061 0.00732,0 0.013489,0.00317 0.00616,0.00311 0.0094,0.00854 0.0033,0.00543 0.0033,0.011536 0,0.0058 -0.00311,0.010559 -0.00311,0.00476 -0.00922,0.00757 0.00793,0.00183 0.012329,0.00763 0.00439,0.00574 0.00439,0.014404 0,0.011719 -0.00854,0.019897 -0.00854,0.00812 -0.021606,0.00812 -0.01178,0 -0.019592,-0.00702 -0.00775,-0.00702 -0.00885,-0.018189 z m -0.6235525,0.150913 v -0.089478 h 0.060364 v 0.010559 H 2.705746 v 0.02771 h 0.041992 v 0.010559 H 2.705746 v 0.040649 z m 0.1153631,0 v -0.00952 q -0.00757,0.010986 -0.020569,0.010986 -0.00574,0 -0.010742,-0.0022 -0.00494,-0.0022 -0.00739,-0.00549 -0.00238,-0.00336 -0.00336,-0.00818 -6.719e-4,-0.00323 -6.719e-4,-0.010254 v -0.040161 h 0.010986 v 0.03595 q 0,0.00861 6.719e-4,0.011597 0.00104,0.00433 0.00439,0.00684 0.00336,0.00244 0.0083,0.00244 0.00494,0 0.00928,-0.0025 0.00433,-0.00256 0.0061,-0.0069 0.00183,-0.00439 0.00183,-0.012695 v -0.034729 h 0.010986 v 0.064819 z m 0.025336,0 v -0.089478 h 0.010986 v 0.089478 z m 0.026313,0 v -0.089478 h 0.010986 v 0.089478 z m 0.026069,0.024963 -0.00122,-0.010315 q 0.0036,9.761e-4 0.00629,9.761e-4 0.00366,0 0.00586,-0.00122 0.0022,-0.00122 0.0036,-0.00342 0.00104,-0.00165 0.00336,-0.00818 3.052e-4,-9.156e-4 9.76e-4,-0.00269 L 2.8812476,1.838658 h 0.011841 l 0.013489,0.037537 q 0.00262,0.00714 0.0047,0.015015 0.00189,-0.00757 0.00452,-0.014771 l 0.013855,-0.037781 h 0.010986 l -0.024658,0.065918 q -0.00397,0.010681 -0.00616,0.014709 -0.00293,0.00543 -0.00671,0.00793 -0.00378,0.00256 -0.00903,0.00256 -0.00317,0 -0.00708,-0.00134 z m 0.098219,-0.024963 v -0.089478 h 0.011841 v 0.089478 z m 0.029853,0 v -0.064819 h 0.00989 v 0.00922 q 0.00714,-0.010681 0.02063,-0.010681 0.00586,0 0.010742,0.00214 0.00494,0.00208 0.00739,0.00549 0.00244,0.00342 0.00342,0.00812 6.104e-4,0.00305 6.104e-4,0.010681 v 0.039856 H 3.056744 v -0.039429 q 0,-0.00671 -0.00128,-0.01001 -0.00128,-0.00336 -0.00458,-0.00531 -0.00323,-0.00201 -0.00763,-0.00201 -0.00702,0 -0.012146,0.00446 -0.00507,0.00446 -0.00507,0.016907 v 0.0354 z m 0.063666,-0.019348 0.010864,-0.00171 q 9.156e-4,0.00653 0.00507,0.01001 0.00421,0.00348 0.011719,0.00348 0.00757,0 0.01123,-0.00305 0.00366,-0.00311 0.00366,-0.00726 0,-0.00372 -0.00323,-0.00586 -0.00226,-0.00146 -0.01123,-0.00372 -0.012085,-0.00305 -0.016785,-0.00525 -0.00464,-0.00226 -0.00708,-0.00616 -0.00238,-0.00397 -0.00238,-0.00873 0,-0.00433 0.00195,-0.008 0.00201,-0.00372 0.00543,-0.00616 0.00256,-0.00189 0.00696,-0.00317 0.00446,-0.00134 0.00952,-0.00134 0.00763,0 0.013367,0.0022 0.0058,0.0022 0.00854,0.00598 0.00275,0.00372 0.00378,0.01001 l -0.010742,0.00146 q -7.323e-4,-0.005 -0.00427,-0.00781 -0.00348,-0.00281 -0.00989,-0.00281 -0.00757,0 -0.010803,0.0025 -0.00323,0.0025 -0.00323,0.00586 0,0.00214 0.00134,0.00385 0.00134,0.00177 0.00421,0.00293 0.00165,6.104e-4 0.0097,0.00281 0.011658,0.00311 0.016235,0.00513 0.00464,0.00195 0.00726,0.00574 0.00262,0.00378 0.00262,0.0094 0,0.00549 -0.00323,0.010376 -0.00317,0.00482 -0.00922,0.00751 -0.00604,0.00262 -0.013672,0.00262 -0.012634,0 -0.019287,-0.00525 -0.00659,-0.00525 -0.00842,-0.015564 z m 0.1079167,0.019348 v -0.00952 q -0.00757,0.010986 -0.020569,0.010986 -0.00574,0 -0.010742,-0.0022 -0.00494,-0.0022 -0.00739,-0.00549 -0.00238,-0.00336 -0.00336,-0.00818 -6.708e-4,-0.00323 -6.708e-4,-0.010254 v -0.040161 h 0.010986 v 0.03595 q 0,0.00861 6.708e-4,0.011597 0.00104,0.00433 0.00439,0.00684 0.00336,0.00244 0.0083,0.00244 0.00494,0 0.00928,-0.0025 0.00433,-0.00256 0.0061,-0.0069 0.00183,-0.00439 0.00183,-0.012695 v -0.034729 h 0.010986 v 0.064819 z m 0.025458,0 v -0.064819 h 0.00989 v 0.00983 q 0.00378,-0.0069 0.00696,-0.00909 0.00323,-0.0022 0.00708,-0.0022 0.00555,0 0.011292,0.00354 l -0.00378,0.010193 q -0.00403,-0.00238 -0.00806,-0.00238 -0.0036,0 -0.00647,0.0022 -0.00287,0.00214 -0.00409,0.00598 -0.00183,0.00586 -0.00183,0.012817 v 0.033936 z m 0.084662,-0.020874 0.011353,0.0014 q -0.00269,0.00995 -0.00995,0.015442 -0.00726,0.00549 -0.018555,0.00549 -0.014221,0 -0.022583,-0.00873 -0.0083,-0.00879 -0.0083,-0.024597 0,-0.016357 0.00842,-0.025391 0.00842,-0.00903 0.02185,-0.00903 0.013,0 0.02124,0.00885 0.00824,0.00885 0.00824,0.024902 0,9.761e-4 -6.25e-5,0.00293 h -0.04834 q 6.104e-4,0.010681 0.00604,0.016357 0.00543,0.00568 0.01355,0.00568 0.00604,0 0.010315,-0.00317 0.00427,-0.00317 0.00677,-0.010132 z m -0.036072,-0.017761 h 0.036194 q -7.323e-4,-0.00818 -0.00415,-0.012268 -0.00525,-0.00635 -0.013611,-0.00635 -0.00757,0 -0.012756,0.00507 -0.00513,0.00507 -0.00568,0.01355 z m 0.1018133,0.038635 v -0.00818 q -0.00616,0.00964 -0.018128,0.00964 -0.00775,0 -0.014282,-0.00427 -0.00647,-0.00427 -0.010071,-0.011902 -0.00354,-0.00769 -0.00354,-0.017639 0,-0.0097 0.00323,-0.017578 0.00323,-0.00793 0.0097,-0.012146 0.00647,-0.00421 0.014465,-0.00421 0.00586,0 0.010437,0.0025 0.00458,0.00244 0.00745,0.00641 v -0.032104 h 0.010925 v 0.089478 z m -0.034729,-0.032349 q 0,0.012451 0.00525,0.018616 0.00525,0.00616 0.01239,0.00616 0.0072,0 0.012207,-0.00586 0.00507,-0.00592 0.00507,-0.018005 0,-0.013306 -0.00513,-0.019531 -0.00513,-0.00623 -0.012634,-0.00623 -0.00732,0 -0.012268,0.00598 -0.00488,0.00598 -0.00488,0.01886 z M 0.19203506,1.8246768 v -0.012751 h 0.0109907 v 0.012751 z m -0.0139215,0.101827 0.002076,-0.00933 q 0.003297,8.542e-4 0.00519,8.542e-4 0.003358,0 0.005007,-0.00226 0.001649,-0.0022 0.001649,-0.011104 V 1.836576 h 0.0109907 v 0.068332 q 0,0.011958 -0.003114,0.016656 -0.003969,0.0061 -0.0131888,0.0061 -0.004457,0 -0.00861,-0.00116 z m 0.0480781,-0.101949 v -0.012629 h 0.0109907 v 0.012629 z m 0,0.076812 v -0.064793 h 0.0109907 v 0.064793 z m 0.0339734,0 v -0.064793 h 0.009831 v 0.00909 q 0.003053,-0.00476 0.008121,-0.00763 0.005068,-0.00293 0.0115402,-0.00293 0.007205,0 0.0117844,0.00299 0.004641,0.00299 0.006533,0.00836 0.007693,-0.011348 0.0200274,-0.011348 0.009647,0 0.0148374,0.00537 0.00519,0.00531 0.00519,0.016412 v 0.044477 h -0.0109296 v -0.040816 q 0,-0.00659 -0.001099,-0.00946 -0.001038,-0.00293 -0.003847,-0.0047 -0.002809,-0.00177 -0.006594,-0.00177 -0.006839,0 -0.011357,0.00458 -0.004518,0.00451 -0.004518,0.01452 v 0.037644 h -0.0109907 v -0.042097 q 0,-0.00732 -0.002687,-0.010982 -0.002687,-0.00366 -0.008793,-0.00366 -0.00464,0 -0.008609,0.00244 -0.003908,0.00244 -0.005679,0.00714 -0.001771,0.0047 -0.001771,0.013544 v 0.033617 z m 0.17306638,-0.00994 q -0.003969,0.00458 -0.008915,0.00738 -0.004885,0.00275 -0.009831,0.00275 -0.005434,0 -0.0105632,-0.00317 -0.005129,-0.00317 -0.008365,-0.00976 -0.003175,-0.00659 -0.003175,-0.014459 0,-0.0097 0.004946,-0.019402 0.005007,-0.00976 0.012395,-0.014643 0.007388,-0.00488 0.0143489,-0.00488 0.005312,0 0.0101358,0.00281 0.004824,0.00275 0.008304,0.00842 l 0.002076,-0.00946 H 0.455518 l -0.008793,0.040938 q -0.001832,0.00854 -0.001832,0.00946 0,0.00165 0.001221,0.00287 0.001282,0.00116 0.003053,0.00116 0.003236,0 0.008487,-0.00372 0.006961,-0.00488 0.0109907,-0.013056 0.004091,-0.00824 0.004091,-0.016961 0,-0.010189 -0.005251,-0.019035 -0.00519,-0.00885 -0.0155701,-0.014155 -0.010319,-0.00531 -0.0228362,-0.00531 -0.0142879,0 -0.0261334,0.00671 -0.0117844,0.00665 -0.0183178,0.019157 -0.006472,0.012446 -0.006472,0.026723 0,0.014948 0.006472,0.025747 0.006533,0.010799 0.0188063,0.015924 0.012334,0.00519 0.0272935,0.00519 0.0159975,0 0.026805,-0.00537 0.0108075,-0.00537 0.0161807,-0.013056 h 0.0110517 q -0.003114,0.00641 -0.0106854,0.013056 -0.007571,0.00665 -0.0180125,0.010494 -0.0104411,0.0039 -0.0251564,0.0039 -0.0135551,0 -0.0250343,-0.00348 -0.0114181,-0.00348 -0.0194779,-0.010494 -0.00806,-0.00696 -0.0121508,-0.016046 -0.005129,-0.011531 -0.005129,-0.024892 0,-0.014887 0.006106,-0.02837 0.007449,-0.016534 0.0211265,-0.025319 0.0137383,-0.00879 0.0332773,-0.00879 0.0151427,0 0.0271714,0.00622 0.0120897,0.00616 0.0190505,0.018425 0.005923,0.010555 0.005923,0.02294 0,0.017693 -0.0124561,0.031421 -0.0111128,0.012324 -0.0243016,0.012324 -0.004213,0 -0.006839,-0.00128 -0.002564,-0.00128 -0.003786,-0.00366 -7.9375e-4,-0.00153 -0.00116,-0.00525 z m -0.0295527,-0.016534 q 0,0.00836 0.003969,0.012995 0.003969,0.00464 0.009098,0.00464 0.003419,0 0.007205,-0.00201 0.003786,-0.00207 0.007205,-0.0061 0.00348,-0.00403 0.005679,-0.010189 0.002198,-0.00622 0.002198,-0.012446 0,-0.0083 -0.004152,-0.012873 -0.004091,-0.00458 -0.0100137,-0.00458 -0.003908,0 -0.007388,0.00201 -0.003419,0.00195 -0.006655,0.00635 -0.003236,0.00439 -0.00519,0.010677 -0.001954,0.00628 -0.001954,0.011531 z m 0.1000395,-0.050212 v -0.012751 h 0.0109907 v 0.012751 z m -0.0139215,0.101827 0.002076,-0.00933 q 0.003297,8.542e-4 0.00519,8.542e-4 0.003358,0 0.005007,-0.00226 0.001649,-0.0022 0.001649,-0.011104 V 1.83658 h 0.0109907 v 0.068332 q 0,0.011958 -0.003114,0.016656 -0.003969,0.0061 -0.0131888,0.0061 -0.004457,0 -0.00861,-0.00116 z m 0.048017,-0.025137 v -0.064793 h 0.009831 v 0.00909 q 0.003053,-0.00476 0.008121,-0.00763 0.005068,-0.00293 0.0115402,-0.00293 0.007205,0 0.0117844,0.00299 0.004641,0.00299 0.006533,0.00836 0.007693,-0.011348 0.0200274,-0.011348 0.009647,0 0.0148374,0.00537 0.00519,0.00531 0.00519,0.016412 v 0.044477 h -0.0109296 v -0.040816 q 0,-0.00659 -0.001099,-0.00946 -0.001038,-0.00293 -0.003847,-0.0047 -0.002809,-0.00177 -0.006594,-0.00177 -0.006839,0 -0.011357,0.00458 -0.004518,0.00451 -0.004518,0.01452 v 0.037644 h -0.0109907 v -0.042097 q 0,-0.00732 -0.002687,-0.010982 -0.002687,-0.00366 -0.008793,-0.00366 -0.00464,0 -0.008609,0.00244 -0.003908,0.00244 -0.005679,0.00714 -0.001771,0.0047 -0.001771,0.013544 v 0.033617 z m 0.15273362,-0.00799 q -0.006106,0.00519 -0.0117844,0.00732 -0.005617,0.00214 -0.0120897,0.00214 -0.0106854,0 -0.0164249,-0.00519 -0.00574,-0.00525 -0.00574,-0.013361 0,-0.00476 0.002137,-0.00866 0.002198,-0.00397 0.005679,-0.00635 0.003541,-0.00238 0.007938,-0.0036 0.003236,-8.542e-4 0.009769,-0.00165 0.0133109,-0.00159 0.0196,-0.00378 6.151e-5,-0.00226 6.151e-5,-0.00287 0,-0.00671 -0.003114,-0.00946 -0.004213,-0.00372 -0.0125171,-0.00372 -0.007755,0 -0.0114791,0.00275 -0.003664,0.00268 -0.005434,0.00958 l -0.0107464,-0.00146 q 0.001465,-0.00689 0.004824,-0.011104 0.003358,-0.00427 0.009708,-0.00653 0.00635,-0.00232 0.0147153,-0.00232 0.008304,0 0.0134941,0.00195 0.00519,0.00195 0.007632,0.00494 0.002442,0.00293 0.003419,0.00744 5.495e-4,0.00281 5.495e-4,0.010128 v 0.014643 q 0,0.015314 6.7168e-4,0.019401 7.3266e-4,0.00403 0.002809,0.00775 h -0.0114791 q -0.00171,-0.00342 -0.002198,-0.00799 z m -9.1594e-4,-0.024526 q -0.005984,0.00244 -0.0179514,0.00415 -0.006778,9.761e-4 -0.009586,0.0022 -0.002809,0.00122 -0.004335,0.0036 -0.001526,0.00232 -0.001526,0.00519 0,0.00439 0.003297,0.00732 0.003358,0.00293 0.009769,0.00293 0.00635,0 0.011296,-0.00275 0.004946,-0.00281 0.007266,-0.00763 0.001771,-0.00372 0.001771,-0.010982 z m 0.0767149,0.00879 0.0108075,0.0014 q -0.001771,0.011165 -0.009098,0.01751 -0.007266,0.00628 -0.0178904,0.00628 -0.0133109,0 -0.0214318,-0.00866 -0.00806,-0.00872 -0.00806,-0.024953 0,-0.010494 0.00348,-0.018364 0.00348,-0.00787 0.0105633,-0.011775 0.007144,-0.00397 0.015509,-0.00397 0.0105633,0 0.0172798,0.00537 0.006717,0.00531 0.008609,0.015131 l -0.0106854,0.00165 q -0.001526,-0.00653 -0.005434,-0.00982 -0.003847,-0.00329 -0.009342,-0.00329 -0.008304,0 -0.0134941,0.00598 -0.00519,0.00592 -0.00519,0.018791 0,0.013056 0.005007,0.018974 0.005007,0.00592 0.0130667,0.00592 0.006472,0 0.0108075,-0.00397 0.004335,-0.00397 0.005495,-0.012202 z m 0.0265242,0.023733 v -0.089442 h 0.0109907 v 0.051005 l 0.0260113,-0.026357 h 0.0142269 l -0.0247901,0.024038 0.0272935,0.040755 h -0.0135551 l -0.0214318,-0.033129 -0.007755,0.00744 v 0.025686 z m 0.11310622,-0.020866 0.011357,0.0014 q -0.002687,0.00994 -0.009953,0.015436 -0.007266,0.00549 -0.018562,0.00549 -0.0142268,0 -0.0225919,-0.00872 -0.008304,-0.00879 -0.008304,-0.024587 0,-0.016351 0.008426,-0.02538 0.008426,-0.00903 0.0218592,-0.00903 0.0130056,0 0.0212486,0.00885 0.008243,0.00885 0.008243,0.024892 0,9.76e-4 -6.255e-5,0.00293 h -0.0483589 q 6.1059e-4,0.010677 0.006045,0.016351 0.005434,0.00567 0.0135552,0.00567 0.006045,0 0.010319,-0.00317 0.004274,-0.00317 0.006778,-0.010128 z m -0.036086,-0.017754 h 0.0362081 q -7.3287e-4,-0.00818 -0.004152,-0.012263 -0.005251,-0.00635 -0.0136161,-0.00635 -0.007571,0 -0.0127614,0.00506 -0.005129,0.00506 -0.005679,0.013544 z m 0.0670064,0.063573 -0.001221,-0.010311 q 0.003602,9.761e-4 0.006289,9.761e-4 0.003664,0 0.005862,-0.00122 0.002198,-0.00122 0.003602,-0.00342 0.001038,-0.00165 0.003358,-0.00818 3.0545e-4,-9.156e-4 9.7682e-4,-0.00268 l -0.0246068,-0.064915 h 0.0118455 l 0.0134942,0.037522 q 0.002626,0.00714 0.004702,0.015009 0.001893,-0.00757 0.004518,-0.014765 l 0.0138604,-0.037766 h 0.0109907 l -0.0246679,0.065892 q -0.003969,0.010677 -0.006167,0.014703 -0.002931,0.00543 -0.006716,0.00793 -0.003786,0.00256 -0.009037,0.00256 -0.003175,0 -0.007083,-0.00134 z m 0.11157966,-0.048687 0.010808,0.0014 q -0.00177,0.011165 -0.0091,0.01751 -0.00727,0.00628 -0.01789,0.00628 -0.013311,0 -0.021432,-0.00866 -0.00806,-0.00872 -0.00806,-0.024953 0,-0.010494 0.00348,-0.018364 0.00348,-0.00787 0.010563,-0.011775 0.00714,-0.00397 0.015509,-0.00397 0.010563,0 0.01728,0.00537 0.00672,0.00531 0.00861,0.015131 l -0.010685,0.00165 q -0.00153,-0.00653 -0.00543,-0.00982 -0.00385,-0.00329 -0.00934,-0.00329 -0.0083,0 -0.013494,0.00598 -0.00519,0.00592 -0.00519,0.018791 0,0.013056 0.00501,0.018974 0.00501,0.00592 0.013067,0.00592 0.00647,0 0.010807,-0.00397 0.00434,-0.00397 0.0055,-0.012202 z m 0.022372,-0.00866 q 0,-0.017998 0.010014,-0.026662 0.00837,-0.0072 0.020394,-0.0072 0.013372,0 0.021859,0.00879 0.00849,0.00872 0.00849,0.02416 0,0.012507 -0.00379,0.019707 -0.00372,0.00714 -0.01093,0.011104 -0.00714,0.00397 -0.015631,0.00397 -0.013616,0 -0.022042,-0.00872 -0.00837,-0.00872 -0.00837,-0.025136 z m 0.011296,0 q 0,0.012446 0.00543,0.018669 0.00543,0.00616 0.013677,0.00616 0.00818,0 0.013616,-0.00622 0.00543,-0.00622 0.00543,-0.018974 0,-0.012019 -0.0055,-0.018181 -0.00543,-0.00622 -0.013555,-0.00622 -0.00824,0 -0.013677,0.00616 -0.00543,0.00616 -0.00543,0.018608 z m 0.068594,0.032397 v -0.064793 h 0.00989 v 0.00921 q 0.00714,-0.010677 0.020638,-0.010677 0.00586,0 0.010746,0.00214 0.00495,0.00207 0.00739,0.00549 0.00244,0.00342 0.00342,0.00811 6.109e-4,0.00305 6.109e-4,0.010677 v 0.03984 h -0.010991 v -0.039413 q 0,-0.00671 -0.00128,-0.010006 -0.00128,-0.00336 -0.00458,-0.00531 -0.00324,-0.00201 -0.00763,-0.00201 -0.00702,0 -0.012151,0.00445 -0.00507,0.00445 -0.00507,0.0169 v 0.035386 z m 0.071403,-0.01934 0.010868,-0.00171 q 9.164e-4,0.00653 0.00507,0.010006 0.00421,0.00348 0.011723,0.00348 0.00757,0 0.011235,-0.00305 0.00366,-0.00311 0.00366,-0.00726 0,-0.00372 -0.00324,-0.00586 -0.00226,-0.00146 -0.011235,-0.00372 -0.01209,-0.00305 -0.016791,-0.00525 -0.00464,-0.00226 -0.00708,-0.00616 -0.00238,-0.00397 -0.00238,-0.00872 0,-0.00433 0.00195,-0.00799 0.00201,-0.00372 0.00543,-0.00616 0.00256,-0.00189 0.00696,-0.00317 0.00446,-0.00134 0.00953,-0.00134 0.00763,0 0.013372,0.0022 0.0058,0.0022 0.00855,0.00598 0.00275,0.00372 0.00379,0.010006 l -0.010746,0.00146 q -7.329e-4,-0.005 -0.00427,-0.00781 -0.00348,-0.00281 -0.00989,-0.00281 -0.00757,0 -0.010808,0.0025 -0.00324,0.0025 -0.00324,0.00586 0,0.00214 0.00134,0.00384 0.00134,0.00177 0.00421,0.00293 0.00165,6.104e-4 0.00971,0.00281 0.011662,0.00311 0.016242,0.00512 0.00464,0.00195 0.00727,0.00574 0.00263,0.00378 0.00263,0.0094 0,0.00549 -0.00324,0.010372 -0.00318,0.00482 -0.00922,0.0075 -0.00604,0.00262 -0.013677,0.00262 -0.012639,0 -0.019295,-0.00525 -0.00659,-0.00525 -0.00843,-0.015558 z m 0.09717,0.00952 0.00159,0.0097 q -0.00464,9.76e-4 -0.0083,9.76e-4 -0.00598,0 -0.00928,-0.00189 -0.0033,-0.00189 -0.00464,-0.00494 -0.00134,-0.00311 -0.00134,-0.012995 V 1.8451153 H 1.28927 v -0.00854 H 1.29733 V 1.820528 l 0.01093,-0.00659 v 0.022635 h 0.011052 v 0.00854 H 1.30826 v 0.037888 q 0,0.0047 5.494e-4,0.00604 6.109e-4,0.00134 0.00189,0.00214 0.00134,7.927e-4 0.00379,7.927e-4 0.00183,0 0.00482,-4.271e-4 z m 0.016877,0.00982 v -0.064793 h 0.00989 v 0.00982 q 0.00379,-0.00689 0.00696,-0.00909 0.00324,-0.0022 0.00708,-0.0022 0.00556,0 0.011296,0.00354 l -0.00379,0.010189 q -0.00403,-0.00238 -0.00806,-0.00238 -0.0036,0 -0.00647,0.0022 -0.00287,0.00214 -0.00409,0.00598 -0.00183,0.00586 -0.00183,0.012812 v 0.033922 z m 0.090514,0 v -0.00952 q -0.00757,0.010982 -0.020577,0.010982 -0.00574,0 -0.010746,-0.0022 -0.00495,-0.0022 -0.00739,-0.00549 -0.00238,-0.00336 -0.00336,-0.00818 -6.714e-4,-0.00323 -6.714e-4,-0.01025 v -0.040145 h 0.010991 v 0.035935 q 0,0.0086 6.714e-4,0.011592 0.00104,0.00433 0.0044,0.00683 0.00336,0.00244 0.0083,0.00244 0.00495,0 0.00928,-0.0025 0.00434,-0.00256 0.00611,-0.00689 0.00183,-0.00439 0.00183,-0.01269 v -0.034715 h 0.010991 v 0.064793 z m 0.075616,-0.023733 0.010807,0.0014 q -0.00177,0.011165 -0.0091,0.01751 -0.00727,0.00628 -0.01789,0.00628 -0.013311,0 -0.021432,-0.00866 -0.00806,-0.00872 -0.00806,-0.024953 0,-0.010494 0.00348,-0.018364 0.00348,-0.00787 0.010563,-0.011775 0.00714,-0.00397 0.015509,-0.00397 0.010563,0 0.01728,0.00537 0.00672,0.00531 0.00861,0.015131 l -0.010685,0.00165 q -0.00153,-0.00653 -0.00543,-0.00982 -0.00385,-0.00329 -0.00934,-0.00329 -0.0083,0 -0.013494,0.00598 -0.00519,0.00592 -0.00519,0.018791 0,0.013056 0.00501,0.018974 0.00501,0.00592 0.013067,0.00592 0.00647,0 0.010808,-0.00397 0.00434,-0.00397 0.0055,-0.012202 z m 0.050459,0.01391 0.00159,0.0097 q -0.00464,9.76e-4 -0.0083,9.76e-4 -0.00598,0 -0.00928,-0.00189 -0.0033,-0.00189 -0.00464,-0.00494 -0.00134,-0.00311 -0.00134,-0.012995 v -0.037278 h -0.00806 v -0.00854 h 0.00806 V 1.820528 l 0.01093,-0.00659 v 0.022635 h 0.011052 v 0.00854 h -0.011052 v 0.037888 q 0,0.0047 5.494e-4,0.00604 6.109e-4,0.00134 0.00189,0.00214 0.00134,7.927e-4 0.00379,7.927e-4 0.00183,0 0.00482,-4.271e-4 z m 0.01706,-0.06699 v -0.012629 h 0.010991 v 0.012629 z m 0,0.076812 v -0.064793 h 0.010991 v 0.064793 z m 0.029882,-0.032397 q 0,-0.017998 0.010014,-0.026662 0.00837,-0.0072 0.020394,-0.0072 0.013372,0 0.021859,0.00879 0.00849,0.00872 0.00849,0.02416 0,0.012507 -0.00379,0.019707 -0.00372,0.00714 -0.01093,0.011104 -0.00714,0.00397 -0.015631,0.00397 -0.013616,0 -0.022042,-0.00872 -0.00837,-0.00872 -0.00837,-0.025136 z m 0.011296,0 q 0,0.012446 0.00543,0.018669 0.00543,0.00616 0.013677,0.00616 0.00818,0 0.013616,-0.00622 0.00543,-0.00622 0.00543,-0.018974 0,-0.012019 -0.0055,-0.018181 -0.00543,-0.00622 -0.013555,-0.00622 -0.00824,0 -0.013677,0.00616 -0.00543,0.00616 -0.00543,0.018608 z m 0.068594,0.032397 v -0.064793 h 0.00989 v 0.00921 q 0.00714,-0.010677 0.020638,-0.010677 0.00586,0 0.010746,0.00214 0.00495,0.00207 0.00739,0.00549 0.00244,0.00342 0.00342,0.00811 6.109e-4,0.00305 6.109e-4,0.010677 v 0.03984 h -0.010991 v -0.039413 q 0,-0.00671 -0.00128,-0.010006 -0.00128,-0.00336 -0.00458,-0.00531 -0.00324,-0.00201 -0.00763,-0.00201 -0.00702,0 -0.012151,0.00445 -0.00507,0.00445 -0.00507,0.0169 v 0.035386 z m 0.078913,0 v -0.012507 h 0.012517 v 0.012507 z m 0.080195,-0.023733 0.010807,0.0014 q -0.00177,0.011165 -0.0091,0.01751 -0.00727,0.00628 -0.01789,0.00628 -0.013311,0 -0.021432,-0.00866 -0.00806,-0.00872 -0.00806,-0.024953 0,-0.010494 0.00348,-0.018364 0.00348,-0.00787 0.010563,-0.011775 0.00714,-0.00397 0.015509,-0.00397 0.010563,0 0.01728,0.00537 0.00672,0.00531 0.00861,0.015131 l -0.010685,0.00165 q -0.00153,-0.00653 -0.00543,-0.00982 -0.00385,-0.00329 -0.00934,-0.00329 -0.0083,0 -0.013494,0.00598 -0.00519,0.00592 -0.00519,0.018791 0,0.013056 0.00501,0.018974 0.00501,0.00592 0.013067,0.00592 0.00647,0 0.010808,-0.00397 0.00434,-0.00397 0.0055,-0.012202 z m 0.022372,-0.00866 q 0,-0.017998 0.010014,-0.026662 0.00837,-0.0072 0.020394,-0.0072 0.013372,0 0.021859,0.00879 0.00849,0.00872 0.00849,0.02416 0,0.012507 -0.00379,0.019707 -0.00372,0.00714 -0.01093,0.011104 -0.00714,0.00397 -0.015631,0.00397 -0.013616,0 -0.022042,-0.00872 -0.00837,-0.00872 -0.00837,-0.025136 z m 0.011296,0 q 0,0.012446 0.00543,0.018669 0.00543,0.00616 0.013677,0.00616 0.00818,0 0.013616,-0.00622 0.00543,-0.00622 0.00543,-0.018974 0,-0.012019 -0.0055,-0.018181 -0.00543,-0.00622 -0.013555,-0.00622 -0.00824,0 -0.013677,0.00616 -0.00543,0.00616 -0.00543,0.018608 z m 0.068594,0.032397 v -0.064793 h 0.00983 v 0.00909 q 0.00305,-0.00476 0.00812,-0.00763 0.00507,-0.00293 0.01154,-0.00293 0.0072,0 0.011784,0.00299 0.00464,0.00299 0.00653,0.00836 0.00769,-0.011348 0.020027,-0.011348 0.00965,0 0.014837,0.00537 0.00519,0.00531 0.00519,0.016412 v 0.044477 h -0.01093 v -0.040816 q 0,-0.00659 -0.0011,-0.00946 -0.00104,-0.00293 -0.00385,-0.0047 -0.00281,-0.00177 -0.00659,-0.00177 -0.00684,0 -0.011357,0.00458 -0.00452,0.00451 -0.00452,0.01452 v 0.037644 h -0.010991 v -0.042097 q 0,-0.00732 -0.00269,-0.010982 -0.00269,-0.00366 -0.00879,-0.00366 -0.00464,0 -0.00861,0.00244 -0.00391,0.00244 -0.00568,0.00714 -0.00177,0.0047 -0.00177,0.013544 v 0.033617 z m -1.6917799,-0.1497119 0.0105293,0.00266 q -0.003311,0.012961 -0.0119405,0.019795 -0.008575,0.00678 -0.0210044,0.00678 -0.0128631,0 -0.0209501,-0.00521 -0.008033,-0.00526 -0.0122661,-0.015185 -0.004179,-0.00992 -0.004179,-0.021313 0,-0.012419 0.004722,-0.021639 0.004776,-0.00927 0.0135145,-0.014046 0.008793,-0.00483 0.0193219,-0.00483 0.0119405,0 0.0200817,0.00607 0.008141,0.00607 0.0113434,0.017083 l -0.0103665,0.00244 q -0.002768,-0.00868 -0.008033,-0.012636 -0.005265,-0.00396 -0.0132431,-0.00396 -0.009172,0 -0.0153598,0.00439 -0.006133,0.00439 -0.00863,0.011823 -0.002497,0.00738 -0.002497,0.015239 0,0.010141 0.002931,0.017734 0.002985,0.00754 0.009227,0.01128 0.006242,0.00374 0.0135145,0.00374 0.008847,0 0.0149799,-0.0051 0.006133,-0.0051 0.008304,-0.015131 z m 0.0214255,0.027875 v -0.079504 h 0.0575314 v 0.00938 H 0.2811547 v 0.02435 h 0.0440169 v 0.00933 H 0.2811547 v 0.027062 h 0.0488474 v 0.00938 z M 0.339053,1.7408259 q 0,-0.019795 0.0106379,-0.030966 0.0106379,-0.011226 0.0274631,-0.011226 0.0110178,0 0.0198646,0.00526 0.008847,0.00526 0.0134602,0.014697 0.004668,0.00938 0.004668,0.021313 0,0.012094 -0.004885,0.021638 -0.004885,0.00954 -0.0138401,0.01448 -0.008955,0.00488 -0.0193219,0.00488 -0.0112349,0 -0.0200817,-0.00542 -0.008847,-0.00542 -0.0134059,-0.014805 -0.004559,-0.00938 -0.004559,-0.019849 z m 0.010855,1.625e-4 q 0,0.014371 0.007707,0.022669 0.007761,0.00824 0.0194304,0.00824 0.0118862,0 0.019539,-0.00835 0.007707,-0.00835 0.007707,-0.023699 0,-0.00971 -0.003311,-0.01692 -0.003256,-0.00727 -0.009607,-0.011226 -0.006296,-0.00401 -0.0141657,-0.00401 -0.0111806,0 -0.0192676,0.0077 -0.008033,0.00765 -0.008033,0.025597 z m 0.0679391,0.039915 0.0230668,-0.082216 h 0.007816 l -0.0230126,0.082216 z m 0.037708,-0.00136 V 1.7000394 H 0.509233 v 0.00938 H 0.4660845 v 0.024621 h 0.0373411 v 0.00938 H 0.4660845 v 0.036118 z m 0.0601778,-0.028797 q 0,-0.015998 0.008901,-0.023699 0.007436,-0.0064 0.0181278,-0.0064 0.0118862,0 0.0194304,0.00781 0.007544,0.00776 0.007544,0.021476 0,0.011117 -0.003365,0.017517 -0.003311,0.00635 -0.009715,0.00987 -0.00635,0.00352 -0.0138944,0.00352 -0.0121033,0 -0.0195932,-0.00776 -0.007436,-0.00776 -0.007436,-0.022343 z m 0.0100409,0 q 0,0.011063 0.00483,0.016595 0.00483,0.00548 0.0121576,0.00548 0.007273,0 0.0121033,-0.00553 0.00483,-0.00553 0.00483,-0.016866 0,-0.010684 -0.004885,-0.016161 -0.00483,-0.00553 -0.012049,-0.00553 -0.007327,0 -0.0121576,0.00548 -0.00483,0.00548 -0.00483,0.016541 z m 0.0908974,0.028797 v -0.00846 q -0.00673,0.00976 -0.0182906,0.00976 -0.005102,0 -0.009552,-0.00195 -0.004396,-0.00195 -0.006567,-0.00488 -0.002117,-0.00298 -0.002985,-0.00727 -5.9704e-4,-0.00287 -5.9704e-4,-0.00911 v -0.035684 h 0.009769 v 0.031942 q 0,0.00765 5.9703e-4,0.010304 9.2271e-4,0.00385 0.003908,0.00607 0.002985,0.00217 0.007381,0.00217 0.004396,0 0.00825,-0.00222 0.003854,-0.00228 0.005427,-0.00613 0.001628,-0.0039 0.001628,-0.01128 v -0.030858 h 0.009769 v 0.057594 z m 0.0217512,0 v -0.057594 h 0.008793 v 0.00819 q 0.00635,-0.00949 0.0183449,-0.00949 0.00521,0 0.009552,0.0019 0.004396,0.00184 0.006567,0.00488 0.002171,0.00304 0.003039,0.00721 5.4272e-4,0.00271 5.4272e-4,0.00949 v 0.035413 h -0.009769 v -0.035034 q 0,-0.00597 -0.00114,-0.00889 -0.00114,-0.00298 -0.004071,-0.00472 -0.002877,-0.00179 -0.006784,-0.00179 -0.006242,0 -0.0108007,0.00396 -0.004505,0.00396 -0.004505,0.015022 v 0.031454 z m 0.0969219,0 v -0.00727 q -0.005482,0.00857 -0.0161196,0.00857 -0.006893,0 -0.0127003,-0.0038 -0.005753,-0.0038 -0.008955,-0.010575 -0.003148,-0.00683 -0.003148,-0.015673 0,-0.00862 0.002877,-0.015619 0.002877,-0.00705 0.00863,-0.010792 0.005753,-0.00374 0.0128632,-0.00374 0.00521,0 0.009281,0.00222 0.004071,0.00217 0.006622,0.00569 v -0.028526 h 0.009715 v 0.079504 z M 0.7044619,1.7508004 q 0,0.011063 0.004668,0.016541 0.004668,0.00548 0.0110178,0.00548 0.006404,0 0.010855,-0.00521 0.004505,-0.00526 0.004505,-0.015998 0,-0.011823 -0.004559,-0.017354 -0.004559,-0.00553 -0.0112349,-0.00553 -0.006513,0 -0.0109093,0.00531 -0.004342,0.00531 -0.004342,0.016758 z m 0.0924714,0.010196 0.0100951,0.00125 q -0.002388,0.00884 -0.008847,0.013721 -0.006459,0.00488 -0.0164996,0.00488 -0.0126461,0 -0.0200817,-0.00776 -0.007381,-0.00781 -0.007381,-0.021855 0,-0.014534 0.00749,-0.02256 0.00749,-0.00803 0.0194304,-0.00803 0.0115606,0 0.0188877,0.00786 0.007327,0.00786 0.007327,0.022127 0,8.677e-4 -5.421e-5,0.0026 h -0.0429857 q 5.4272e-4,0.00949 0.005373,0.014534 0.00483,0.00504 0.012049,0.00504 0.005373,0 0.009172,-0.00282 0.003799,-0.00282 0.006025,-0.009 z M 0.7648571,1.7452017 h 0.032185 q -6.5135e-4,-0.00727 -0.003691,-0.010901 -0.004668,-0.00564 -0.0121033,-0.00564 -0.00673,0 -0.0113435,0.0045 -0.004559,0.0045 -0.005048,0.012039 z m 0.0520366,0.034329 v -0.057594 h 0.008793 v 0.00873 q 0.003365,-0.00613 0.006187,-0.00808 0.002877,-0.00195 0.006296,-0.00195 0.004939,0 0.0100409,0.00315 l -0.003365,0.00906 q -0.003582,-0.00212 -0.007164,-0.00212 -0.003202,0 -0.005753,0.00195 -0.002551,0.0019 -0.003636,0.00531 -0.001628,0.00521 -0.001628,0.011389 v 0.030153 z m -0.62903781,-0.1468145 0.0118726,-0.00163 q 4.7485e-4,0.011389 0.004274,0.015592 0.003799,0.0042 0.0105158,0.0042 0.004953,0 0.008548,-0.00224 0.003596,-0.0023 0.004953,-0.00617 0.001357,-0.00393 0.001357,-0.012473 v -0.068468 h 0.0131616 v 0.067722 q 0,0.012473 -0.003053,0.01932 -0.002985,0.00685 -0.009566,0.01044 -0.006513,0.00359 -0.0153327,0.00359 -0.0130938,0 -0.0200817,-0.00752 -0.00692,-0.00752 -0.006649,-0.022371 z m 0.0851166,-0.057147 v -0.014032 h 0.0122119 v 0.014032 z m 0,0.085347 v -0.071993 h 0.0122119 v 0.071993 z m 0.0412218,0 v -0.071993 h 0.0109228 v 0.010101 q 0.003392,-0.00529 0.009023,-0.00847 0.005631,-0.00325 0.0128224,-0.00325 0.008006,0 0.0130938,0.00332 0.005156,0.00332 0.007259,0.00929 0.008548,-0.012609 0.0222527,-0.012609 0.0107193,0 0.016486,0.00597 0.005767,0.0059 0.005767,0.018236 v 0.049419 h -0.012144 V 1.615565 q 0,-0.00732 -0.001221,-0.010507 -0.001153,-0.00325 -0.004274,-0.00522 -0.003121,-0.00197 -0.007327,-0.00197 -0.007598,0 -0.0126189,0.00508 -0.00502,0.00502 -0.00502,0.016134 V 1.660908 H 0.35700429 V 1.614133 q 0,-0.00813 -0.002985,-0.012202 -0.002985,-0.00407 -0.009769,-0.00407 -0.005156,0 -0.009566,0.00271 -0.004342,0.00271 -0.006309,0.00793 -0.001967,0.00522 -0.001967,0.015049 v 0.037352 z m 0.17633918,0 v -0.09938 h 0.0198103 l 0.0235417,0.070366 q 0.003256,0.00983 0.004749,0.01471 0.001696,-0.00542 0.005292,-0.015931 l 0.0238131,-0.069145 h 0.0177072 v 0.09938 h -0.0126867 v -0.083178 l -0.0289014,0.083178 h -0.0118727 l -0.0287657,-0.084602 v 0.084602 z m 0.17202431,-0.00888 q -0.006784,0.00576 -0.0130938,0.00813 -0.006242,0.00237 -0.013433,0.00237 -0.0118726,0 -0.0182499,-0.00576 -0.006377,-0.00583 -0.006377,-0.014846 0,-0.00529 0.002375,-0.00963 0.002442,-0.00441 0.006309,-0.00705 0.003935,-0.00264 0.00882,-0.004 0.003596,-9.489e-4 0.010855,-0.00183 0.0147899,-0.00176 0.0217778,-0.0042 6.777e-5,-0.00251 6.777e-5,-0.00319 0,-0.00746 -0.00346,-0.010507 -0.004681,-0.00414 -0.013908,-0.00414 -0.008616,0 -0.0127546,0.00305 -0.004071,0.00298 -0.006038,0.010643 l -0.0119405,-0.00163 q 0.001628,-0.00766 0.00536,-0.012338 0.003731,-0.00475 0.0107872,-0.00725 0.007056,-0.00258 0.0163503,-0.00258 0.009227,0 0.0149935,0.00217 0.005767,0.00217 0.00848,0.00549 0.002714,0.00325 0.003799,0.00827 6.1059e-4,0.00312 6.1059e-4,0.011253 v 0.01627 q 0,0.017015 7.4632e-4,0.021557 8.1409e-4,0.00447 0.003121,0.00861 h -0.0127546 q -0.0019,-0.0038 -0.002442,-0.00888 z m -0.001018,-0.027251 q -0.006649,0.00271 -0.019946,0.00461 -0.007531,0.00108 -0.0106515,0.00244 -0.003121,0.00136 -0.004817,0.004 -0.001696,0.00258 -0.001696,0.00576 0,0.00488 0.003664,0.00813 0.003731,0.00325 0.010855,0.00325 0.007056,0 0.0125511,-0.00305 0.005495,-0.00312 0.008073,-0.00847 0.001967,-0.00414 0.001967,-0.012202 z m 0.0887124,0.00976 0.0120083,0.00156 q -0.001967,0.012405 -0.0101087,0.019456 -0.008073,0.00698 -0.0198782,0.00698 -0.0147899,0 -0.0238131,-0.00963 -0.008955,-0.00969 -0.008955,-0.027726 0,-0.01166 0.003867,-0.020405 0.003867,-0.00874 0.0117369,-0.013083 0.007938,-0.00441 0.0172323,-0.00441 0.0117369,0 0.0191998,0.00597 0.007463,0.0059 0.009566,0.016812 l -0.0118726,0.00183 q -0.001696,-0.00725 -0.006038,-0.010914 -0.004274,-0.00366 -0.0103801,-0.00366 -0.009227,0 -0.0149934,0.00664 -0.005767,0.00658 -0.005767,0.020879 0,0.014507 0.005563,0.021083 0.005563,0.00658 0.0145185,0.00658 0.007191,0 0.0120083,-0.00441 0.004817,-0.00441 0.006106,-0.013558 z m 0.0329449,0.02637 v -0.09938 h 0.0122119 v 0.056672 l 0.0289014,-0.029285 h 0.0158076 l -0.0275445,0.026709 0.0303261,0.045284 h -0.0150613 l -0.0238131,-0.03681 -0.008616,0.00827 v 0.028539 z m 0.12914717,-0.023184 0.0126189,0.00156 q -0.002985,0.01105 -0.0110585,0.017151 -0.008073,0.0061 -0.0206245,0.0061 -0.0158075,0 -0.0251021,-0.00969 -0.009227,-0.00976 -0.009227,-0.027319 0,-0.018168 0.009362,-0.028201 0.009362,-0.010033 0.0242881,-0.010033 0.0144507,0 0.0236095,0.00983 0.009159,0.00983 0.009159,0.027658 0,0.00108 -7.297e-5,0.00325 h -0.0537321 q 6.7845e-4,0.011863 0.006717,0.018168 0.006038,0.0063 0.0150613,0.0063 0.006717,0 0.0114656,-0.00353 0.004749,-0.00352 0.007531,-0.011253 z m -0.0400956,-0.019727 h 0.0402313 q -8.1419e-4,-0.00908 -0.004613,-0.013626 -0.005835,-0.00705 -0.0151291,-0.00705 -0.008413,0 -0.0141793,0.00563 -0.005699,0.00563 -0.006309,0.015049 z m 0.0779251,0.070637 -0.001357,-0.011456 q 0.004003,0.00108 0.006988,0.00108 0.004071,0 0.006513,-0.00136 0.002442,-0.00136 0.004003,-0.0038 0.001153,-0.00183 0.003731,-0.00908 3.3881e-4,-0.00102 0.001086,-0.00298 l -0.027341,-0.072128 h 0.0131616 l 0.0149935,0.041691 q 0.002917,0.00793 0.005224,0.016676 0.002103,-0.00841 0.00502,-0.016405 l 0.0154005,-0.041962 h 0.0122118 l -0.0274087,0.073213 q -0.00441,0.011863 -0.006852,0.016337 -0.003256,0.00603 -0.007463,0.00881 -0.004206,0.00285 -0.0100408,0.00285 -0.003528,0 -0.00787,-0.00149 z" /></svg>
