<?xml version="1.0" encoding="UTF-8" standalone="no"?>
<!-- Created with Inkscape (http://www.inkscape.org/) -->

<svg
   width="88.899994mm"
   height="50.799999mm"
   viewBox="0 0 3.4999998 2"
   id="SVGRoot"
   version="1.1"
   xml:space="preserve"
   xmlns="http://www.w3.org/2000/svg"
   xmlns:svg="http://www.w3.org/2000/svg"><defs
     id="defs1" /><g
     id="layer1"
     style="display:inline"><g
       style="vector-effect:non-scaling-stroke;fill:none;fill-opacity:1;stroke:#000000;stroke-width:5.12082;stroke-dasharray:none;stroke-opacity:1;-inkscape-stroke:hairline"
       id="g1"
       transform="matrix(0.00203418,0,0,0.00203418,1.2512768,0.38095767)"><path
         d="M 988.18348,301.31348 H 295.91689 c -2.20899,0 -4,-1.79102 -4,-4 V 269.73242 H 191.05653 c -2.20898,0 -4,-1.79101 -4,-4 V 149.29004 L 78.731343,200.84277 v 96.54881 c 0,2.20899 -1.791015,4 -4,4 H -497.84022 c -2.20898,0 -4,-1.79101 -4,-4 0,-2.20898 1.79102,-4 4,-4 H 70.731343 v -95.07517 c 0,-1.54297 0.887696,-2.94922 2.28125,-3.61133 L 187.05653,140.43018 V 4 c 0,-2.2089844 1.79102,-4 4,-4 h 103.10645 c 2.20898,0 4,1.7910156 4,4 v 89.887695 c 0,1.542969 -0.8877,2.948731 -2.28125,3.611817 l -100.8252,47.983398 v 116.24951 h 96.86036 V 116.11768 c 0,-1.45313 0.78808,-2.79248 2.05859,-3.49756 1.27246,-0.70362 2.82422,-0.66553 4.05762,0.10302 l 100.03125,62.37061 c 1.17187,0.73047 1.88379,2.01367 1.88379,3.39453 v 87.24414 c 0,2.20899 -1.79102,4 -4,4 h -96.03125 v 23.58106 h 688.26659 c 2.20899,0 4,1.79101 4,4 0,2.20898 -1.79101,4 -4,4 z M 299.91689,261.73242 h 92.03125 V 180.70801 L 299.91689,123.32568 Z M 195.05653,8 V 136.62305 L 290.16298,91.361328 V 8 Z"
         style="display:inline;vector-effect:non-scaling-stroke;fill:none;fill-opacity:1;stroke:#000000;stroke-width:5.12082;stroke-dasharray:none;stroke-opacity:1;-inkscape-stroke:hairline"
         id="widespan"
         transform="translate(-1.4338292e-5,-92.174719)" /></g></g><path
     style="font-weight:bold;font-size:0.239752px;font-family:Montserrat;-inkscape-font-specification:'Montserrat Bold';letter-spacing:-0.0103228px;stroke-width:0;stroke-linecap:round;stroke-linejoin:round;paint-order:stroke fill markers"
     d="M 0.33073114,1.0422466 V 0.87442018 h 0.0321268 L 0.434304,0.99285767 H 0.4172816 L 0.4875289,0.87442018 h 0.031887 L 0.5198954,1.0422466 H 0.48345316 L 0.48321341,0.9302824 h 0.006713 L 0.4338245,1.0245049 H 0.4163226 L 0.35902188,0.9302824 h 0.008152 v 0.1119642 z m 0.19658316,0 0.0748026,-0.16782642 H 0.6404772 L 0.71551962,1.0422466 H 0.67476178 L 0.61338527,0.89407985 h 0.0153441 L 0.56711313,1.0422466 Z M 0.5647156,1.0062836 0.5750249,0.9767941 h 0.0863107 l 0.0105491,0.0294895 z m 0.23590263,0.03884 q -0.0194199,0 -0.0362026,-0.00623 -0.0165429,-0.00647 -0.0287702,-0.018221 -0.0122274,-0.011748 -0.0191802,-0.0275715 -0.006713,-0.0158236 -0.006713,-0.034764 0,-0.0189404 0.006713,-0.034764 0.006953,-0.0158236 0.0191802,-0.0275715 0.0124671,-0.0117478 0.02901,-0.0179814 0.0165429,-0.006473 0.0362026,-0.006473 0.0218174,0 0.0393193,0.007672 0.0177416,0.007432 0.0297292,0.0220572 l -0.0249342,0.0230162 q -0.008631,-0.00983 -0.0191802,-0.0146249 -0.0105491,-0.005035 -0.0230162,-0.005035 -0.0117478,0 -0.0215777,0.003836 -0.00983,0.003836 -0.0170224,0.0110286 -0.007193,0.007193 -0.0112683,0.0170224 -0.003836,0.00983 -0.003836,0.0218174 0,0.0119876 0.003836,0.0218174 0.004076,0.00983 0.0112683,0.0170224 0.007193,0.007193 0.0170224,0.0110286 0.00983,0.00384 0.0215777,0.00384 0.0124671,0 0.0230162,-0.0048 0.0105491,-0.00503 0.0191802,-0.0151044 l 0.0249342,0.0230162 q -0.0119876,0.014625 -0.0297292,0.022297 -0.0175019,0.00767 -0.0395591,0.00767 z M 0.91832318,1.0038866 0.91616518,0.9590529 0.99648208,0.8744204 H 1.0396375 L 0.96723238,0.9523398 0.94565468,0.975356 Z m -0.034764,0.03836 V 0.87442018 h 0.0386001 V 1.0422466 Z m 0.1148412,0 -0.0596982,-0.0731244 0.0254137,-0.0275715 0.0795977,0.1006959 z m 0.0522524,0 V 0.87442018 h 0.1268288 v 0.0311678 H 1.0892529 V 1.0110788 h 0.091346 v 0.031168 z M 1.0863758,0.972239 V 0.9420302 h 0.080797 V 0.972239 Z M 1.2412421,1.0422466 V 0.9736775 l 0.00887,0.0234957 -0.073844,-0.12275303 h 0.041237 l 0.056581,0.0942225 h -0.023735 l 0.056821,-0.0942225 h 0.038121 l -0.073844,0.12275303 0.00863,-0.0234957 v 0.0685691 z"
     id="text2"
     aria-label="MACKEY" /><path
     d="m 1.4460815,1.0434453 q -0.018701,0 -0.034764,-0.00623 -0.015824,-0.00647 -0.027571,-0.017981 -0.011748,-0.011508 -0.018221,-0.0268522 -0.00647,-0.0155839 -0.00647,-0.0340448 0,-0.0184609 0.00647,-0.033805 0.00647,-0.0155839 0.018221,-0.027092 0.011988,-0.0115081 0.027811,-0.0177417 0.015824,-0.006473 0.034524,-0.006473 0.017742,0 0.033086,0.005754 0.015584,0.005754 0.026612,0.0175019 l -0.00767,0.007912 q -0.010789,-0.0105491 -0.023975,-0.0151044 -0.012947,-0.004795 -0.027571,-0.004795 -0.016063,0 -0.029969,0.005514 -0.013666,0.005514 -0.023975,0.0155839 -0.01007,0.0100696 -0.015824,0.0234957 -0.00551,0.0134261 -0.00551,0.0292497 0,0.0158236 0.00551,0.0292497 0.00575,0.0134261 0.015824,0.0234957 0.010309,0.01007 0.023975,0.015584 0.013906,0.00551 0.029969,0.00551 0.014625,0 0.027571,-0.00456 0.013186,-0.0048 0.023975,-0.015584 l 0.00767,0.00791 q -0.011029,0.011748 -0.026612,0.017742 -0.015344,0.00575 -0.033086,0.00575 z m 0.1507904,0 q -0.018701,0 -0.034764,-0.00623 -0.015824,-0.00647 -0.027811,-0.017981 -0.011748,-0.011748 -0.018221,-0.027092 -0.00647,-0.0155839 -0.00647,-0.033805 0,-0.0182212 0.00647,-0.0335653 0.00647,-0.0155839 0.018221,-0.027092 0.011988,-0.0117479 0.027811,-0.0179814 0.016063,-0.006473 0.034764,-0.006473 0.018701,0 0.034524,0.006473 0.016063,0.006234 0.027811,0.0177417 0.011748,0.0115081 0.018221,0.027092 0.00671,0.0153441 0.00671,0.033805 0,0.0184609 -0.00671,0.0340448 -0.00647,0.0153441 -0.018221,0.0268522 -0.011748,0.011508 -0.027811,0.017981 -0.015824,0.00623 -0.034524,0.00623 z m 0,-0.011268 q 0.016063,0 0.029729,-0.00551 0.013666,-0.00551 0.023735,-0.015584 0.01007,-0.01007 0.015584,-0.0234957 0.00575,-0.0134261 0.00575,-0.0292497 0,-0.0160634 -0.00575,-0.0292497 -0.00551,-0.0134261 -0.015584,-0.0234957 -0.01007,-0.0100696 -0.023735,-0.0155839 -0.013666,-0.005514 -0.029729,-0.005514 -0.016063,0 -0.029729,0.005514 -0.013666,0.005514 -0.023975,0.0155839 -0.010069,0.0100696 -0.015824,0.0234957 -0.00551,0.0131864 -0.00551,0.0292497 0,0.0158236 0.00551,0.0292497 0.00575,0.0134261 0.015824,0.0234957 0.010309,0.01007 0.023975,0.015584 0.013666,0.00551 0.029729,0.00551 z m 0.1193829,0.01007 V 0.87442018 h 0.010309 L 1.8462003,1.0271422 H 1.840686 V 0.87442018 H 1.852913 V 1.0422466 H 1.842843 L 1.7229678,0.88952456 h 0.00551 V 1.0422466 Z m 0.2289494,0.0012 q -0.018701,0 -0.035483,-0.00623 -0.016543,-0.00647 -0.025653,-0.016543 l 0.00551,-0.00911 q 0.00863,0.00887 0.023496,0.015104 0.015104,0.00599 0.031887,0.00599 0.016783,0 0.027332,-0.00432 0.010789,-0.00456 0.015824,-0.011988 0.00527,-0.00743 0.00527,-0.0165429 0,-0.0107888 -0.00575,-0.0172621 Q 1.9818872,0.9760723 1.9725332,0.972236 1.9631832,0.9684 1.9521542,0.965763 1.9411252,0.963126 1.9298572,0.960249 1.9185892,0.957132 1.9092382,0.952337 1.8998882,0.947542 1.8941342,0.9393904 q -0.00551,-0.008391 -0.00551,-0.0215777 0,-0.0119876 0.00623,-0.0220572 0.00623,-0.0100696 0.01942,-0.0163031 0.013186,-0.006234 0.033805,-0.006234 0.013906,0 0.027332,0.004076 0.013666,0.004076 0.023256,0.0110286 l -0.00456,0.00983 Q 1.9835582,0.89096 1.9713312,0.8876039 q -0.011988,-0.003596 -0.023256,-0.003596 -0.016063,0 -0.026612,0.004555 -0.010549,0.004555 -0.015584,0.0122273 -0.00503,0.007432 -0.00503,0.0167826 0,0.0107888 0.00551,0.0172622 0.00575,0.006473 0.015104,0.0103093 0.00935,0.003836 0.020619,0.006473 0.011268,0.002637 0.022297,0.005754 0.011029,0.002877 0.020379,0.007672 0.00935,0.004795 0.015104,0.0129466 0.00575,0.008152 0.00575,0.0210982 0,0.0117479 -0.00647,0.0220572 -0.00647,0.01007 -0.019899,0.016303 -0.013186,0.00599 -0.034045,0.00599 z m 0.1213009,-0.0012 V 0.88544878 h -0.060418 v -0.0110286 h 0.1330623 v 0.0110286 H 2.0787324 V 1.0422466 Z m 0.092531,0 V 0.87442018 h 0.060178 q 0.031647,0 0.049629,0.0148646 0.017981,0.0148646 0.017981,0.0417168 0,0.0175019 -0.00815,0.0302088 -0.00815,0.0124671 -0.023256,0.0194199 -0.015104,0.006713 -0.036203,0.006713 h -0.053465 l 0.00551,-0.005754 v 0.0606573 z m 0.1165195,0 -0.043635,-0.060897 h 0.013906 l 0.043635,0.060897 z m -0.1042921,-0.059938 -0.00551,-0.005754 h 0.053465 q 0.027092,0 0.040998,-0.0119876 0.014145,-0.0119876 0.014145,-0.0335653 0,-0.0218174 -0.014145,-0.0335653 -0.013906,-0.0119876 -0.040998,-0.0119876 h -0.053465 l 0.00551,-0.005994 z M 2.3870266,1.043446 q -0.031168,0 -0.049149,-0.018221 Q 2.3198966,1.007004 2.3198966,0.971041 V 0.8744209 h 0.012227 v 0.0961406 q 0,0.0314075 0.014385,0.0465119 0.014385,0.015104 0.040758,0.015104 0.026133,0 0.040518,-0.015104 0.014385,-0.015104 0.014385,-0.0465119 V 0.8744209 h 0.012227 V 0.971041 q 0,0.0359628 -0.017981,0.054184 -0.017981,0.018221 -0.049389,0.018221 z m 0.1850749,0 q -0.018701,0 -0.034764,-0.00623 -0.015824,-0.00647 -0.027571,-0.017981 -0.011748,-0.011508 -0.018221,-0.0268522 -0.00647,-0.0155839 -0.00647,-0.0340448 0,-0.0184609 0.00647,-0.033805 0.00647,-0.0155839 0.018221,-0.027092 0.011988,-0.0115081 0.027811,-0.0177417 0.015824,-0.006473 0.034524,-0.006473 0.017742,0 0.033086,0.005754 0.015584,0.005754 0.026612,0.0175019 l -0.00767,0.007912 q -0.010789,-0.0105491 -0.023975,-0.0151044 -0.012947,-0.004795 -0.027572,-0.004795 -0.016063,0 -0.029969,0.005514 -0.013666,0.005514 -0.023975,0.0155839 -0.01007,0.0100696 -0.015824,0.0234957 -0.00551,0.0134261 -0.00551,0.0292497 0,0.0158236 0.00551,0.0292497 0.00575,0.0134261 0.015824,0.0234957 0.010309,0.01007 0.023975,0.015584 0.013906,0.00551 0.029969,0.00551 0.014625,0 0.027572,-0.00456 0.013186,-0.0048 0.023975,-0.015584 l 0.00767,0.00791 q -0.011029,0.011748 -0.026612,0.017742 -0.015344,0.00575 -0.033086,0.00575 z m 0.1169853,-0.0012 V 0.88544878 H 2.628669 v -0.0110286 h 0.1330623 v 0.0110286 H 2.7013138 V 1.0422466 Z m 0.092531,0 V 0.87442018 h 0.012227 V 1.0422466 Z m 0.1316104,0.0012 q -0.018701,0 -0.034764,-0.00623 -0.015824,-0.00647 -0.027811,-0.017981 -0.011748,-0.011748 -0.018221,-0.027092 -0.00647,-0.0155839 -0.00647,-0.033805 0,-0.0182212 0.00647,-0.0335653 0.00647,-0.0155839 0.018221,-0.027092 0.011988,-0.0117479 0.027811,-0.0179814 0.016063,-0.006473 0.034764,-0.006473 0.018701,0 0.034524,0.006473 0.016063,0.006234 0.027811,0.0177417 0.011748,0.0115081 0.018221,0.027092 0.00671,0.0153441 0.00671,0.033805 0,0.0184609 -0.00671,0.0340448 -0.00647,0.0153441 -0.018221,0.0268522 -0.011748,0.011508 -0.027811,0.017981 -0.015824,0.00623 -0.034524,0.00623 z m 0,-0.011268 q 0.016063,0 0.029729,-0.00551 0.013666,-0.00551 0.023735,-0.015584 0.01007,-0.01007 0.015584,-0.0234957 0.00575,-0.0134261 0.00575,-0.0292497 0,-0.0160634 -0.00575,-0.0292497 -0.00551,-0.0134261 -0.015584,-0.0234957 -0.01007,-0.0100696 -0.023735,-0.0155839 -0.013666,-0.005514 -0.029729,-0.005514 -0.016063,0 -0.029729,0.005514 -0.013666,0.005514 -0.023975,0.0155839 -0.01007,0.0100696 -0.015824,0.0234957 -0.00551,0.0131864 -0.00551,0.0292497 0,0.0158236 0.00551,0.0292497 0.00575,0.0134261 0.015824,0.0234957 0.010309,0.01007 0.023975,0.015584 0.013666,0.00551 0.029729,0.00551 z m 0.1193829,0.01007 V 0.87442018 h 0.010309 l 0.119636,0.15272202 h -0.00551 V 0.87442018 h 0.012227 V 1.0422466 h -0.01007 L 3.0393235,0.88952456 h 0.00551 V 1.0422466 Z"
     id="text3"
     style="font-weight:300;font-size:0.239752px;line-height:0;font-family:Montserrat;-inkscape-font-specification:'Montserrat Light';letter-spacing:-0.0103228px;stroke-width:0;stroke-linecap:round;stroke-linejoin:round;paint-order:stroke fill markers"
     aria-label="CONSTRUCTION" /><g
     id="layer3"><g
       id="text17"
       style="font-size:10.6667px;line-height:1;font-family:Sans;-inkscape-font-specification:Sans;letter-spacing:-1px;word-spacing:0px;white-space:pre;stroke-width:0;stroke-linecap:round;stroke-linejoin:round;paint-order:stroke fill markers"
       transform="matrix(0.01042495,0,0,0.01041667,-0.16929223,0.07708)"
       aria-label="Jim Mackey&#10;CEO/Founder&#10;jim@jmackeyconstruction.com"><path
         style="font-size:13.328px;font-family:Arial;-inkscape-font-specification:Arial"
         d="m 33.440602,145.34099 1.138867,-0.15619 q 0.04555,1.09331 0.409992,1.4968 0.364437,0.40348 1.008711,0.40348 0.47507,0 0.819984,-0.21475 0.344914,-0.22127 0.475071,-0.59222 0.130156,-0.37745 0.130156,-1.19743 v -6.57289 h 1.262515 v 6.5013 q 0,1.19744 -0.292851,1.85473 -0.286344,0.65729 -0.917602,1.0022 -0.62475,0.34491 -1.470765,0.34491 -1.256008,0 -1.926313,-0.72236 -0.663797,-0.72237 -0.637765,-2.14758 z m 6.165101,-5.48609 v -1.34711 h 1.171406 v 1.34711 z m 0,8.19334 v -6.9113 h 1.171406 v 6.9113 z m 1.954547,0 v -6.9113 h 1.047758 v 0.96967 q 0.325391,-0.50761 0.865539,-0.81348 0.540148,-0.31238 1.229977,-0.31238 0.767921,0 1.256007,0.31889 0.494594,0.31888 0.696336,0.89157 0.819985,-1.21046 2.134563,-1.21046 1.028234,0 1.581398,0.57269 0.553164,0.56618 0.553164,1.7506 v 4.7442 h -1.164898 v -4.35373 q 0,-0.70284 -0.117141,-1.00871 -0.110632,-0.31237 -0.409992,-0.5011 -0.299359,-0.18873 -0.702844,-0.18873 -0.728875,0 -1.210453,0.48809 -0.481578,0.48158 -0.481578,1.54886 v 4.01532 H 45.66668 v -4.49039 q 0,-0.78094 -0.286344,-1.17141 -0.286344,-0.39047 -0.937125,-0.39047 -0.494594,0 -0.917601,0.26032 -0.4165,0.26031 -0.605227,0.76141 -0.188727,0.5011 -0.188727,1.44473 v 3.58581 z m 12.915906,0 v -9.54045 h 1.900282 l 2.258211,6.75511 q 0.312375,0.94363 0.455547,1.41219 0.162695,-0.52062 0.507609,-1.52934 l 2.284242,-6.63796 h 1.698539 v 9.54045 h -1.216961 v -7.98509 l -2.772328,7.98509 H 58.45243 l -2.759313,-8.12175 v 8.12175 z m 14.501611,-0.85252 q -0.650781,0.55316 -1.256008,0.78093 -0.598719,0.22778 -1.288547,0.22778 -1.138867,0 -1.750601,-0.55317 -0.611735,-0.55967 -0.611735,-1.42521 0,-0.50761 0.227774,-0.92411 0.234281,-0.42301 0.605226,-0.67681 0.377454,-0.2538 0.846016,-0.38396 0.344914,-0.0911 1.04125,-0.17571 1.418703,-0.16921 2.089008,-0.40349 0.0065,-0.24079 0.0065,-0.30586 0,-0.71586 -0.331899,-1.00871 -0.449039,-0.39698 -1.334101,-0.39698 -0.826493,0 -1.223469,0.29285 -0.390469,0.28634 -0.579195,1.02173 l -1.145375,-0.15619 q 0.156187,-0.73538 0.514117,-1.18442 0.357929,-0.45555 1.034742,-0.69634 0.676812,-0.2473 1.568383,-0.2473 0.885062,0 1.438226,0.20825 0.553164,0.20825 0.813477,0.52714 0.260312,0.31237 0.364437,0.79395 0.05857,0.29936 0.05857,1.0803 v 1.56187 q 0,1.63346 0.07159,2.06949 0.07809,0.42951 0.299359,0.82649 h -1.223469 q -0.182218,-0.36444 -0.234281,-0.85252 z m -0.09762,-2.61614 q -0.637766,0.26031 -1.913297,0.44253 -0.722367,0.10412 -1.021727,0.23428 -0.299359,0.13015 -0.462054,0.38396 -0.162696,0.2473 -0.162696,0.55316 0,0.46857 0.351422,0.78094 0.35793,0.31238 1.04125,0.31238 0.676813,0 1.203946,-0.29286 0.527132,-0.29936 0.774429,-0.81347 0.188727,-0.39698 0.188727,-1.17141 z m 6.510013,0.93712 1.151882,0.14968 q -0.188726,1.19093 -0.969664,1.86774 -0.774429,0.67031 -1.906789,0.67031 -1.418703,0 -2.284242,-0.92411 -0.859031,-0.93062 -0.859031,-2.6617 0,-1.11934 0.370945,-1.95885 0.370945,-0.83951 1.125852,-1.25601 0.761414,-0.42301 1.652984,-0.42301 1.125852,0 1.841711,0.57269 0.715859,0.56618 0.917602,1.61394 l -1.138868,0.17571 q -0.162695,-0.69634 -0.579195,-1.04776 -0.409992,-0.35142 -0.995695,-0.35142 -0.885063,0 -1.438227,0.63777 -0.553164,0.63125 -0.553164,2.0044 0,1.39267 0.533641,2.02393 0.53364,0.63126 1.392672,0.63126 0.689828,0 1.151882,-0.42301 0.462055,-0.42301 0.585704,-1.30156 z m 1.160595,2.53154 v -9.54045 h 1.171406 v 5.44053 l 2.772328,-2.81138 h 1.51632 l -2.642171,2.56408 2.908992,4.34722 h -1.444735 l -2.284242,-3.53374 -0.826492,0.79395 v 2.73979 z m 10.388673,-2.22567 1.210453,0.14968 q -0.286344,1.06077 -1.060773,1.64647 -0.77443,0.58571 -1.978375,0.58571 -1.516321,0 -2.407891,-0.93062 -0.885062,-0.93713 -0.885062,-2.62265 0,-1.74409 0.898078,-2.70725 0.898078,-0.96316 2.329797,-0.96316 1.386164,0 2.264718,0.94364 0.878555,0.94363 0.878555,2.65519 0,0.10412 -0.0065,0.31237 h -5.154187 q 0.06508,1.13887 0.644273,1.74409 0.579195,0.60523 1.444735,0.60523 0.644273,0 1.09982,-0.33841 0.455547,-0.3384 0.722367,-1.08029 z m -3.846117,-1.89378 h 3.859133 q -0.07809,-0.87204 -0.442532,-1.30807 -0.559671,-0.67681 -1.451242,-0.67681 -0.806969,0 -1.360133,0.54015 -0.546656,0.54015 -0.605226,1.44473 z m 5.475274,6.78114 -0.130156,-1.09982 q 0.383961,0.10413 0.670305,0.10413 0.390468,0 0.62475,-0.13016 0.234281,-0.13015 0.383961,-0.36443 0.110632,-0.17572 0.357929,-0.87205 0.03254,-0.0976 0.104125,-0.28635 l -2.622648,-6.92431 h 1.262515 l 1.438227,4.00231 q 0.279836,0.76141 0.501102,1.60092 0.201742,-0.80697 0.481578,-1.57489 l 1.477273,-4.02834 h 1.171406 l -2.629156,7.02844 q -0.423008,1.13887 -0.657289,1.56838 -0.312375,0.5792 -0.715859,0.84602 -0.403485,0.27333 -0.963157,0.27333 -0.338406,0 -0.754906,-0.14318 z"
         id="path44" /><path
         style="font-size:10.6624px;font-family:Arial;-inkscape-font-specification:Arial;letter-spacing:-0.219913px"
         d="m 39.324966,156.75919 1.010012,0.25511 q -0.317581,1.24429 -1.145375,1.90028 -0.822587,0.65078 -2.014819,0.65078 -1.233881,0 -2.009612,-0.4998 -0.770525,-0.50501 -1.176613,-1.45775 -0.400881,-0.95274 -0.400881,-2.04606 0,-1.19223 0.452944,-2.07729 0.45815,-0.89027 1.296356,-1.34842 0.843413,-0.46336 1.853425,-0.46336 1.145375,0 1.926313,0.5831 0.780937,0.5831 1.088106,1.63997 l -0.994394,0.23429 q -0.265518,-0.83301 -0.770525,-1.21306 -0.505006,-0.38006 -1.270325,-0.38006 -0.879856,0 -1.473369,0.42171 -0.588306,0.4217 -0.827793,1.13496 -0.239488,0.70805 -0.239488,1.46296 0,0.97357 0.281138,1.70244 0.286343,0.72367 0.885062,1.0829 0.598719,0.35923 1.296356,0.35923 0.848619,0 1.436926,-0.48938 0.588306,-0.48939 0.796556,-1.45255 z m 2.055218,2.67601 v -7.63236 h 5.518625 v 0.90068 h -4.508612 v 2.33761 h 4.222269 v 0.89547 h -4.222269 v 2.59792 h 4.685625 v 0.90068 z m 6.563831,-3.71726 q 0,-1.90028 1.020425,-2.97277 1.020425,-1.07769 2.634363,-1.07769 1.056869,0 1.905487,0.505 0.848619,0.50501 1.29115,1.4109 0.447738,0.90068 0.447738,2.04606 0,1.16099 -0.468563,2.07729 -0.468562,0.9163 -1.327593,1.39007 -0.859032,0.46856 -1.853425,0.46856 -1.077694,0 -1.926313,-0.52062 -0.848619,-0.52063 -1.285944,-1.42131 -0.437325,-0.90068 -0.437325,-1.90549 z m 1.04125,0.0156 q 0,1.37966 0.739288,2.17621 0.744494,0.79135 1.863837,0.79135 1.140169,0 1.87425,-0.80176 0.739288,-0.80176 0.739288,-2.27513 0,-0.93192 -0.317581,-1.62435 -0.312375,-0.69764 -0.921507,-1.0777 -0.603925,-0.38526 -1.358831,-0.38526 -1.072487,0 -1.848219,0.73929 -0.770525,0.73408 -0.770525,2.45735 z m 6.516974,3.8318 2.212657,-7.89268 h 0.7497 l -2.207451,7.89268 z m 3.617093,-0.13016 v -7.63236 h 5.148982 v 0.90068 h -4.138969 v 2.36364 h 3.5819 v 0.90068 h -3.5819 v 3.46736 z m 5.772481,-2.76451 q 0,-1.53585 0.853825,-2.27514 0.713257,-0.61433 1.738888,-0.61433 1.140169,0 1.863838,0.7497 0.723668,0.74449 0.723668,2.06167 0,1.06728 -0.322787,1.68162 -0.317581,0.60913 -0.931919,0.94754 -0.609131,0.3384 -1.3328,0.3384 -1.160994,0 -1.879456,-0.74449 -0.713257,-0.74449 -0.713257,-2.14497 z m 0.963157,0 q 0,1.06207 0.463356,1.59311 0.463356,0.52583 1.1662,0.52583 0.697637,0 1.160994,-0.53104 0.463356,-0.53104 0.463356,-1.61914 0,-1.02563 -0.468563,-1.55146 -0.463356,-0.53104 -1.155787,-0.53104 -0.702844,0 -1.1662,0.52583 -0.463356,0.52583 -0.463356,1.58791 z m 8.719219,2.76451 v -0.81217 q -0.645575,0.93712 -1.754506,0.93712 -0.489388,0 -0.9163,-0.18742 -0.421707,-0.18743 -0.629957,-0.46856 -0.203043,-0.28635 -0.286343,-0.69764 -0.05727,-0.27593 -0.05727,-0.87465 v -3.42571 h 0.937125 v 3.06648 q 0,0.73408 0.05727,0.98919 0.08851,0.36964 0.37485,0.5831 0.286343,0.20825 0.70805,0.20825 0.421706,0 0.79135,-0.21346 0.369643,-0.21866 0.520625,-0.58831 0.156187,-0.37485 0.156187,-1.0829 v -2.96235 h 0.937125 v 5.52903 z m 2.086457,0 v -5.52903 h 0.843412 v 0.78614 q 0.609131,-0.91109 1.759713,-0.91109 0.4998,0 0.9163,0.18222 0.421706,0.17701 0.629956,0.46856 0.20825,0.29155 0.29155,0.69243 0.05206,0.26031 0.05206,0.91109 v 3.39968 h -0.937125 v -3.36323 q 0,-0.57269 -0.109331,-0.85383 -0.109331,-0.28634 -0.390469,-0.45294 -0.275931,-0.17181 -0.650781,-0.17181 -0.598719,0 -1.036044,0.38006 -0.432118,0.38005 -0.432118,1.44213 v 3.01962 z m 9.297109,0 v -0.69763 q -0.525831,0.82258 -1.546256,0.82258 -0.661194,0 -1.218263,-0.36443 -0.551863,-0.36444 -0.859031,-1.01522 -0.301963,-0.65599 -0.301963,-1.50461 0,-0.82779 0.275931,-1.4994 0.275932,-0.67681 0.827794,-1.03604 0.551863,-0.35923 1.233882,-0.35923 0.4998,0 0.890268,0.21345 0.390469,0.20825 0.635163,0.54666 v -2.73849 h 0.931919 v 7.63236 z m -2.962357,-2.75931 q 0,1.06208 0.447738,1.58791 0.447738,0.52583 1.056869,0.52583 0.614337,0 1.04125,-0.4998 0.432119,-0.50501 0.432119,-1.53584 0,-1.13497 -0.437325,-1.666 -0.437325,-0.53104 -1.077694,-0.53104 -0.62475,0 -1.046456,0.51021 -0.416501,0.51021 -0.416501,1.60873 z m 8.870201,0.97878 0.968363,0.11974 q -0.229075,0.84862 -0.848619,1.31718 -0.619544,0.46856 -1.5827,0.46856 -1.213057,0 -1.926313,-0.74449 -0.70805,-0.7497 -0.70805,-2.09812 0,-1.39527 0.718463,-2.1658 0.718462,-0.77052 1.863837,-0.77052 1.108932,0 1.811775,0.7549 0.702844,0.75491 0.702844,2.12415 0,0.0833 -0.0052,0.2499 h -4.12335 q 0.05206,0.9111 0.515418,1.39528 0.463357,0.48418 1.155788,0.48418 0.515419,0 0.879856,-0.27073 0.364438,-0.27072 0.577894,-0.86423 z m -3.076894,-1.51502 h 3.087307 q -0.06248,-0.69764 -0.354025,-1.04646 -0.447738,-0.54145 -1.160994,-0.54145 -0.645575,0 -1.088107,0.43212 -0.437325,0.43212 -0.484181,1.15579 z m 4.991544,3.29555 v -5.52903 h 0.843413 v 0.8382 q 0.322787,-0.5883 0.593512,-0.77573 0.275932,-0.18742 0.603925,-0.18742 0.473769,0 0.963157,0.30196 l -0.322788,0.86944 q -0.343612,-0.20304 -0.687225,-0.20304 -0.307169,0 -0.551862,0.18742 -0.244694,0.18222 -0.348819,0.51022 -0.156188,0.4998 -0.156188,1.09331 v 2.89467 z"
         id="path45" /><path
         style="font-size:11.9952px;font-family:Arial;-inkscape-font-specification:Arial;letter-spacing:-0.649742px"
         d="m 33.841483,163.76924 v -1.22412 h 1.054265 v 1.22412 z m -1.335403,9.77539 0.199139,-0.89613 q 0.316279,0.082 0.497847,0.082 0.322137,0 0.480277,-0.21671 0.15814,-0.21085 0.15814,-1.06598 v -6.53645 h 1.054265 v 6.55988 q 0,1.14798 -0.298708,1.59897 -0.380707,0.5857 -1.265119,0.5857 -0.427563,0 -0.825841,-0.11128 z m 3.362324,-9.7871 v -1.21241 h 1.054266 v 1.21241 z m 0,7.374 v -6.22017 h 1.054266 v 6.22017 z m 2.00935,0 v -6.22017 h 0.942982 v 0.8727 q 0.292852,-0.45685 0.778986,-0.73213 0.486133,-0.28113 1.106979,-0.28113 0.691129,0 1.130407,0.28699 0.445134,0.287 0.626702,0.80241 0.737986,-1.0894 1.921106,-1.0894 0.925411,0 1.423259,0.51541 0.497848,0.50957 0.497848,1.57555 v 4.26977 h -1.048409 v -3.91835 q 0,-0.63256 -0.105427,-0.90784 -0.09957,-0.28114 -0.368993,-0.45099 -0.269423,-0.16986 -0.632559,-0.16986 -0.655988,0 -1.089408,0.43928 -0.43342,0.43342 -0.43342,1.39397 v 3.61379 h -1.054266 v -4.04135 q 0,-0.70284 -0.257709,-1.05427 -0.25771,-0.35142 -0.843413,-0.35142 -0.445134,0 -0.825841,0.23428 -0.37485,0.23429 -0.544704,0.68528 -0.169854,0.45099 -0.169854,1.30026 v 3.22722 z m 15.351667,-0.95469 q -0.380707,0.43927 -0.855126,0.7087 -0.468563,0.26356 -0.942982,0.26356 -0.521276,0 -1.013267,-0.30456 -0.49199,-0.30457 -0.802413,-0.93713 -0.304566,-0.63256 -0.304566,-1.38811 0,-0.93127 0.47442,-1.86254 0.480277,-0.93712 1.188977,-1.40569 0.708701,-0.46856 1.376403,-0.46856 0.509561,0 0.972267,0.26942 0.462705,0.26357 0.796556,0.80827 l 0.199139,-0.90784 h 1.048409 l -0.843413,3.93007 q -0.175711,0.81999 -0.175711,0.90784 0,0.15814 0.117141,0.27528 0.122998,0.11129 0.292852,0.11129 0.310422,0 0.814127,-0.35728 0.667702,-0.46857 1.054266,-1.25341 0.392421,-0.7907 0.392421,-1.62825 0,-0.97813 -0.503705,-1.8274 -0.497848,-0.84927 -1.493543,-1.35883 -0.989838,-0.50956 -2.19053,-0.50956 -1.370545,0 -2.506809,0.64427 -1.130407,0.63842 -1.757109,1.83911 -0.620846,1.19484 -0.620846,2.56538 0,1.43497 0.620846,2.47167 0.626702,1.03669 1.803965,1.52868 1.18312,0.49785 2.618093,0.49785 1.534542,0 2.571237,-0.51542 1.036694,-0.51542 1.552113,-1.2534 h 1.060123 q -0.298709,0.61499 -1.024981,1.2534 -0.726271,0.63842 -1.727824,1.00741 -1.001552,0.37485 -2.413097,0.37485 -1.300261,0 -2.401383,-0.33385 -1.095264,-0.33385 -1.868393,-1.00741 -0.773128,-0.6677 -1.165549,-1.5404 -0.49199,-1.10698 -0.49199,-2.38967 0,-1.42911 0.585703,-2.72352 0.714558,-1.58725 2.026533,-2.43066 1.317832,-0.84342 3.192082,-0.84342 1.452543,0 2.606379,0.59742 1.159692,0.59156 1.827393,1.76882 0.568132,1.01327 0.568132,2.20225 0,1.69854 -1.194834,3.01637 -1.06598,1.18312 -2.331099,1.18312 -0.404135,0 -0.655987,-0.123 -0.245995,-0.123 -0.363136,-0.35142 -0.07614,-0.14643 -0.111284,-0.5037 z m -2.834803,-1.58726 q 0,0.80241 0.380707,1.24755 0.380707,0.44513 0.872698,0.44513 0.327994,0 0.69113,-0.19328 0.363136,-0.19914 0.691129,-0.5857 0.333851,-0.38657 0.544704,-0.97813 0.210853,-0.59741 0.210853,-1.19483 0,-0.79656 -0.398278,-1.23583 -0.392421,-0.43928 -0.960553,-0.43928 -0.37485,0 -0.708701,0.19328 -0.327993,0.18742 -0.638416,0.60913 -0.310423,0.42171 -0.497848,1.02498 -0.187425,0.60328 -0.187425,1.10698 z m 8.346658,-4.82034 v -1.22412 h 1.054266 v 1.22412 z m -1.335403,9.77539 0.199139,-0.89613 q 0.31628,0.082 0.497848,0.082 0.322137,0 0.480277,-0.21671 0.158139,-0.21085 0.158139,-1.06598 v -6.53645 h 1.054266 v 6.55988 q 0,1.14798 -0.298709,1.59897 -0.380707,0.5857 -1.265118,0.5857 -0.427564,0 -0.825842,-0.11128 z m 3.356468,-2.4131 v -6.22017 h 0.942982 v 0.8727 q 0.292851,-0.45685 0.778985,-0.73213 0.486134,-0.28113 1.106979,-0.28113 0.69113,0 1.130407,0.28699 0.445134,0.287 0.626702,0.80241 0.737986,-1.0894 1.921107,-1.0894 0.925411,0 1.423258,0.51541 0.497848,0.50957 0.497848,1.57555 v 4.26977 H 68.1422 v -3.91835 q 0,-0.63256 -0.105426,-0.90784 -0.09957,-0.28114 -0.368993,-0.45099 -0.269424,-0.16986 -0.63256,-0.16986 -0.655987,0 -1.089408,0.43928 -0.43342,0.43342 -0.43342,1.39397 v 3.61379 h -1.054265 v -4.04135 q 0,-0.70284 -0.25771,-1.05427 -0.257709,-0.35142 -0.843412,-0.35142 -0.445135,0 -0.825842,0.23428 -0.37485,0.23429 -0.544704,0.68528 -0.169854,0.45099 -0.169854,1.30026 v 3.22722 z m 13.401276,-0.76727 q -0.585703,0.49785 -1.130407,0.70284 -0.538847,0.205 -1.159692,0.205 -1.02498,0 -1.575541,-0.49785 -0.550561,-0.5037 -0.550561,-1.28269 0,-0.45685 0.204996,-0.8317 0.210853,-0.3807 0.544704,-0.60913 0.339708,-0.22842 0.761414,-0.34556 0.310422,-0.082 0.937125,-0.15814 1.276833,-0.15228 1.880107,-0.36314 0.0059,-0.21671 0.0059,-0.27528 0,-0.64427 -0.298709,-0.90784 -0.404135,-0.35728 -1.200691,-0.35728 -0.743843,0 -1.101122,0.26357 -0.351422,0.25771 -0.521276,0.91955 l -1.030837,-0.14056 q 0.140568,-0.66185 0.462705,-1.06598 0.322137,-0.41 0.931268,-0.62671 0.609131,-0.22256 1.411545,-0.22256 0.796556,0 1.294404,0.18742 0.497847,0.18743 0.732128,0.47442 0.234282,0.28114 0.327994,0.71456 0.05271,0.26942 0.05271,0.97227 v 1.40568 q 0,1.47012 0.06443,1.86254 0.07028,0.38656 0.269423,0.74384 H 74.37447 q -0.163996,-0.32799 -0.210853,-0.76727 z m -0.08786,-2.35453 q -0.573989,0.23429 -1.721967,0.39828 -0.650131,0.0937 -0.919554,0.21086 -0.269424,0.11714 -0.41585,0.34556 -0.146425,0.22257 -0.146425,0.49785 0,0.4217 0.316279,0.70284 0.322137,0.28114 0.937125,0.28114 0.609132,0 1.083551,-0.26357 0.47442,-0.26942 0.696987,-0.73213 0.169854,-0.35727 0.169854,-1.05426 z m 6.109271,0.84342 1.036695,0.13471 q -0.169854,1.07184 -0.872698,1.68097 -0.696987,0.60327 -1.71611,0.60327 -1.276833,0 -2.055818,-0.8317 -0.773128,-0.83755 -0.773128,-2.39552 0,-1.00741 0.33385,-1.76297 0.333851,-0.75556 1.013267,-1.13041 0.685272,-0.3807 1.487686,-0.3807 1.013266,0 1.65754,0.51541 0.644273,0.50957 0.825841,1.45255 l -1.02498,0.15814 q -0.146426,-0.6267 -0.521276,-0.94298 -0.368993,-0.31628 -0.896126,-0.31628 -0.796556,0 -1.294404,0.57399 -0.497848,0.56813 -0.497848,1.80396 0,1.25341 0.480277,1.82154 0.480277,0.56813 1.253405,0.56813 0.620845,0 1.036694,-0.38071 0.415849,-0.3807 0.527133,-1.1714 z m 1.294793,2.27838 v -8.58641 h 1.054265 v 4.89648 l 2.495096,-2.53024 h 1.364688 l -2.377955,2.30768 2.618093,3.91249 h -1.300261 l -2.055818,-3.18037 -0.743843,0.71456 v 2.46581 z m 9.600063,-2.0031 1.089408,0.13471 q -0.25771,0.9547 -0.954696,1.48183 -0.696987,0.52713 -1.780538,0.52713 -1.364688,0 -2.167101,-0.83755 -0.796557,-0.84342 -0.796557,-2.36039 0,-1.56968 0.808271,-2.43652 0.80827,-0.86684 2.096817,-0.86684 1.247547,0 2.038247,0.84927 0.790699,0.84927 0.790699,2.38966 0,0.0937 -0.0059,0.28114 h -4.638769 q 0.05857,1.02498 0.579846,1.56969 0.521276,0.5447 1.300261,0.5447 0.579846,0 0.989838,-0.30457 0.409993,-0.30456 0.650131,-0.97226 z m -3.461506,-1.7044 h 3.47322 q -0.07028,-0.78484 -0.398278,-1.17726 -0.503705,-0.60913 -1.306118,-0.60913 -0.726272,0 -1.22412,0.48613 -0.49199,0.48613 -0.544704,1.30026 z m 5.178004,6.10303 -0.117141,-0.98984 q 0.345565,0.0937 0.603274,0.0937 0.351422,0 0.562275,-0.11714 0.210853,-0.11714 0.345565,-0.32799 0.09957,-0.15814 0.322137,-0.78484 0.02929,-0.0879 0.09371,-0.25771 l -2.360383,-6.23189 h 1.136264 l 1.294404,3.60208 q 0.251852,0.68527 0.450991,1.44083 0.181568,-0.72627 0.43342,-1.4174 l 1.329547,-3.62551 h 1.054265 l -2.366241,6.3256 q -0.380707,1.02498 -0.59156,1.41154 -0.281137,0.52128 -0.644273,0.76142 -0.363136,0.24599 -0.866841,0.24599 -0.304565,0 -0.679415,-0.12885 z m 9.453638,-4.67391 1.03669,0.13471 q -0.16985,1.07184 -0.8727,1.68097 -0.69698,0.60327 -1.71611,0.60327 -1.276823,0 -2.055808,-0.8317 -0.773129,-0.83755 -0.773129,-2.39552 0,-1.00741 0.333851,-1.76297 0.333851,-0.75556 1.013267,-1.13041 0.685272,-0.3807 1.487679,-0.3807 1.01327,0 1.65754,0.51541 0.64427,0.50957 0.82584,1.45255 l -1.02498,0.15814 q -0.14642,-0.6267 -0.52127,-0.94298 -0.369,-0.31628 -0.89613,-0.31628 -0.79655,0 -1.294398,0.57399 -0.497848,0.56813 -0.497848,1.80396 0,1.25341 0.480277,1.82154 0.480276,0.56813 1.253399,0.56813 0.62085,0 1.0367,-0.38071 0.41584,-0.3807 0.52713,-1.1714 z m 0.89652,-0.8317 q 0,-1.72783 0.96054,-2.55952 0.80242,-0.69113 1.95625,-0.69113 1.28269,0 2.09682,0.84341 0.81412,0.83755 0.81412,2.31938 0,1.20069 -0.36313,1.89182 -0.35728,0.68528 -1.04841,1.06598 -0.68527,0.38071 -1.4994,0.38071 -1.30611,0 -2.11439,-0.83755 -0.8024,-0.83756 -0.8024,-2.4131 z m 1.08355,0 q 0,1.19483 0.52128,1.79225 0.52127,0.59156 1.31197,0.59156 0.78484,0 1.30612,-0.59742 0.52127,-0.59741 0.52127,-1.82153 0,-1.15384 -0.52713,-1.7454 -0.52127,-0.59742 -1.30026,-0.59742 -0.7907,0 -1.31197,0.59156 -0.52128,0.59156 -0.52128,1.7864 z m 5.33029,3.11008 v -6.22017 h 0.94883 v 0.88442 q 0.68528,-1.02498 1.97968,-1.02498 0.56228,0 1.03084,0.20499 0.47442,0.19914 0.7087,0.52713 0.23428,0.328 0.32799,0.77899 0.0586,0.29285 0.0586,1.02498 v 3.82464 h -1.05426 v -3.78364 q 0,-0.64427 -0.12301,-0.96055 -0.123,-0.32214 -0.43927,-0.50957 -0.31042,-0.19328 -0.73213,-0.19328 -0.67356,0 -1.16555,0.42757 -0.48613,0.42756 -0.48613,1.62239 v 3.39708 z m 5.5997,-1.85668 1.04256,-0.16399 q 0.0879,0.6267 0.48613,0.96055 0.40414,0.33385 1.12455,0.33385 0.72627,0 1.07769,-0.29285 0.35143,-0.29871 0.35143,-0.69699 0,-0.35728 -0.31043,-0.56227 -0.21672,-0.14057 -1.07769,-0.35728 -1.15969,-0.29285 -1.61069,-0.50371 -0.44513,-0.21671 -0.67941,-0.59156 -0.22842,-0.3807 -0.22842,-0.83755 0,-0.41585 0.18742,-0.76727 0.19328,-0.35728 0.52128,-0.59156 0.24599,-0.18157 0.6677,-0.30457 0.42756,-0.12885 0.9137,-0.12885 0.73212,0 1.28268,0.21085 0.55642,0.21085 0.81999,0.57399 0.26357,0.35728 0.36314,0.96055 l -1.03084,0.14057 q -0.0703,-0.48028 -0.40999,-0.7497 -0.33386,-0.26942 -0.94884,-0.26942 -0.72628,0 -1.0367,0.24013 -0.31042,0.24014 -0.31042,0.56228 0,0.205 0.12885,0.36899 0.12886,0.16986 0.40414,0.28114 0.15814,0.0586 0.93127,0.26942 1.11869,0.29871 1.55797,0.49199 0.44513,0.18743 0.69698,0.55057 0.25186,0.36313 0.25186,0.90198 0,0.52713 -0.31043,0.99569 -0.30456,0.46271 -0.88441,0.72042 -0.57984,0.25185 -1.31197,0.25185 -1.21241,0 -1.85082,-0.5037 -0.63256,-0.50371 -0.80828,-1.49355 z m 8.07139,0.9137 0.15228,0.93127 q -0.44513,0.0937 -0.79656,0.0937 -0.57399,0 -0.89027,-0.18157 -0.31629,-0.18157 -0.44514,-0.47442 -0.12885,-0.29871 -0.12885,-1.24754 v -3.57865 h -0.77312 v -0.81999 h 0.77312 v -1.54039 l 1.04841,-0.63256 v 2.17295 h 1.06013 v 0.81999 h -1.06013 v 3.63722 q 0,0.45099 0.0527,0.57984 0.0586,0.12886 0.18156,0.205 0.12885,0.0761 0.36313,0.0761 0.17571,0 0.46271,-0.041 z m 0.36938,0.94298 v -6.22017 h 0.94884 v 0.94299 q 0.36313,-0.66185 0.6677,-0.8727 0.31042,-0.21085 0.67941,-0.21085 0.53299,0 1.08355,0.3397 l -0.36313,0.97813 q -0.38657,-0.22843 -0.77313,-0.22843 -0.34557,0 -0.62085,0.21086 -0.27528,0.20499 -0.39242,0.57399 -0.17571,0.56227 -0.17571,1.22997 v 3.25651 z m 7.43294,0 v -0.91369 q -0.72627,1.05426 -1.97382,1.05426 -0.55055,0 -1.03083,-0.21085 -0.47441,-0.21086 -0.70869,-0.52714 -0.22843,-0.32213 -0.32214,-0.78484 -0.0644,-0.31042 -0.0644,-0.98398 v -3.85393 h 1.05427 v 3.4498 q 0,0.82584 0.0644,1.11283 0.0996,0.41585 0.42171,0.65599 0.32214,0.23428 0.79656,0.23428 0.47442,0 0.89027,-0.24014 0.41585,-0.24599 0.5857,-0.66184 0.17571,-0.42171 0.17571,-1.21826 v -3.33266 h 1.05427 v 6.22017 z m 6.00386,-2.27838 1.03669,0.13471 q -0.16985,1.07184 -0.8727,1.68097 -0.69698,0.60327 -1.71611,0.60327 -1.27683,0 -2.05582,-0.8317 -0.77312,-0.83755 -0.77312,-2.39552 0,-1.00741 0.33385,-1.76297 0.33385,-0.75556 1.01326,-1.13041 0.68528,-0.3807 1.48769,-0.3807 1.01327,0 1.65754,0.51541 0.64427,0.50957 0.82584,1.45255 l -1.02498,0.15814 q -0.14643,-0.6267 -0.52128,-0.94298 -0.36899,-0.31628 -0.89612,-0.31628 -0.79656,0 -1.2944,0.57399 -0.49785,0.56813 -0.49785,1.80396 0,1.25341 0.48027,1.82154 0.48028,0.56813 1.25341,0.56813 0.62084,0 1.03669,-0.38071 0.41585,-0.3807 0.52714,-1.1714 z m 3.59074,1.3354 0.15228,0.93127 q -0.44513,0.0937 -0.79655,0.0937 -0.57399,0 -0.89026,-0.18157 -0.31628,-0.18157 -0.44515,-0.47442 -0.12885,-0.29871 -0.12885,-1.24754 v -3.57865 h -0.77313 v -0.81999 h 0.77313 v -1.54039 l 1.04841,-0.63256 v 2.17295 h 1.06012 v 0.81999 h -1.06012 v 3.63722 q 0,0.45099 0.0527,0.57984 0.0586,0.12886 0.18157,0.205 0.12885,0.0761 0.36314,0.0761 0.17571,0 0.4627,-0.041 z m 0.38696,-6.43102 v -1.21241 h 1.05427 v 1.21241 z m 0,7.374 v -6.22017 h 1.05427 v 6.22017 z m 1.61694,-3.11008 q 0,-1.72783 0.96055,-2.55952 0.80241,-0.69113 1.95625,-0.69113 1.28269,0 2.09682,0.84341 0.81412,0.83755 0.81412,2.31938 0,1.20069 -0.36313,1.89182 -0.35728,0.68528 -1.04841,1.06598 -0.68527,0.38071 -1.4994,0.38071 -1.30612,0 -2.11439,-0.83755 -0.80241,-0.83756 -0.80241,-2.4131 z m 1.08355,0 q 0,1.19483 0.52127,1.79225 0.52127,0.59156 1.31198,0.59156 0.78484,0 1.30611,-0.59742 0.52127,-0.59741 0.52127,-1.82153 0,-1.15384 -0.52713,-1.7454 -0.52128,-0.59742 -1.30026,-0.59742 -0.7907,0 -1.31198,0.59156 -0.52127,0.59156 -0.52126,1.7864 z m 5.33028,3.11008 v -6.22017 h 0.94883 v 0.88442 q 0.68528,-1.02498 1.97968,-1.02498 0.56228,0 1.03085,0.20499 0.47442,0.19914 0.70869,0.52713 0.23429,0.328 0.32799,0.77899 0.0586,0.29285 0.0586,1.02498 v 3.82464 h -1.05426 v -3.78364 q 0,-0.64427 -0.123,-0.96055 -0.123,-0.32214 -0.43928,-0.50957 -0.31042,-0.19328 -0.73213,-0.19328 -0.67356,0 -1.16555,0.42757 -0.48613,0.42756 -0.48613,1.62239 v 3.39708 z m 6.32013,0 v -1.20069 h 1.20069 v 1.20069 z m 6.44312,-2.27838 1.03668,0.13471 q -0.16985,1.07184 -0.87269,1.68097 -0.69699,0.60327 -1.7161,0.60327 -1.27684,0 -2.05583,-0.8317 -0.77313,-0.83755 -0.77313,-2.39552 0,-1.00741 0.33385,-1.76297 0.33386,-0.75556 1.01328,-1.13041 0.68527,-0.3807 1.48768,-0.3807 1.01327,0 1.65754,0.51541 0.64428,0.50957 0.82584,1.45255 l -1.02498,0.15814 q -0.14642,-0.6267 -0.52127,-0.94298 -0.36899,-0.31628 -0.89613,-0.31628 -0.79655,0 -1.2944,0.57399 -0.49785,0.56813 -0.49785,1.80396 0,1.25341 0.48028,1.82154 0.48027,0.56813 1.2534,0.56813 0.62085,0 1.0367,-0.38071 0.41585,-0.3807 0.52713,-1.1714 z m 0.89651,-0.8317 q 0,-1.72783 0.96055,-2.55952 0.80242,-0.69113 1.95625,-0.69113 1.28269,0 2.09682,0.84341 0.81413,0.83755 0.81413,2.31938 0,1.20069 -0.36314,1.89182 -0.35728,0.68528 -1.04841,1.06598 -0.68527,0.38071 -1.4994,0.38071 -1.30612,0 -2.11439,-0.83755 -0.80241,-0.83756 -0.80241,-2.4131 z m 1.08355,0 q 0,1.19483 0.52128,1.79225 0.52126,0.59156 1.31197,0.59156 0.78484,0 1.30611,-0.59742 0.52128,-0.59741 0.52128,-1.82153 0,-1.15384 -0.52714,-1.7454 -0.52127,-0.59742 -1.30026,-0.59742 -0.7907,0 -1.31197,0.59156 -0.52128,0.59156 -0.52127,1.7864 z m 5.33029,3.11008 v -6.22017 h 0.94299 v 0.8727 q 0.29284,-0.45685 0.77897,-0.73213 0.48615,-0.28113 1.10698,-0.28113 0.69113,0 1.13042,0.28699 0.44513,0.287 0.6267,0.80241 0.73799,-1.0894 1.92111,-1.0894 0.92541,0 1.42324,0.51541 0.49785,0.50957 0.49785,1.57555 v 4.26977 h -1.0484 v -3.91835 q 0,-0.63256 -0.10543,-0.90784 -0.0996,-0.28114 -0.369,-0.45099 -0.26941,-0.16986 -0.63255,-0.16986 -0.65599,0 -1.0894,0.43928 -0.43343,0.43342 -0.43343,1.39397 v 3.61379 h -1.05427 v -4.04135 q 0,-0.70284 -0.25771,-1.05427 -0.25771,-0.35142 -0.84341,-0.35142 -0.44514,0 -0.82584,0.23428 -0.37485,0.23429 -0.54471,0.68528 -0.16985,0.45099 -0.16985,1.30026 v 3.22722 z"
         id="path46" /></g><g
       id="text32"
       style="font-size:10.6667px;line-height:1;font-family:Montserrat;-inkscape-font-specification:Montserrat;text-align:end;letter-spacing:-0.22px;word-spacing:0px;text-anchor:end;white-space:pre;stroke-width:0;stroke-linecap:round;stroke-linejoin:round;paint-order:stroke fill markers"
       transform="matrix(0.01041667,0,0,0.01041667,-0.53062216,0.0191476)"
       aria-label="DFW Metroplex&#10;phone: 214-437-8113&#10;jmackeyconstruction.com"><path
         style="font-family:Arial;-inkscape-font-specification:Arial;letter-spacing:-0.14px"
         d="m 299.64982,154.48794 v -7.63545 h 2.63022 q 0.89063,0 1.35938,0.10938 0.65625,0.15104 1.11979,0.54688 0.60417,0.51042 0.90105,1.30729 0.30208,0.79167 0.30208,1.81251 0,0.86979 -0.20313,1.54167 -0.20312,0.67188 -0.52083,1.11459 -0.31771,0.4375 -0.69792,0.69271 -0.375,0.25 -0.91146,0.38021 -0.53125,0.13021 -1.22396,0.13021 z m 1.01042,-0.90105 h 1.63021 q 0.75521,0 1.1823,-0.14062 0.43229,-0.14063 0.6875,-0.39584 0.35938,-0.35937 0.55729,-0.96354 0.20313,-0.60938 0.20313,-1.47397 0,-1.19792 -0.39583,-1.83854 -0.39063,-0.64584 -0.95313,-0.86459 -0.40625,-0.15625 -1.3073,-0.15625 h -1.60417 z m 6.60481,0.90105 v -7.63545 h 5.15106 v 0.90105 h -4.14064 v 2.36459 h 3.58335 v 0.90104 h -3.58335 v 3.46877 z m 7.6569,0 -2.02604,-7.63545 h 1.03646 l 1.16146,5.00523 q 0.1875,0.78646 0.32292,1.5625 0.29166,-1.22396 0.34375,-1.41146 l 1.45313,-5.15627 h 1.21875 l 1.09375,3.8646 q 0.41146,1.43751 0.59376,2.70313 0.14583,-0.72396 0.38021,-1.66146 l 1.19792,-4.90627 h 1.01562 l -2.09375,7.63545 h -0.97396 l -1.60938,-5.81773 q -0.20313,-0.72917 -0.23959,-0.89584 -0.11979,0.52605 -0.22396,0.89584 l -1.61979,5.81773 z m 11.38671,0 v -7.63545 h 1.52084 l 1.80729,5.40627 q 0.25,0.75521 0.36459,1.13021 0.13021,-0.41666 0.40625,-1.22396 l 1.82813,-5.31252 h 1.35938 v 7.63545 h -0.97396 v -6.39065 l -2.21876,6.39065 h -0.91146 l -2.20834,-6.50002 v 6.50002 z m 12.44337,-1.78126 0.96875,0.11979 q -0.22916,0.84896 -0.84896,1.31771 -0.61979,0.46876 -1.58334,0.46876 -1.21354,0 -1.92709,-0.7448 -0.70833,-0.75 -0.70833,-2.09896 0,-1.39584 0.71875,-2.16668 0.71875,-0.77083 1.86459,-0.77083 1.10938,0 1.81251,0.75521 0.70312,0.75521 0.70312,2.12501 0,0.0833 -0.005,0.25 h -4.12502 q 0.0521,0.91146 0.51563,1.39583 0.46354,0.48438 1.15625,0.48438 0.51563,0 0.88021,-0.27083 0.36459,-0.27084 0.57813,-0.86459 z m -3.07813,-1.51563 h 3.08855 q -0.0625,-0.69792 -0.35417,-1.04688 -0.44792,-0.54167 -1.16146,-0.54167 -0.64584,0 -1.08855,0.4323 -0.4375,0.43229 -0.48437,1.15625 z m 7.13085,2.45834 0.13542,0.82813 q -0.39584,0.0833 -0.70834,0.0833 -0.51042,0 -0.79167,-0.16146 -0.28125,-0.16146 -0.39583,-0.42187 -0.11459,-0.26563 -0.11459,-1.10938 v -3.1823 h -0.6875 v -0.72917 h 0.6875 v -1.3698 l 0.9323,-0.5625 v 1.9323 h 0.94271 v 0.72917 h -0.94271 v 3.23438 q 0,0.40105 0.0469,0.51563 0.0521,0.11458 0.16146,0.18229 0.11459,0.0677 0.32292,0.0677 0.15625,0 0.41146,-0.0365 z m 0.76625,0.83855 v -5.53127 h 0.84376 v 0.83854 q 0.32291,-0.58854 0.59375,-0.77604 0.27604,-0.1875 0.60417,-0.1875 0.47396,0 0.96354,0.30208 l -0.32292,0.8698 q -0.34375,-0.20313 -0.6875,-0.20313 -0.30729,0 -0.55208,0.1875 -0.2448,0.18229 -0.34896,0.51042 -0.15625,0.5 -0.15625,1.09375 v 2.89585 z m 3.07355,-2.76564 q 0,-1.53646 0.85417,-2.27605 0.71355,-0.61458 1.73959,-0.61458 1.14063,0 1.86459,0.75 0.72396,0.74479 0.72396,2.06251 0,1.06771 -0.32291,1.68229 -0.31771,0.60938 -0.9323,0.94792 -0.60938,0.33855 -1.33334,0.33855 -1.16146,0 -1.88021,-0.7448 -0.71355,-0.74479 -0.71355,-2.14584 z m 0.96355,0 q 0,1.06251 0.46354,1.59376 0.46355,0.52604 1.16667,0.52604 0.69792,0 1.16147,-0.53125 0.46354,-0.53125 0.46354,-1.6198 0,-1.02604 -0.46875,-1.55209 -0.46355,-0.53125 -1.15626,-0.53125 -0.70312,0 -1.16667,0.52605 -0.46354,0.52604 -0.46354,1.58854 z m 5.17773,4.88543 v -7.65106 H 353.64 v 0.71875 q 0.30208,-0.42188 0.68229,-0.63021 0.38021,-0.21354 0.92188,-0.21354 0.70833,0 1.25,0.36458 0.54167,0.36459 0.81771,1.03126 0.27605,0.66146 0.27605,1.45313 0,0.84896 -0.3073,1.53125 -0.30208,0.67709 -0.88542,1.04167 -0.57812,0.35938 -1.21875,0.35938 -0.46875,0 -0.84375,-0.19792 -0.3698,-0.19792 -0.60938,-0.5 v 2.69271 z m 0.84896,-4.85418 q 0,1.06771 0.43229,1.57813 0.43229,0.51042 1.04688,0.51042 0.625,0 1.06771,-0.52604 0.44792,-0.53125 0.44792,-1.64063 0,-1.0573 -0.4375,-1.58334 -0.4323,-0.52604 -1.03646,-0.52604 -0.59896,0 -1.06251,0.5625 -0.45833,0.55729 -0.45833,1.625 z m 4.92251,2.73439 v -7.63545 h 0.93751 v 7.63545 z m 6.03711,-1.78126 0.96875,0.11979 q -0.22917,0.84896 -0.84896,1.31771 -0.61979,0.46876 -1.58334,0.46876 -1.21354,0 -1.92709,-0.7448 -0.70833,-0.75 -0.70833,-2.09896 0,-1.39584 0.71875,-2.16668 0.71875,-0.77083 1.86459,-0.77083 1.10938,0 1.8125,0.75521 0.70313,0.75521 0.70313,2.12501 0,0.0833 -0.005,0.25 h -4.12501 q 0.0521,0.91146 0.51563,1.39583 0.46354,0.48438 1.15625,0.48438 0.51563,0 0.88021,-0.27083 0.36458,-0.27084 0.57813,-0.86459 z m -3.07814,-1.51563 h 3.08855 q -0.0625,-0.69792 -0.35416,-1.04688 -0.44792,-0.54167 -1.16147,-0.54167 -0.64583,0 -1.08854,0.4323 -0.4375,0.43229 -0.48438,1.15625 z m 4.45898,3.29689 2.02084,-2.87501 -1.8698,-2.65626 h 1.17188 l 0.84896,1.29688 q 0.23958,0.36979 0.38542,0.61979 0.22916,-0.34375 0.42187,-0.60938 l 0.9323,-1.30729 h 1.11979 l -1.91146,2.60417 2.0573,2.9271 h -1.15105 l -1.13542,-1.71876 -0.30208,-0.46354 -1.45313,2.1823 z m -92.74593,12.98211 v -7.65106 h 0.85417 v 0.71875 q 0.30208,-0.42188 0.68229,-0.63021 0.38021,-0.21354 0.92188,-0.21354 0.70833,0 1.25,0.36458 0.54167,0.36459 0.81771,1.03126 0.27605,0.66146 0.27605,1.45313 0,0.84896 -0.3073,1.53125 -0.30208,0.67709 -0.88542,1.04167 -0.57812,0.35938 -1.21875,0.35938 -0.46875,0 -0.84375,-0.19792 -0.3698,-0.19792 -0.60938,-0.5 v 2.69271 z m 0.84896,-4.85418 q 0,1.06771 0.43229,1.57813 0.43229,0.51042 1.04688,0.51042 0.625,0 1.06771,-0.52604 0.44792,-0.53125 0.44792,-1.64063 0,-1.0573 -0.4375,-1.58334 -0.43229,-0.52604 -1.03646,-0.52604 -0.59896,0 -1.06251,0.5625 -0.45833,0.55729 -0.45833,1.625 z m 4.94335,2.73439 v -7.63545 h 0.9375 v 2.7396 q 0.65625,-0.76042 1.65626,-0.76042 0.61458,0 1.06771,0.24479 0.45312,0.23958 0.64583,0.66667 0.19792,0.42708 0.19792,1.23959 v 3.50522 h -0.9375 v -3.50522 q 0,-0.70313 -0.30729,-1.02084 -0.30209,-0.32292 -0.85938,-0.32292 -0.41667,0 -0.78646,0.21875 -0.36459,0.21355 -0.52084,0.58334 -0.15625,0.36979 -0.15625,1.02083 v 3.02606 z m 5.44335,-2.76564 q 0,-1.53646 0.85417,-2.27605 0.71354,-0.61458 1.73959,-0.61458 1.14063,0 1.86459,0.75 0.72396,0.74479 0.72396,2.06251 0,1.06771 -0.32292,1.68229 -0.31771,0.60938 -0.93229,0.94792 -0.60938,0.33855 -1.33334,0.33855 -1.16146,0 -1.88022,-0.7448 -0.71354,-0.74479 -0.71354,-2.14584 z m 0.96354,0 q 0,1.06251 0.46355,1.59376 0.46354,0.52604 1.16667,0.52604 0.69792,0 1.16146,-0.53125 0.46354,-0.53125 0.46354,-1.6198 0,-1.02604 -0.46875,-1.55209 -0.46354,-0.53125 -1.15625,-0.53125 -0.70313,0 -1.16667,0.52605 -0.46355,0.52604 -0.46355,1.58854 z m 5.17773,2.76564 v -5.53127 H 291.45 v 0.78646 q 0.60938,-0.91146 1.76042,-0.91146 0.50001,0 0.91667,0.18229 0.42188,0.17708 0.63021,0.46875 0.20834,0.29167 0.29167,0.69271 0.0521,0.26042 0.0521,0.91146 v 3.40106 h -0.93751 v -3.3646 q 0,-0.57292 -0.10937,-0.85417 -0.10938,-0.28646 -0.39063,-0.45312 -0.27604,-0.17188 -0.65104,-0.17188 -0.59896,0 -1.03646,0.38021 -0.4323,0.38021 -0.4323,1.44271 v 3.02085 z m 9.57878,-1.78126 0.96875,0.11979 q -0.22916,0.84896 -0.84896,1.31771 -0.61979,0.46876 -1.58334,0.46876 -1.21354,0 -1.92708,-0.7448 -0.70834,-0.75 -0.70834,-2.09896 0,-1.39584 0.71875,-2.16668 0.71875,-0.77083 1.86459,-0.77083 1.10938,0 1.81251,0.75521 0.70312,0.75521 0.70312,2.12501 0,0.0833 -0.005,0.25 h -4.12502 q 0.0521,0.91146 0.51563,1.39583 0.46354,0.48438 1.15625,0.48438 0.51563,0 0.88021,-0.27083 0.36459,-0.27084 0.57813,-0.86459 z m -3.07813,-1.51563 h 3.08855 q -0.0625,-0.69792 -0.35417,-1.04688 -0.44792,-0.54167 -1.16146,-0.54167 -0.64584,0 -1.08855,0.4323 -0.4375,0.43229 -0.48437,1.15625 z m 5.34439,-1.16667 v -1.06771 h 1.06771 v 1.06771 z m 0,4.46356 v -1.06772 h 1.06771 v 1.06772 z m 10.05336,-0.90105 v 0.90105 h -5.04689 q -0.0104,-0.33855 0.10938,-0.65105 0.19271,-0.51562 0.61458,-1.01563 0.42709,-0.5 1.22917,-1.15625 1.2448,-1.02084 1.6823,-1.61459 0.4375,-0.59896 0.4375,-1.13021 0,-0.55729 -0.40104,-0.9375 -0.39584,-0.38542 -1.03646,-0.38542 -0.67709,0 -1.08334,0.40625 -0.40625,0.40625 -0.41146,1.125 l -0.96354,-0.099 q 0.099,-1.07813 0.74479,-1.64064 0.64584,-0.56771 1.73438,-0.56771 1.09896,0 1.73959,0.60938 0.64063,0.60938 0.64063,1.51042 0,0.45834 -0.1875,0.90105 -0.1875,0.44271 -0.62501,0.93229 -0.43229,0.48959 -1.44271,1.34376 -0.84375,0.70833 -1.08334,0.96354 -0.23958,0.25 -0.39583,0.50521 z m 4.39648,0.90105 h -0.9375 v -5.97398 q -0.33855,0.32292 -0.89063,0.64583 -0.54688,0.32292 -0.98438,0.48438 v -0.90625 q 0.78646,-0.3698 1.375,-0.89584 0.58855,-0.52604 0.83334,-1.02084 h 0.60417 z m 5.26626,0 v -1.82814 h -3.31251 v -0.85937 l 3.48439,-4.94794 h 0.76563 v 4.94794 h 1.03125 v 0.85937 h -1.03125 v 1.82814 z m 0,-2.68751 v -3.44272 l -2.39063,3.44272 z m 2.68293,0.39583 v -0.94271 h 2.88022 v 0.94271 z m 6.52148,2.29168 v -1.82814 h -3.31251 v -0.85937 l 3.48439,-4.94794 h 0.76562 v 4.94794 h 1.03126 v 0.85937 h -1.03126 v 1.82814 z m 0,-2.68751 v -3.44272 l -2.39063,3.44272 z m 2.7923,0.67187 0.9375,-0.125 q 0.16146,0.79688 0.54688,1.15105 0.39063,0.34896 0.94792,0.34896 0.66146,0 1.11459,-0.45834 0.45833,-0.45833 0.45833,-1.13542 0,-0.64583 -0.42188,-1.0625 -0.42187,-0.42188 -1.07292,-0.42188 -0.26562,0 -0.66146,0.10417 l 0.10417,-0.82292 q 0.0937,0.0104 0.15104,0.0104 0.59896,0 1.07813,-0.3125 0.47917,-0.3125 0.47917,-0.96355 0,-0.51562 -0.34896,-0.85417 -0.34896,-0.33854 -0.90104,-0.33854 -0.54688,0 -0.91147,0.34375 -0.36458,0.34375 -0.46875,1.03125 l -0.9375,-0.16666 q 0.17188,-0.94271 0.78125,-1.45834 0.60938,-0.52084 1.51563,-0.52084 0.625,0 1.15105,0.27084 0.52604,0.26562 0.80208,0.72917 0.28125,0.46354 0.28125,0.98438 0,0.49479 -0.26562,0.90104 -0.26563,0.40625 -0.78646,0.64584 0.67708,0.15625 1.05208,0.65104 0.37501,0.48958 0.37501,1.22917 0,1 -0.72917,1.69792 -0.72917,0.69271 -1.84376,0.69271 -1.00521,0 -1.67188,-0.59896 -0.66146,-0.59896 -0.75521,-1.55209 z m 5.8496,-4.6198 v -0.90105 h 4.94272 v 0.72917 q -0.72916,0.77605 -1.44792,2.06251 -0.71354,1.28646 -1.10417,2.64584 -0.28125,0.95834 -0.35937,2.09897 h -0.96355 q 0.0156,-0.90105 0.35417,-2.17709 0.33854,-1.27605 0.96875,-2.45835 0.63542,-1.1875 1.34897,-2 z m 5.62565,4.34376 v -0.94271 h 2.88021 v 0.94271 z m 4.95897,-1.84896 q -0.58334,-0.21354 -0.86459,-0.60938 -0.28125,-0.39583 -0.28125,-0.94792 0,-0.83333 0.59896,-1.40105 0.59896,-0.56771 1.59376,-0.56771 1,0 1.60938,0.58334 0.60938,0.57813 0.60938,1.41146 0,0.53125 -0.28126,0.92709 -0.27604,0.39063 -0.84375,0.60417 0.70313,0.22917 1.06771,0.73958 0.3698,0.51042 0.3698,1.21876 0,0.97917 -0.69271,1.64584 -0.69271,0.66666 -1.82293,0.66666 -1.13021,0 -1.82292,-0.66666 -0.69271,-0.67188 -0.69271,-1.67188 0,-0.7448 0.375,-1.2448 0.38021,-0.50521 1.07813,-0.6875 z m -0.1875,-1.58855 q 0,0.54167 0.34896,0.88542 0.34896,0.34375 0.90625,0.34375 0.54167,0 0.88542,-0.33854 0.34896,-0.34375 0.34896,-0.83855 0,-0.51562 -0.35938,-0.86458 -0.35416,-0.35417 -0.88542,-0.35417 -0.53646,0 -0.89062,0.34375 -0.35417,0.34375 -0.35417,0.82292 z m -0.30209,3.52605 q 0,0.40105 0.18751,0.77605 0.1927,0.375 0.56771,0.58333 0.375,0.20313 0.80729,0.20313 0.67188,0 1.10938,-0.43229 0.4375,-0.4323 0.4375,-1.09897 0,-0.67708 -0.45313,-1.11979 -0.44791,-0.44271 -1.125,-0.44271 -0.66146,0 -1.09896,0.4375 -0.4323,0.4375 -0.4323,1.09375 z m 8.37045,2.20314 h -0.9375 v -5.97398 q -0.33854,0.32292 -0.89063,0.64583 -0.54688,0.32292 -0.98438,0.48438 v -0.90625 q 0.78646,-0.3698 1.37501,-0.89584 0.58854,-0.52604 0.83333,-1.02084 h 0.60417 z m 5.00064,0 h -0.9375 v -5.97398 q -0.33854,0.32292 -0.89063,0.64583 -0.54688,0.32292 -0.98438,0.48438 v -0.90625 q 0.78646,-0.3698 1.37501,-0.89584 0.58854,-0.52604 0.83333,-1.02084 h 0.60417 z m 2.26626,-2.01564 0.9375,-0.125 q 0.16146,0.79688 0.54688,1.15105 0.39063,0.34896 0.94792,0.34896 0.66146,0 1.11459,-0.45834 0.45833,-0.45833 0.45833,-1.13542 0,-0.64583 -0.42187,-1.0625 -0.42188,-0.42188 -1.07292,-0.42188 -0.26563,0 -0.66146,0.10417 l 0.10416,-0.82292 q 0.0937,0.0104 0.15104,0.0104 0.59896,0 1.07813,-0.3125 0.47917,-0.3125 0.47917,-0.96355 0,-0.51562 -0.34896,-0.85417 -0.34896,-0.33854 -0.90104,-0.33854 -0.54688,0 -0.91146,0.34375 -0.36459,0.34375 -0.46876,1.03125 l -0.9375,-0.16666 q 0.17188,-0.94271 0.78125,-1.45834 0.60938,-0.52084 1.51563,-0.52084 0.62501,0 1.15105,0.27084 0.52604,0.26562 0.80209,0.72917 0.28125,0.46354 0.28125,0.98438 0,0.49479 -0.26563,0.90104 -0.26563,0.40625 -0.78646,0.64584 0.67708,0.15625 1.05209,0.65104 0.375,0.48958 0.375,1.22917 0,1 -0.72917,1.69792 -0.72917,0.69271 -1.84376,0.69271 -1.00521,0 -1.67188,-0.59896 -0.66146,-0.59896 -0.75521,-1.55209 z"
         id="path42" /><path
         style="font-size:12px;font-family:Arial;-inkscape-font-specification:Arial;letter-spacing:-0.6px"
         d="m 250.50273,169.68604 v -1.22461 h 1.05469 v 1.22461 z m -1.33593,9.77929 0.19922,-0.89648 q 0.3164,0.082 0.49804,0.082 0.32227,0 0.48047,-0.2168 0.1582,-0.21093 0.1582,-1.0664 v -6.53907 h 1.05469 v 6.5625 q 0,1.14844 -0.29883,1.59961 -0.38086,0.58594 -1.26562,0.58594 -0.42774,0 -0.82617,-0.11133 z m 3.40781,-2.41406 v -6.22266 h 0.94336 v 0.87305 q 0.29297,-0.45703 0.7793,-0.73242 0.48632,-0.28125 1.10742,-0.28125 0.6914,0 1.13086,0.28711 0.44531,0.28711 0.62695,0.80273 0.73828,-1.08984 1.92188,-1.08984 0.92578,0 1.42382,0.51562 0.49805,0.50977 0.49805,1.57618 v 4.27148 h -1.04883 v -3.91992 q 0,-0.63281 -0.10547,-0.9082 -0.0996,-0.28125 -0.36914,-0.45118 -0.26953,-0.16992 -0.63281,-0.16992 -0.65625,0 -1.08984,0.43946 -0.4336,0.43359 -0.4336,1.39453 v 3.61523 h -1.05468 v -4.04297 q 0,-0.70312 -0.25782,-1.05469 -0.25781,-0.35156 -0.84375,-0.35156 -0.44531,0 -0.82617,0.23438 -0.375,0.23437 -0.54492,0.68554 -0.16992,0.45118 -0.16992,1.30079 v 3.22851 z m 13.45664,-0.76758 q -0.58594,0.49805 -1.13086,0.70313 -0.53906,0.20508 -1.16015,0.20508 -1.0254,0 -1.57618,-0.49805 -0.55078,-0.50391 -0.55078,-1.2832 0,-0.45704 0.20508,-0.83204 0.21094,-0.38085 0.54492,-0.60937 0.33985,-0.22852 0.76172,-0.3457 0.31055,-0.082 0.9375,-0.15821 1.27734,-0.15234 1.88086,-0.36328 0.006,-0.21679 0.006,-0.27539 0,-0.64453 -0.29883,-0.9082 -0.4043,-0.35742 -1.20117,-0.35742 -0.74414,0 -1.10156,0.26367 -0.35157,0.25781 -0.52149,0.91992 l -1.03125,-0.14062 q 0.14063,-0.66211 0.46289,-1.06641 0.32227,-0.41016 0.93164,-0.62695 0.60938,-0.22266 1.41211,-0.22266 0.79688,0 1.29493,0.1875 0.49804,0.1875 0.73242,0.47461 0.23437,0.28125 0.32812,0.71484 0.0527,0.26953 0.0527,0.97266 v 1.40625 q 0,1.4707 0.0645,1.86328 0.0703,0.38672 0.26953,0.74414 h -1.10156 q -0.16406,-0.32812 -0.21094,-0.76758 z m -0.0879,-2.35547 q -0.57422,0.23438 -1.72266,0.39844 -0.65039,0.0937 -0.91992,0.21094 -0.26953,0.11719 -0.41601,0.3457 -0.14649,0.22266 -0.14649,0.49805 0,0.42187 0.31641,0.70312 0.32226,0.28125 0.9375,0.28125 0.60937,0 1.08398,-0.26367 0.47461,-0.26953 0.69727,-0.73242 0.16992,-0.35742 0.16992,-1.05469 z m 6.16172,0.84375 1.03711,0.13477 q -0.16992,1.07227 -0.87305,1.68164 -0.69726,0.60352 -1.71679,0.60352 -1.27735,0 -2.05665,-0.83204 -0.77343,-0.83789 -0.77343,-2.39648 0,-1.00781 0.33398,-1.76367 0.33399,-0.75586 1.01367,-1.13086 0.68555,-0.38086 1.48828,-0.38086 1.01368,0 1.65821,0.51562 0.64453,0.50977 0.82617,1.45313 l -1.02539,0.1582 q -0.14649,-0.62695 -0.52149,-0.94336 -0.36914,-0.3164 -0.89648,-0.3164 -0.79687,0 -1.29492,0.57422 -0.49805,0.56836 -0.49805,1.80468 0,1.25391 0.48047,1.82227 0.48047,0.56836 1.25391,0.56836 0.62109,0 1.03711,-0.38086 0.41601,-0.38086 0.52734,-1.17188 z m 1.34531,2.2793 v -8.58984 h 1.05469 v 4.89843 l 2.49609,-2.53125 h 1.36524 l -2.37891,2.3086 2.61914,3.91406 h -1.30078 l -2.05664,-3.18164 -0.74414,0.71484 v 2.4668 z m 9.65391,-2.00391 1.08984,0.13477 q -0.25781,0.95508 -0.95508,1.48242 -0.69726,0.52735 -1.78125,0.52735 -1.36523,0 -2.16797,-0.83789 -0.79687,-0.84375 -0.79687,-2.36133 0,-1.57032 0.80859,-2.4375 0.8086,-0.86719 2.09766,-0.86719 1.24805,0 2.03906,0.84961 0.79102,0.84961 0.79102,2.39062 0,0.0937 -0.006,0.28125 h -4.64063 q 0.0586,1.02539 0.58008,1.57032 0.52149,0.54492 1.30078,0.54492 0.58008,0 0.99024,-0.30469 0.41015,-0.30469 0.65039,-0.97266 z m -3.46289,-1.70507 h 3.47461 q -0.0703,-0.78516 -0.39844,-1.17774 -0.50391,-0.60937 -1.30664,-0.60937 -0.72656,0 -1.22461,0.48633 -0.49219,0.48632 -0.54492,1.30078 z m 5.23008,6.10547 -0.11719,-0.99024 q 0.3457,0.0937 0.60351,0.0937 0.35157,0 0.5625,-0.11719 0.21094,-0.11718 0.34571,-0.32812 0.0996,-0.1582 0.32226,-0.78516 0.0293,-0.0879 0.0937,-0.25781 l -2.36132,-6.23438 h 1.13671 l 1.29493,3.60352 q 0.25195,0.68555 0.45117,1.44141 0.18164,-0.72657 0.43359,-1.41797 l 1.33008,-3.62696 h 1.05469 l -2.36719,6.32813 q -0.38086,1.02539 -0.5918,1.41211 -0.28125,0.52148 -0.64453,0.76172 -0.36328,0.24609 -0.86719,0.24609 -0.30468,0 -0.67968,-0.1289 z m 9.50742,-4.67579 1.03711,0.13477 q -0.16993,1.07227 -0.87305,1.68164 -0.69727,0.60352 -1.7168,0.60352 -1.27734,0 -2.05664,-0.83204 -0.77344,-0.83789 -0.77344,-2.39648 0,-1.00781 0.33399,-1.76367 0.33398,-0.75586 1.01367,-1.13086 0.68555,-0.38086 1.48828,-0.38086 1.01367,0 1.6582,0.51562 0.64454,0.50977 0.82618,1.45313 l -1.02539,0.1582 q -0.14649,-0.62695 -0.52149,-0.94336 -0.36914,-0.3164 -0.89648,-0.3164 -0.79688,0 -1.29493,0.57422 -0.49804,0.56836 -0.49804,1.80468 0,1.25391 0.48047,1.82227 0.48047,0.56836 1.2539,0.56836 0.6211,0 1.03711,-0.38086 0.41602,-0.38086 0.52735,-1.17188 z m 0.94687,-0.83203 q 0,-1.72851 0.96094,-2.56054 0.80273,-0.69141 1.95703,-0.69141 1.2832,0 2.09766,0.84375 0.81445,0.83789 0.81445,2.32031 0,1.20117 -0.36328,1.89258 -0.35742,0.68555 -1.04883,1.06641 -0.68555,0.38086 -1.5,0.38086 -1.30664,0 -2.11523,-0.83789 -0.80274,-0.8379 -0.80274,-2.41407 z m 1.08399,0 q 0,1.19532 0.52148,1.79297 0.52149,0.5918 1.3125,0.5918 0.78516,0 1.30664,-0.59766 0.52149,-0.59765 0.52149,-1.82226 0,-1.1543 -0.52735,-1.7461 -0.52148,-0.59765 -1.30078,-0.59765 -0.79101,0 -1.3125,0.59179 -0.52148,0.5918 -0.52148,1.78711 z m 5.38242,3.11133 v -6.22266 h 0.94922 v 0.88477 q 0.68554,-1.02539 1.98046,-1.02539 0.5625,0 1.03125,0.20508 0.47461,0.19922 0.70899,0.52734 0.23437,0.32813 0.32812,0.7793 0.0586,0.29297 0.0586,1.02539 v 3.82617 h -1.05469 v -3.78516 q 0,-0.64453 -0.12305,-0.96093 -0.12304,-0.32227 -0.43945,-0.50977 -0.31055,-0.19336 -0.73242,-0.19336 -0.67383,0 -1.16602,0.42774 -0.48633,0.42773 -0.48633,1.62304 v 3.39844 z m 5.65195,-1.85742 1.04297,-0.16406 q 0.0879,0.62695 0.48633,0.96093 0.40429,0.33399 1.125,0.33399 0.72656,0 1.07812,-0.29297 0.35157,-0.29883 0.35157,-0.69727 0,-0.35742 -0.31055,-0.5625 -0.2168,-0.14062 -1.07813,-0.35742 -1.16015,-0.29297 -1.61132,-0.5039 -0.44532,-0.2168 -0.67969,-0.5918 -0.22852,-0.38086 -0.22852,-0.83789 0,-0.41602 0.1875,-0.76758 0.19336,-0.35742 0.52149,-0.5918 0.24609,-0.18164 0.66797,-0.30468 0.42773,-0.12891 0.91406,-0.12891 0.73242,0 1.2832,0.21094 0.55664,0.21093 0.82031,0.57422 0.26368,0.35742 0.36328,0.96093 l -1.03125,0.14063 q -0.0703,-0.48047 -0.41015,-0.75 -0.33399,-0.26953 -0.94922,-0.26953 -0.72656,0 -1.03711,0.24023 -0.31055,0.24024 -0.31055,0.5625 0,0.20508 0.12891,0.36914 0.12891,0.16992 0.4043,0.28125 0.1582,0.0586 0.93164,0.26953 1.11914,0.29883 1.55859,0.49219 0.44531,0.1875 0.69727,0.55078 0.25195,0.36328 0.25195,0.90235 0,0.52734 -0.31055,0.99609 -0.30468,0.46289 -0.88476,0.7207 -0.58008,0.25196 -1.3125,0.25196 -1.21289,0 -1.85157,-0.50391 -0.63281,-0.50391 -0.80859,-1.49414 z m 8.12461,0.91406 0.15235,0.93164 q -0.44532,0.0937 -0.79688,0.0937 -0.57422,0 -0.89062,-0.18164 -0.31641,-0.18164 -0.44532,-0.47461 -0.1289,-0.29883 -0.1289,-1.24804 v -3.58008 h -0.77344 v -0.82032 h 0.77344 v -1.54101 l 1.04883,-0.63281 v 2.17382 h 1.06054 v 0.82032 h -1.06054 v 3.63867 q 0,0.45117 0.0527,0.58008 0.0586,0.1289 0.18164,0.20508 0.12891,0.0762 0.36328,0.0762 0.17578,0 0.46289,-0.041 z m 0.41953,0.94336 v -6.22266 h 0.94922 v 0.94336 q 0.36328,-0.66211 0.66797,-0.87304 0.31055,-0.21094 0.67969,-0.21094 0.5332,0 1.08398,0.33984 l -0.36328,0.97852 q -0.38672,-0.22852 -0.77343,-0.22852 -0.34571,0 -0.6211,0.21094 -0.27539,0.20508 -0.39258,0.57422 -0.17578,0.5625 -0.17578,1.23047 v 3.25781 z m 7.48594,0 v -0.91406 q -0.72657,1.05469 -1.97461,1.05469 -0.55078,0 -1.03125,-0.21094 -0.47461,-0.21094 -0.70899,-0.52735 -0.22851,-0.32226 -0.32226,-0.78515 -0.0645,-0.31055 -0.0645,-0.98438 v -3.85547 h 1.05469 v 3.45118 q 0,0.82617 0.0644,1.11328 0.0996,0.41601 0.42188,0.65625 0.32226,0.23437 0.79687,0.23437 0.47461,0 0.89063,-0.24023 0.41601,-0.2461 0.58594,-0.66211 0.17578,-0.42188 0.17578,-1.21875 v -3.33399 h 1.05469 v 6.22266 z m 6.05625,-2.2793 1.03711,0.13477 q -0.16992,1.07227 -0.87305,1.68164 -0.69727,0.60352 -1.7168,0.60352 -1.27734,0 -2.05664,-0.83204 -0.77343,-0.83789 -0.77343,-2.39648 0,-1.00781 0.33398,-1.76367 0.33398,-0.75586 1.01367,-1.13086 0.68555,-0.38086 1.48828,-0.38086 1.01367,0 1.65821,0.51562 0.64453,0.50977 0.82617,1.45313 l -1.02539,0.1582 q -0.14649,-0.62695 -0.52149,-0.94336 -0.36914,-0.3164 -0.89648,-0.3164 -0.79688,0 -1.29492,0.57422 -0.49805,0.56836 -0.49805,1.80468 0,1.25391 0.48047,1.82227 0.48047,0.56836 1.2539,0.56836 0.6211,0 1.03711,-0.38086 0.41602,-0.38086 0.52735,-1.17188 z m 3.64219,1.33594 0.15234,0.93164 q -0.44531,0.0937 -0.79687,0.0937 -0.57422,0 -0.89063,-0.18164 -0.31641,-0.18164 -0.44531,-0.47461 -0.12891,-0.29883 -0.12891,-1.24804 v -3.58008 h -0.77344 v -0.82032 h 0.77344 v -1.54101 l 1.04883,-0.63281 v 2.17382 h 1.06055 v 0.82032 h -1.06055 v 3.63867 q 0,0.45117 0.0527,0.58008 0.0586,0.1289 0.18164,0.20508 0.12891,0.0762 0.36329,0.0762 0.17578,0 0.46289,-0.041 z m 0.43711,-6.43359 v -1.21289 h 1.05469 v 1.21289 z m 0,7.37695 v -6.22266 h 1.05469 v 6.22266 z m 1.66758,-3.11133 q 0,-1.72851 0.96093,-2.56054 0.80274,-0.69141 1.95704,-0.69141 1.2832,0 2.09765,0.84375 0.81446,0.83789 0.81446,2.32031 0,1.20117 -0.36329,1.89258 -0.35742,0.68555 -1.04882,1.06641 -0.68555,0.38086 -1.5,0.38086 -1.30664,0 -2.11524,-0.83789 -0.80273,-0.8379 -0.80273,-2.41407 z m 1.08398,0 q 0,1.19532 0.52149,1.79297 0.52148,0.5918 1.3125,0.5918 0.78515,0 1.30664,-0.59766 0.52148,-0.59765 0.52148,-1.82226 0,-1.1543 -0.52734,-1.7461 -0.52149,-0.59765 -1.30078,-0.59765 -0.79102,0 -1.3125,0.59179 -0.52149,0.5918 -0.52149,1.78711 z m 5.38242,3.11133 v -6.22266 h 0.94922 v 0.88477 q 0.68554,-1.02539 1.98046,-1.02539 0.5625,0 1.03125,0.20508 0.47461,0.19922 0.70899,0.52734 0.23437,0.32813 0.32812,0.7793 0.0586,0.29297 0.0586,1.02539 v 3.82617 h -1.05469 v -3.78516 q 0,-0.64453 -0.12305,-0.96093 -0.12304,-0.32227 -0.43945,-0.50977 -0.31055,-0.19336 -0.73242,-0.19336 -0.67383,0 -1.16602,0.42774 -0.48633,0.42773 -0.48633,1.62304 v 3.39844 z m 6.37266,0 v -1.20117 h 1.20117 v 1.20117 z m 6.4957,-2.2793 1.03711,0.13477 q -0.16992,1.07227 -0.87305,1.68164 -0.69726,0.60352 -1.71679,0.60352 -1.27735,0 -2.05665,-0.83204 -0.77343,-0.83789 -0.77343,-2.39648 0,-1.00781 0.33398,-1.76367 0.33399,-0.75586 1.01367,-1.13086 0.68555,-0.38086 1.48828,-0.38086 1.01368,0 1.65821,0.51562 0.64453,0.50977 0.82617,1.45313 l -1.02539,0.1582 q -0.14649,-0.62695 -0.52149,-0.94336 -0.36914,-0.3164 -0.89648,-0.3164 -0.79687,0 -1.29492,0.57422 -0.49805,0.56836 -0.49805,1.80468 0,1.25391 0.48047,1.82227 0.48047,0.56836 1.25391,0.56836 0.62109,0 1.03711,-0.38086 0.41601,-0.38086 0.52734,-1.17188 z m 0.94688,-0.83203 q 0,-1.72851 0.96093,-2.56054 0.80274,-0.69141 1.95704,-0.69141 1.2832,0 2.09765,0.84375 0.81445,0.83789 0.81445,2.32031 0,1.20117 -0.36328,1.89258 -0.35742,0.68555 -1.04882,1.06641 -0.68555,0.38086 -1.5,0.38086 -1.30665,0 -2.11524,-0.83789 -0.80273,-0.8379 -0.80273,-2.41407 z m 1.08398,0 q 0,1.19532 0.52149,1.79297 0.52148,0.5918 1.3125,0.5918 0.78515,0 1.30664,-0.59766 0.52148,-0.59765 0.52148,-1.82226 0,-1.1543 -0.52734,-1.7461 -0.52149,-0.59765 -1.30078,-0.59765 -0.79102,0 -1.3125,0.59179 -0.52149,0.5918 -0.52149,1.78711 z m 5.38242,3.11133 v -6.22266 h 0.94336 v 0.87305 q 0.29297,-0.45703 0.7793,-0.73242 0.48633,-0.28125 1.10742,-0.28125 0.69141,0 1.13086,0.28711 0.44531,0.28711 0.62695,0.80273 0.73829,-1.08984 1.92188,-1.08984 0.92578,0 1.42383,0.51562 0.49804,0.50977 0.49804,1.57618 v 4.27148 h -1.04882 v -3.91992 q 0,-0.63281 -0.10547,-0.9082 -0.0996,-0.28125 -0.36914,-0.45118 -0.26953,-0.16992 -0.63282,-0.16992 -0.65625,0 -1.08984,0.43946 -0.43359,0.43359 -0.43359,1.39453 v 3.61523 h -1.05469 v -4.04297 q 0,-0.70312 -0.25781,-1.05469 -0.25782,-0.35156 -0.84375,-0.35156 -0.44532,0 -0.82617,0.23438 -0.375,0.23437 -0.54493,0.68554 -0.16992,0.45118 -0.16992,1.30079 v 3.22851 z"
         id="path43" /></g></g><path
     style="font-weight:500;font-size:0.111111px;line-height:0.8;font-family:Montserrat;-inkscape-font-specification:'Montserrat Medium';letter-spacing:-0.00229167px;word-spacing:0px;stroke-width:0;stroke-linecap:round;stroke-linejoin:round;paint-order:stroke fill markers"
     d="m 0.81245953,1.2349098 v -0.077778 h 0.0327777 q 0.0124444,0 0.0218889,0.00489 0.009556,0.00489 0.0147778,0.013667 0.005333,0.00878 0.005333,0.020333 0,0.011556 -0.005333,0.020333 -0.005222,0.00878 -0.0147778,0.013667 -0.009444,0.00489 -0.0218889,0.00489 z m 0.0111111,-0.00967 h 0.021 q 0.009667,0 0.0166667,-0.00367 0.007111,-0.00367 0.011,-0.010222 0.003889,-0.00667 0.003889,-0.015333 0,-0.00878 -0.003889,-0.015333 -0.003889,-0.00656 -0.011,-0.010222 -0.007,-0.00367 -0.0166667,-0.00367 h -0.021 z m 0.0783749,0.00967 v -0.077778 h 0.0548888 v 0.00967 h -0.0437777 v 0.068111 z m 0.01,-0.031444 v -0.00956 h 0.0401111 v 0.00956 z m 0.0761527,0.031444 -0.026,-0.077778 h 0.0114444 l 0.0238889,0.071778 h -0.005778 l 0.0247778,-0.071778 h 0.010222 l 0.024222,0.071778 h -0.00556 l 0.024222,-0.071778 h 0.010556 l -0.026,0.077778 h -0.011667 l -0.022667,-0.066555 h 0.003 l -0.0227778,0.066555 z m 0.13252757,0 v -0.077778 h 0.030333 q 0.010222,0 0.017444,0.00322 0.00722,0.00322 0.011111,0.00933 0.00389,0.00611 0.00389,0.014556 0,0.00844 -0.00389,0.014555 -0.00389,0.006 -0.011111,0.00933 -0.00722,0.00322 -0.017444,0.00322 h -0.024222 l 0.005,-0.00522 v 0.028778 z m 0.011111,-0.027667 -0.005,-0.00556 h 0.023889 q 0.010667,0 0.016111,-0.00456 0.00556,-0.00456 0.00556,-0.012889 0,-0.00833 -0.00556,-0.012889 -0.00544,-0.00456 -0.016111,-0.00456 h -0.023889 l 0.005,-0.00556 z m 0.065708,0.027667 v -0.077778 h 0.030333 q 0.015111,0 0.023778,0.00722 0.00867,0.00711 0.00867,0.019889 0,0.00844 -0.00389,0.014555 -0.00389,0.006 -0.011111,0.00922 -0.00722,0.00322 -0.017444,0.00322 h -0.024222 l 0.005,-0.00511 v 0.028778 z m 0.052,0 -0.019778,-0.028222 h 0.011889 l 0.02,0.028222 z m -0.040889,-0.027667 -0.005,-0.00544 h 0.023889 q 0.010667,0 0.016111,-0.00456 0.00556,-0.00467 0.00556,-0.013 0,-0.00833 -0.00556,-0.012889 -0.00544,-0.00456 -0.016111,-0.00456 h -0.023889 l 0.005,-0.00556 z m 0.1024859,0.028556 q -0.00889,0 -0.016556,-0.003 -0.00756,-0.003 -0.013111,-0.00833 -0.00556,-0.00544 -0.00867,-0.012667 -0.00311,-0.00722 -0.00311,-0.015778 0,-0.00856 0.00311,-0.015778 0.00311,-0.00722 0.00867,-0.012556 0.00556,-0.00544 0.013111,-0.00844 0.00756,-0.003 0.016556,-0.003 0.00889,0 0.016333,0.003 0.00756,0.00289 0.013111,0.00833 0.00567,0.00533 0.00867,0.012555 0.00311,0.00722 0.00311,0.015889 0,0.00867 -0.00311,0.015889 -0.003,0.00722 -0.00867,0.012667 -0.00556,0.00533 -0.013111,0.00833 -0.00744,0.00289 -0.016333,0.00289 z m 0,-0.00989 q 0.00644,0 0.011889,-0.00222 0.00556,-0.00222 0.00956,-0.00622 0.00411,-0.00411 0.00633,-0.00956 0.00233,-0.00544 0.00233,-0.011889 0,-0.00644 -0.00233,-0.011889 -0.00222,-0.00544 -0.00633,-0.00944 -0.004,-0.00411 -0.00956,-0.00633 -0.00544,-0.00222 -0.011889,-0.00222 -0.00656,0 -0.012111,0.00222 -0.00544,0.00222 -0.00956,0.00633 -0.00411,0.004 -0.00644,0.00944 -0.00222,0.00544 -0.00222,0.011889 0,0.00644 0.00222,0.011889 0.00233,0.00544 0.00644,0.00956 0.00411,0.004 0.00956,0.00622 0.00556,0.00222 0.012111,0.00222 z m 0.088153,0.00989 q -0.015333,0 -0.024111,-0.00878 -0.00878,-0.00878 -0.00878,-0.025667 v -0.044222 h 0.011111 v 0.043778 q 0,0.013 0.00567,0.019 0.00578,0.006 0.016222,0.006 0.010556,0 0.016222,-0.006 0.00578,-0.006 0.00578,-0.019 v -0.043778 h 0.010778 v 0.044222 q 0,0.016889 -0.00878,0.025667 -0.00867,0.00878 -0.024112,0.00878 z m 0.053375,-8.889e-4 v -0.077778 h 0.032778 q 0.012444,0 0.021889,0.00489 0.00956,0.00489 0.014778,0.013667 0.00533,0.00878 0.00533,0.020333 0,0.011556 -0.00533,0.020333 -0.00522,0.00878 -0.014778,0.013667 -0.00944,0.00489 -0.021889,0.00489 z m 0.011111,-0.00967 h 0.021 q 0.00967,0 0.016667,-0.00367 0.00711,-0.00367 0.011,-0.010222 0.00389,-0.00667 0.00389,-0.015333 0,-0.00878 -0.00389,-0.015333 -0.00389,-0.00656 -0.011,-0.010222 -0.007,-0.00367 -0.016667,-0.00367 h -0.021 z m 0.105972,0.00967 v -0.077778 h 0.054889 v 0.00967 H 1.580764 v 0.068111 z m 0.01,-0.031444 v -0.00956 h 0.040111 v 0.00956 z m 0.092486,0.032333 q -0.00889,0 -0.016556,-0.003 -0.00756,-0.003 -0.013111,-0.00833 -0.00556,-0.00544 -0.00867,-0.012667 -0.00311,-0.00722 -0.00311,-0.015778 0,-0.00856 0.00311,-0.015778 0.00311,-0.00722 0.00867,-0.012556 0.00556,-0.00544 0.013111,-0.00844 0.00756,-0.003 0.016556,-0.003 0.00889,0 0.016333,0.003 0.00756,0.00289 0.013111,0.00833 0.00567,0.00533 0.00867,0.012555 0.00311,0.00722 0.00311,0.015889 0,0.00867 -0.00311,0.015889 -0.003,0.00722 -0.00867,0.012667 -0.00556,0.00533 -0.013111,0.00833 -0.00744,0.00289 -0.016333,0.00289 z m 0,-0.00989 q 0.00644,0 0.011889,-0.00222 0.00556,-0.00222 0.00956,-0.00622 0.00411,-0.00411 0.00633,-0.00956 0.00233,-0.00544 0.00233,-0.011889 0,-0.00644 -0.00233,-0.011889 -0.00222,-0.00544 -0.00633,-0.00944 -0.004,-0.00411 -0.00956,-0.00633 -0.00544,-0.00222 -0.011889,-0.00222 -0.00656,0 -0.012111,0.00222 -0.00544,0.00222 -0.00956,0.00633 -0.00411,0.004 -0.00644,0.00944 -0.00222,0.00544 -0.00222,0.011889 0,0.00644 0.00222,0.011889 0.00233,0.00544 0.00644,0.00956 0.00411,0.004 0.00956,0.00622 0.00556,0.00222 0.012111,0.00222 z m 0.05593,0.009 v -0.077778 h 0.030333 q 0.015111,0 0.023778,0.00722 0.00867,0.00711 0.00867,0.019889 0,0.00844 -0.00389,0.014555 -0.00389,0.006 -0.011111,0.00922 -0.00722,0.00322 -0.017444,0.00322 h -0.024222 l 0.005,-0.00511 v 0.028778 z m 0.052,0 -0.019778,-0.028222 h 0.011889 l 0.02,0.028222 z m -0.040889,-0.027667 -0.005,-0.00544 h 0.023889 q 0.010667,0 0.016111,-0.00456 0.00556,-0.00467 0.00556,-0.013 0,-0.00833 -0.00556,-0.012889 -0.00544,-0.00456 -0.016111,-0.00456 h -0.023889 l 0.005,-0.00556 z m 0.130083,0.028556 q -0.00889,0 -0.016555,-0.003 -0.00756,-0.003 -0.013111,-0.00833 -0.00556,-0.00544 -0.00867,-0.012667 -0.00311,-0.00722 -0.00311,-0.015778 0,-0.00856 0.00311,-0.015778 0.00311,-0.00722 0.00867,-0.012556 0.00556,-0.00544 0.013111,-0.00844 0.00756,-0.003 0.016555,-0.003 0.00889,0 0.016333,0.003 0.00756,0.00289 0.013111,0.00833 0.00567,0.00533 0.00867,0.012555 0.00311,0.00722 0.00311,0.015889 0,0.00867 -0.00311,0.015889 -0.003,0.00722 -0.00867,0.012667 -0.00556,0.00533 -0.013111,0.00833 -0.00744,0.00289 -0.016333,0.00289 z m 0,-0.00989 q 0.00644,0 0.011889,-0.00222 0.00556,-0.00222 0.00956,-0.00622 0.00411,-0.00411 0.00633,-0.00956 0.00233,-0.00544 0.00233,-0.011889 0,-0.00644 -0.00233,-0.011889 -0.00222,-0.00544 -0.00633,-0.00944 -0.004,-0.00411 -0.00956,-0.00633 -0.00544,-0.00222 -0.011889,-0.00222 -0.00656,0 -0.012111,0.00222 -0.00544,0.00222 -0.00956,0.00633 -0.00411,0.004 -0.00644,0.00944 -0.00222,0.00544 -0.00222,0.011889 0,0.00644 0.00222,0.011889 0.00233,0.00544 0.00644,0.00956 0.00411,0.004 0.00956,0.00622 0.00556,0.00222 0.012111,0.00222 z m 0.075931,0.009 -0.034222,-0.077778 h 0.012 l 0.031445,0.071778 h -0.00689 l 0.031667,-0.071778 h 0.011111 l -0.034111,0.077778 z m 0.052708,0 v -0.077778 h 0.054889 v 0.00967 h -0.043778 v 0.058444 h 0.045333 v 0.00967 z m 0.010111,-0.034778 v -0.00944 h 0.04 v 0.00944 z m 0.062042,0.034778 v -0.077778 h 0.030333 q 0.015111,0 0.023778,0.00722 0.00867,0.00711 0.00867,0.019889 0,0.00844 -0.00389,0.014555 -0.00389,0.006 -0.011111,0.00922 -0.00722,0.00322 -0.017444,0.00322 h -0.024222 l 0.005,-0.00511 v 0.028778 z m 0.052,0 -0.019778,-0.028222 h 0.011889 l 0.02,0.028222 z m -0.040889,-0.027667 -0.005,-0.00544 h 0.023889 q 0.010667,0 0.016111,-0.00456 0.00556,-0.00467 0.00556,-0.013 0,-0.00833 -0.00556,-0.012889 -0.00544,-0.00456 -0.016111,-0.00456 h -0.023889 l 0.005,-0.00556 z m 0.087528,0.00856 v -0.00778 l 0.039778,-0.050889 h 0.012 l -0.039444,0.050889 -0.00567,-0.00178 h 0.062111 v 0.00956 z m 0.043222,0.019111 v -0.019111 l 3.333e-4,-0.00956 v -0.016889 h 0.010444 v 0.045556 z m 0.054931,8.889e-4 q -0.00822,0 -0.016,-0.00256 -0.00767,-0.00256 -0.012555,-0.00689 l 0.00511,-0.00878 q 0.00389,0.00367 0.010111,0.006 0.00622,0.00233 0.013222,0.00233 0.00889,0 0.013667,-0.00378 0.00478,-0.00378 0.00478,-0.010111 0,-0.00433 -0.00211,-0.00756 -0.00211,-0.00322 -0.00733,-0.00489 -0.00511,-0.00178 -0.014111,-0.00178 h -0.017667 l 0.00411,-0.040667 h 0.043889 v 0.00967 H 2.25218 l 0.00578,-0.00544 -0.00322,0.032111 -0.00578,-0.00533 h 0.015 q 0.011667,0 0.018778,0.003 0.00711,0.003 0.010333,0.00833 0.00322,0.00522 0.00322,0.012111 0,0.00667 -0.00322,0.012222 -0.00322,0.00544 -0.00978,0.00878 -0.00644,0.00322 -0.016444,0.00322 z m 0.089083,-8.889e-4 v -0.02978 l 0.00256,0.00689 -0.033444,-0.054889 h 0.011889 l 0.028111,0.046333 h -0.00644 l 0.028222,-0.046333 h 0.011 l -0.033333,0.054889 0.00244,-0.00689 V 1.23491 Z m 0.049153,0 v -0.077778 h 0.054889 v 0.00967 h -0.043778 v 0.058444 h 0.045333 v 0.00967 z m 0.010111,-0.034778 v -0.00944 h 0.04 v 0.00944 z m 0.050264,0.034778 0.035222,-0.077778 h 0.011 l 0.035333,0.077778 h -0.011667 l -0.031444,-0.071556 h 0.00444 l -0.031444,0.071556 z m 0.015,-0.019445 0.003,-0.00889 h 0.043778 l 0.00322,0.00889 z m 0.075819,0.019445 v -0.07778 H 2.58661 q 0.015111,0 0.023778,0.00722 0.00867,0.00711 0.00867,0.019889 0,0.00844 -0.00389,0.014555 -0.00389,0.006 -0.011111,0.00922 -0.00722,0.00322 -0.017445,0.00322 H 2.56239 l 0.005,-0.00511 v 0.028778 z m 0.052,0 -0.019778,-0.028222 h 0.011889 l 0.02,0.028222 z m -0.040889,-0.027667 -0.005,-0.00544 h 0.023889 q 0.010667,0 0.016111,-0.00456 0.00556,-0.00467 0.00556,-0.013 0,-0.00833 -0.00556,-0.012889 -0.00544,-0.00456 -0.016111,-0.00456 h -0.023889 l 0.005,-0.00556 z m 0.090041,0.028556 q -0.00889,0 -0.017,-0.00267 -0.00811,-0.00278 -0.012778,-0.00711 l 0.00411,-0.00867 q 0.00444,0.00389 0.011333,0.00644 0.00689,0.00256 0.014333,0.00256 0.00678,0 0.011,-0.00156 0.00422,-0.00156 0.00622,-0.00422 0.002,-0.00278 0.002,-0.00622 0,-0.004 -0.00267,-0.00644 -0.00256,-0.00244 -0.00678,-0.00389 -0.00411,-0.00156 -0.00911,-0.00267 -0.005,-0.00111 -0.010111,-0.00256 -0.005,-0.00156 -0.00922,-0.00389 -0.00411,-0.00233 -0.00667,-0.00622 -0.00256,-0.004 -0.00256,-0.010222 0,-0.006 0.00311,-0.011 0.00322,-0.00511 0.00978,-0.00811 0.00667,-0.00311 0.016889,-0.00311 0.00678,0 0.013444,0.00178 0.00667,0.00178 0.011556,0.00511 l -0.00367,0.00889 q -0.005,-0.00333 -0.010556,-0.00478 -0.00556,-0.00156 -0.010778,-0.00156 -0.00656,0 -0.010778,0.00167 -0.00422,0.00167 -0.00622,0.00444 -0.00189,0.00278 -0.00189,0.00622 0,0.00411 0.00256,0.00656 0.00267,0.00244 0.00678,0.00389 0.00422,0.00144 0.00922,0.00267 0.005,0.00111 0.01,0.00256 0.00511,0.00144 0.00922,0.00378 0.00422,0.00233 0.00678,0.00622 0.00256,0.00389 0.00256,0.01 0,0.00589 -0.00322,0.011 -0.00322,0.005 -0.01,0.00811 -0.00667,0.003 -0.016889,0.003 z"
     id="text20"
     aria-label="DFW PROUD FOR OVER 45 YEARS" /><path
     d="m 1.0306473,1.4395109 q -0.00889,0 -0.016444,-0.00289 -0.00744,-0.003 -0.013,-0.00833 -0.005444,-0.00544 -0.008556,-0.012667 -0.003111,-0.00722 -0.003111,-0.015889 0,-0.00867 0.003111,-0.015889 0.003111,-0.00722 0.008667,-0.012556 0.00556,-0.00544 0.013,-0.00833 0.00756,-0.003 0.016444,-0.003 0.009,0 0.016556,0.00311 0.00767,0.003 0.013,0.009 l -0.00722,0.007 q -0.00444,-0.00467 -0.01,-0.00689 -0.00556,-0.00233 -0.011889,-0.00233 -0.00656,0 -0.012222,0.00222 -0.00556,0.00222 -0.00967,0.00622 -0.00411,0.004 -0.00644,0.00956 -0.00222,0.00544 -0.00222,0.011889 0,0.00644 0.00222,0.012 0.00233,0.00544 0.00644,0.00944 0.00411,0.004 0.00967,0.00622 0.00567,0.00222 0.012222,0.00222 0.00633,0 0.011889,-0.00222 0.00556,-0.00233 0.01,-0.00711 l 0.00722,0.007 q -0.00533,0.006 -0.013,0.00911 -0.00756,0.00311 -0.016667,0.00311 z m 0.063375,-2.222e-4 q -0.00889,0 -0.015778,-0.00389 -0.00689,-0.00389 -0.010889,-0.010667 -0.004,-0.00689 -0.004,-0.015556 0,-0.00878 0.004,-0.015556 0.004,-0.00678 0.010889,-0.010555 0.00689,-0.00389 0.015778,-0.00389 0.00878,0 0.015667,0.00389 0.007,0.00378 0.010889,0.010555 0.004,0.00667 0.004,0.015556 0,0.00878 -0.004,0.015556 -0.00389,0.00678 -0.010889,0.010667 -0.00689,0.00389 -0.015667,0.00389 z m 0,-0.00933 q 0.00567,0 0.010111,-0.00256 0.00456,-0.00256 0.00711,-0.00722 0.00256,-0.00478 0.00256,-0.011 0,-0.00633 -0.00256,-0.010889 -0.00256,-0.00467 -0.00711,-0.00722 -0.00444,-0.00256 -0.010111,-0.00256 -0.00567,0 -0.010111,0.00256 -0.00444,0.00256 -0.00711,0.00722 -0.00267,0.00456 -0.00267,0.010889 0,0.00622 0.00267,0.011 0.00267,0.00467 0.00711,0.00722 0.00444,0.00256 0.010111,0.00256 z m 0.043042,0.00867 v -0.058889 h 0.010222 v 0.015667 l -0.00167,-0.004 q 0.00278,-0.00578 0.00856,-0.009 0.00578,-0.00322 0.013444,-0.00322 0.00844,0 0.014556,0.00422 0.00611,0.00411 0.008,0.012556 l -0.00433,-0.00178 q 0.00267,-0.00678 0.00933,-0.010889 0.00667,-0.00411 0.015555,-0.00411 0.00711,0 0.012556,0.00278 0.00544,0.00278 0.00844,0.00844 0.00311,0.00567 0.00311,0.014333 v 0.033889 h -0.010667 v -0.032667 q 0,-0.00856 -0.004,-0.012889 -0.004,-0.00433 -0.011222,-0.00433 -0.00533,0 -0.00933,0.00222 -0.004,0.00222 -0.00622,0.00656 -0.00211,0.00433 -0.00211,0.010778 v 0.030333 h -0.010667 v -0.032667 q 0,-0.00856 -0.004,-0.012889 -0.00389,-0.00433 -0.011222,-0.00433 -0.00522,0 -0.00922,0.00222 -0.004,0.00222 -0.00622,0.00656 -0.00222,0.00433 -0.00222,0.010778 v 0.030333 z m 0.1151526,0 v -0.058889 h 0.010222 v 0.015667 l -0.00167,-0.004 q 0.00278,-0.00578 0.00856,-0.009 0.00578,-0.00322 0.013444,-0.00322 0.00844,0 0.014556,0.00422 0.00611,0.00411 0.008,0.012556 l -0.00433,-0.00178 q 0.00267,-0.00678 0.00933,-0.010889 0.00667,-0.00411 0.015556,-0.00411 0.00711,0 0.012555,0.00278 0.00544,0.00278 0.00844,0.00844 0.00311,0.00567 0.00311,0.014333 v 0.033889 h -0.010667 v -0.032667 q 0,-0.00856 -0.004,-0.012889 -0.004,-0.00433 -0.011222,-0.00433 -0.00533,0 -0.00933,0.00222 -0.004,0.00222 -0.00622,0.00656 -0.00211,0.00433 -0.00211,0.010778 V 1.438622 H 1.295772 V 1.405955 q 0,-0.00856 -0.004,-0.012889 -0.00389,-0.00433 -0.011222,-0.00433 -0.00522,0 -0.00922,0.00222 -0.004,0.00222 -0.00622,0.00656 -0.00222,0.00433 -0.00222,0.010778 v 0.030333 z m 0.1413748,6.667e-4 q -0.00944,0 -0.016667,-0.00389 -0.00711,-0.00389 -0.011111,-0.010667 -0.00389,-0.00678 -0.00389,-0.015556 0,-0.00878 0.00378,-0.015556 0.00389,-0.00678 0.010555,-0.010555 0.00678,-0.00389 0.015222,-0.00389 0.00856,0 0.015111,0.00378 0.00656,0.00378 0.010222,0.010667 0.00378,0.00678 0.00378,0.015889 0,6.667e-4 -1.111e-4,0.00156 0,8.889e-4 -1.111e-4,0.00167 h -0.050111 v -0.00767 h 0.044556 l -0.00433,0.00267 q 1.111e-4,-0.00567 -0.00233,-0.010111 -0.00244,-0.00444 -0.00678,-0.00689 -0.00422,-0.00256 -0.00989,-0.00256 -0.00556,0 -0.00989,0.00256 -0.00433,0.00244 -0.00678,0.007 -0.00244,0.00444 -0.00244,0.010222 v 0.00178 q 0,0.00589 0.00267,0.010556 0.00278,0.00456 0.00767,0.00711 0.00489,0.00256 0.011222,0.00256 0.00522,0 0.00944,-0.00178 0.00433,-0.00178 0.00756,-0.00533 l 0.00589,0.00689 q -0.004,0.00467 -0.01,0.00711 -0.00589,0.00244 -0.013222,0.00244 z m 0.039486,-6.667e-4 v -0.058889 h 0.010222 v 0.016 l -0.001,-0.004 q 0.00244,-0.00611 0.00822,-0.00933 0.00578,-0.00322 0.014222,-0.00322 v 0.010333 q -6.667e-4,-1.111e-4 -0.00133,-1.111e-4 -5.555e-4,0 -0.00111,0 -0.00856,0 -0.013556,0.00511 -0.005,0.00511 -0.005,0.014778 v 0.029333 z m 0.067597,6.667e-4 q -0.009,0 -0.016111,-0.00389 -0.007,-0.00389 -0.011,-0.010667 -0.004,-0.00678 -0.004,-0.015556 0,-0.00878 0.004,-0.015556 0.004,-0.00678 0.011,-0.010555 0.00711,-0.00389 0.016111,-0.00389 0.008,0 0.014222,0.00322 0.00633,0.00311 0.00978,0.00933 l -0.00811,0.00522 q -0.00289,-0.00433 -0.00711,-0.00633 -0.00411,-0.00211 -0.00889,-0.00211 -0.00578,0 -0.010333,0.00256 -0.00456,0.00256 -0.00722,0.00722 -0.00267,0.00456 -0.00267,0.010889 0,0.00633 0.00267,0.011 0.00267,0.00467 0.00722,0.00722 0.00456,0.00256 0.010333,0.00256 0.00478,0 0.00889,-0.002 0.00422,-0.00211 0.00711,-0.00644 l 0.00811,0.00511 q -0.00344,0.00611 -0.00978,0.00944 -0.00622,0.00322 -0.014222,0.00322 z m 0.034708,-6.667e-4 v -0.058889 h 0.010667 v 0.058889 z m 0.00533,-0.070222 q -0.00311,0 -0.00522,-0.002 -0.002,-0.002 -0.002,-0.00489 0,-0.003 0.002,-0.005 0.00211,-0.002 0.00522,-0.002 0.00311,0 0.00511,0.002 0.00211,0.00189 0.00211,0.00478 0,0.003 -0.002,0.00511 -0.002,0.002 -0.00522,0.002 z m 0.059931,0.070222 v -0.012444 l -5.556e-4,-0.00233 V 1.402622 q 0,-0.00678 -0.004,-0.010444 -0.00389,-0.00378 -0.011778,-0.00378 -0.00522,0 -0.010222,0.00178 -0.005,0.00167 -0.00844,0.00456 l -0.00444,-0.008 q 0.00456,-0.00367 0.010889,-0.00556 0.00644,-0.002 0.013444,-0.002 0.012111,0 0.018667,0.00589 0.00656,0.00589 0.00656,0.018 v 0.035556 z m -0.019333,6.667e-4 q -0.00656,0 -0.011556,-0.00222 -0.00489,-0.00222 -0.00756,-0.00611 -0.00267,-0.004 -0.00267,-0.009 0,-0.00478 0.00222,-0.00867 0.00233,-0.00389 0.00744,-0.00622 0.00522,-0.00233 0.014,-0.00233 h 0.018667 v 0.00767 h -0.018222 q -0.008,0 -0.010778,0.00267 -0.00278,0.00267 -0.00278,0.00644 0,0.00433 0.00344,0.007 0.00344,0.00256 0.00956,0.00256 0.006,0 0.010444,-0.00267 0.00456,-0.00267 0.00656,-0.00778 l 0.00211,0.00733 q -0.00211,0.00522 -0.00744,0.00833 -0.00533,0.003 -0.013445,0.003 z m 0.04693,-6.667e-4 v -0.082444 h 0.010667 v 0.082444 z m 0.092861,0 v -0.012444 l -5.556e-4,-0.00233 V 1.402622 q 0,-0.00678 -0.004,-0.010444 -0.00389,-0.00378 -0.011778,-0.00378 -0.00522,0 -0.010222,0.00178 -0.005,0.00167 -0.00844,0.00456 l -0.00444,-0.008 q 0.00456,-0.00367 0.010889,-0.00556 0.00644,-0.002 0.013444,-0.002 0.012111,0 0.018667,0.00589 0.00656,0.00589 0.00656,0.018 v 0.035556 z m -0.019333,6.667e-4 q -0.00656,0 -0.011556,-0.00222 -0.00489,-0.00222 -0.00756,-0.00611 -0.00267,-0.004 -0.00267,-0.009 0,-0.00478 0.00222,-0.00867 0.00233,-0.00389 0.00744,-0.00622 0.00522,-0.00233 0.014,-0.00233 h 0.018667 v 0.00767 h -0.018222 q -0.008,0 -0.010778,0.00267 -0.00278,0.00267 -0.00278,0.00644 0,0.00433 0.00344,0.007 0.00344,0.00256 0.00956,0.00256 0.006,0 0.010444,-0.00267 0.00456,-0.00267 0.00656,-0.00778 l 0.00211,0.00733 q -0.00211,0.00522 -0.00744,0.00833 -0.00533,0.003 -0.013444,0.003 z m 0.04693,-6.667e-4 v -0.058889 h 0.010222 v 0.015889 l -0.00167,-0.00422 q 0.00289,-0.00578 0.00889,-0.009 0.006,-0.00322 0.014,-0.00322 0.00722,0 0.012667,0.00278 0.00556,0.00278 0.00867,0.00844 0.00311,0.00567 0.00311,0.014333 v 0.033889 h -0.010667 v -0.032667 q 0,-0.00856 -0.00422,-0.012889 -0.00411,-0.00433 -0.011667,-0.00433 -0.00567,0 -0.00989,0.00222 -0.00422,0.00222 -0.00656,0.00656 -0.00222,0.00433 -0.00222,0.010778 v 0.030333 z m 0.097708,6.667e-4 q -0.00856,0 -0.015333,-0.00378 -0.00667,-0.00378 -0.010555,-0.010556 -0.00389,-0.00678 -0.00389,-0.015778 0,-0.009 0.00389,-0.015667 0.00389,-0.00678 0.010555,-0.010556 0.00678,-0.00378 0.015333,-0.00378 0.00744,0 0.013445,0.00333 0.006,0.00333 0.00956,0.01 0.00367,0.00667 0.00367,0.016667 0,0.01 -0.00356,0.016667 -0.00344,0.00667 -0.00944,0.010111 -0.006,0.00333 -0.013667,0.00333 z m 8.889e-4,-0.00933 q 0.00556,0 0.01,-0.00256 0.00456,-0.00256 0.00711,-0.00722 0.00267,-0.00478 0.00267,-0.011 0,-0.00633 -0.00267,-0.010889 -0.00256,-0.00467 -0.00711,-0.00722 -0.00444,-0.00256 -0.01,-0.00256 -0.00567,0 -0.010111,0.00256 -0.00444,0.00256 -0.00711,0.00722 -0.00267,0.00456 -0.00267,0.010889 0,0.00622 0.00267,0.011 0.00267,0.00467 0.00711,0.00722 0.00444,0.00256 0.010111,0.00256 z m 0.020111,0.00867 v -0.015889 l 6.667e-4,-0.013667 -0.00111,-0.013667 v -0.039222 h 0.010667 v 0.082444 z m 0.057305,0 v -0.077778 h 0.030333 q 0.015111,0 0.023778,0.00722 0.00867,0.00711 0.00867,0.019889 0,0.00844 -0.00389,0.014555 -0.00389,0.006 -0.011111,0.00922 -0.00722,0.00322 -0.017444,0.00322 h -0.024222 l 0.005,-0.00511 v 0.028778 z m 0.052,0 -0.019778,-0.028222 h 0.011889 l 0.02,0.028222 z m -0.040889,-0.027667 -0.005,-0.00544 h 0.023889 q 0.010667,0 0.016111,-0.00456 0.00556,-0.00467 0.00556,-0.013 0,-0.00833 -0.00556,-0.012889 -0.00544,-0.00456 -0.016111,-0.00456 h -0.023889 l 0.005,-0.00556 z m 0.092041,0.028333 q -0.00944,0 -0.016667,-0.00389 -0.00711,-0.00389 -0.011111,-0.010667 -0.00389,-0.00678 -0.00389,-0.015556 0,-0.00878 0.00378,-0.015556 0.00389,-0.00678 0.010556,-0.010555 0.00678,-0.00389 0.015222,-0.00389 0.00856,0 0.015111,0.00378 0.00656,0.00378 0.010222,0.010667 0.00378,0.00678 0.00378,0.015889 0,6.667e-4 -1.111e-4,0.00156 0,8.889e-4 -1.111e-4,0.00167 h -0.050111 v -0.00767 h 0.044555 l -0.00433,0.00267 q 1.111e-4,-0.00567 -0.00233,-0.010111 -0.00244,-0.00444 -0.00678,-0.00689 -0.00422,-0.00256 -0.00989,-0.00256 -0.00556,0 -0.00989,0.00256 -0.00433,0.00244 -0.00678,0.007 -0.00244,0.00444 -0.00244,0.010222 v 0.00178 q 0,0.00589 0.00267,0.010556 0.00278,0.00456 0.00767,0.00711 0.00489,0.00256 0.011222,0.00256 0.00522,0 0.00944,-0.00178 0.00433,-0.00178 0.00756,-0.00533 l 0.00589,0.00689 q -0.004,0.00467 -0.01,0.00711 -0.00589,0.00244 -0.013222,0.00244 z m 0.056375,0 q -0.00733,0 -0.014,-0.002 -0.00656,-0.002 -0.010333,-0.00489 l 0.00444,-0.00844 q 0.00378,0.00256 0.00933,0.00433 0.00556,0.00178 0.011333,0.00178 0.00744,0 0.010667,-0.00211 0.00333,-0.00211 0.00333,-0.00589 0,-0.00278 -0.002,-0.00433 -0.002,-0.00156 -0.00533,-0.00233 -0.00322,-7.778e-4 -0.00722,-0.00133 -0.004,-6.667e-4 -0.008,-0.00156 -0.004,-10e-4 -0.00733,-0.00267 -0.00333,-0.00178 -0.00533,-0.00478 -0.002,-0.00311 -0.002,-0.00822 0,-0.00533 0.003,-0.00933 0.003,-0.004 0.00844,-0.00611 0.00556,-0.00222 0.013111,-0.00222 0.00578,0 0.011667,0.00144 0.006,0.00133 0.00978,0.00389 l -0.00456,0.00844 q -0.004,-0.00267 -0.00833,-0.00367 -0.00433,-10e-4 -0.00867,-10e-4 -0.007,0 -0.010444,0.00233 -0.00344,0.00222 -0.00344,0.00578 0,0.003 0.002,0.00467 0.00211,0.00156 0.00533,0.00244 0.00333,8.889e-4 0.00733,0.00156 0.004,5.555e-4 0.008,0.00156 0.004,8.889e-4 0.00722,0.00256 0.00333,0.00167 0.00533,0.00467 0.00211,0.003 0.00211,0.008 0,0.00533 -0.00311,0.00922 -0.00311,0.00389 -0.00878,0.00611 -0.00567,0.00211 -0.013556,0.00211 z m 0.036486,-6.667e-4 v -0.058889 h 0.010667 v 0.058889 z m 0.00533,-0.070222 q -0.00311,0 -0.00522,-0.002 -0.002,-0.002 -0.002,-0.00489 0,-0.003 0.002,-0.005 0.00211,-0.002 0.00522,-0.002 0.00311,0 0.00511,0.002 0.00211,0.00189 0.00211,0.00478 0,0.003 -0.002,0.00511 -0.002,0.002 -0.00522,0.002 z m 0.047708,0.070889 q -0.00856,0 -0.015333,-0.00378 -0.00667,-0.00378 -0.010556,-0.010556 -0.00389,-0.00678 -0.00389,-0.015778 0,-0.009 0.00389,-0.015667 0.00389,-0.00678 0.010556,-0.010556 0.00678,-0.00378 0.015333,-0.00378 0.00744,0 0.013444,0.00333 0.006,0.00333 0.00956,0.01 0.00367,0.00667 0.00367,0.016667 0,0.01 -0.00356,0.016667 -0.00344,0.00667 -0.00944,0.010111 -0.006,0.00333 -0.013667,0.00333 z m 8.889e-4,-0.00933 q 0.00556,0 0.01,-0.00256 0.00456,-0.00256 0.00711,-0.00722 0.00267,-0.00478 0.00267,-0.011 0,-0.00633 -0.00267,-0.010889 -0.00256,-0.00467 -0.00711,-0.00722 -0.00444,-0.00256 -0.01,-0.00256 -0.00567,0 -0.010111,0.00256 -0.00444,0.00256 -0.00711,0.00722 -0.00267,0.00456 -0.00267,0.010889 0,0.00622 0.00267,0.011 0.00267,0.00467 0.00711,0.00722 0.00444,0.00256 0.010111,0.00256 z m 0.020111,0.00867 v -0.015889 l 6.666e-4,-0.013667 -0.00111,-0.013667 v -0.039222 h 0.010667 v 0.082444 z m 0.054375,6.667e-4 q -0.00944,0 -0.016667,-0.00389 -0.00711,-0.00389 -0.011111,-0.010667 -0.00389,-0.00678 -0.00389,-0.015556 0,-0.00878 0.00378,-0.015556 0.00389,-0.00678 0.010556,-0.010555 0.00678,-0.00389 0.015222,-0.00389 0.00856,0 0.015111,0.00378 0.00656,0.00378 0.010222,0.010667 0.00378,0.00678 0.00378,0.015889 0,6.667e-4 -1.111e-4,0.00156 0,8.889e-4 -1.111e-4,0.00167 h -0.050111 v -0.00767 h 0.044556 l -0.00433,0.00267 q 1.111e-4,-0.00567 -0.00233,-0.010111 -0.00244,-0.00444 -0.00678,-0.00689 -0.00422,-0.00256 -0.00989,-0.00256 -0.00556,0 -0.00989,0.00256 -0.00433,0.00244 -0.00678,0.007 -0.00244,0.00444 -0.00244,0.010222 v 0.00178 q 0,0.00589 0.00267,0.010556 0.00278,0.00456 0.00767,0.00711 0.00489,0.00256 0.011222,0.00256 0.00522,0 0.00944,-0.00178 0.00433,-0.00178 0.00756,-0.00533 l 0.00589,0.00689 q -0.004,0.00467 -0.01,0.00711 -0.00589,0.00244 -0.013222,0.00244 z m 0.039486,-6.667e-4 v -0.058889 h 0.010222 v 0.015889 l -0.00167,-0.00422 q 0.00289,-0.00578 0.00889,-0.009 0.006,-0.00322 0.014,-0.00322 0.00722,0 0.012667,0.00278 0.00556,0.00278 0.00867,0.00844 0.00311,0.00567 0.00311,0.014333 v 0.033889 h -0.010667 v -0.032667 q 0,-0.00856 -0.00422,-0.012889 -0.00411,-0.00433 -0.011667,-0.00433 -0.00567,0 -0.00989,0.00222 -0.00422,0.00222 -0.00656,0.00656 -0.00222,0.00433 -0.00222,0.010778 v 0.030333 z m 0.093597,6.667e-4 q -0.00889,0 -0.013778,-0.00478 -0.00489,-0.00478 -0.00489,-0.013667 v -0.054 h 0.010667 v 0.053556 q 0,0.00478 0.00233,0.00733 0.00244,0.00256 0.00689,0.00256 0.005,0 0.00833,-0.00278 l 0.00333,0.00767 q -0.00244,0.00211 -0.00589,0.00311 -0.00333,10e-4 -0.007,10e-4 z m -0.028667,-0.050778 v -0.00878 h 0.037556 v 0.00878 z m 0.052153,0.050111 v -0.058889 h 0.010667 v 0.058889 z m 0.00533,-0.070222 q -0.00311,0 -0.00522,-0.002 -0.002,-0.002 -0.002,-0.00489 0,-0.003 0.002,-0.005 0.00211,-0.002 0.00522,-0.002 0.00311,0 0.00511,0.002 0.00211,0.00189 0.00211,0.00478 0,0.003 -0.002,0.00511 -0.002,0.002 -0.00522,0.002 z m 0.05993,0.070222 V 1.4261974 L 2.470411,1.4238674 V 1.402622 q 0,-0.00678 -0.004,-0.010444 -0.00389,-0.00378 -0.011778,-0.00378 -0.00522,0 -0.010222,0.00178 -0.005,0.00167 -0.00844,0.00456 l -0.00444,-0.008 q 0.00456,-0.00367 0.010889,-0.00556 0.00644,-0.002 0.013444,-0.002 0.012111,0 0.018667,0.00589 0.00656,0.00589 0.00656,0.018 v 0.035556 z m -0.019333,6.667e-4 q -0.00656,0 -0.011556,-0.00222 -0.00489,-0.00222 -0.00756,-0.00611 -0.00267,-0.004 -0.00267,-0.009 0,-0.00478 0.00222,-0.00867 0.00233,-0.00389 0.00744,-0.00622 0.00522,-0.00233 0.014,-0.00233 H 2.4722 v 0.00767 H 2.453978 q -0.008,0 -0.010778,0.00267 -0.00278,0.00267 -0.00278,0.00644 0,0.00433 0.00344,0.007 0.00344,0.00256 0.00956,0.00256 0.006,0 0.010444,-0.00267 0.00456,-0.00267 0.00656,-0.00778 l 0.00211,0.00733 q -0.00211,0.00522 -0.00744,0.00833 -0.00533,0.003 -0.013444,0.003 z m 0.04693,-6.667e-4 v -0.082444 h 0.010667 v 0.082444 z"
     id="text25"
     style="font-weight:500;font-size:0.111111px;line-height:1.6;font-family:Montserrat;-inkscape-font-specification:'Montserrat Medium';text-align:center;letter-spacing:-0.00229167px;word-spacing:0px;text-anchor:middle;stroke-width:0;stroke-linecap:round;stroke-linejoin:round;paint-order:stroke fill markers"
     aria-label="Commercial and Residential" /></svg>
