<?xml version="1.0" encoding="UTF-8" standalone="no"?>
<!-- Created with Inkscape (http://www.inkscape.org/) -->

<svg
   width="88.899994mm"
   height="50.799999mm"
   viewBox="0 0 3.4999998 2"
   id="SVGRoot"
   version="1.1"
   xml:space="preserve"
   xmlns="http://www.w3.org/2000/svg"
   xmlns:svg="http://www.w3.org/2000/svg"><defs
     id="defs1"><rect
       x="33.057243"
       y="137.70905"
       width="102.8478"
       height="28.461044"
       id="rect17" /></defs><text
     xml:space="preserve"
     transform="matrix(0.01042495,0,0,0.01041667,-0.09700333,0.13957999)"
     id="text17"
     style="font-style:normal;font-variant:normal;font-weight:normal;font-stretch:normal;font-size:10.6667px;line-height:0.8;font-family:Sans;-inkscape-font-specification:Sans;text-align:start;letter-spacing:-1px;word-spacing:0px;writing-mode:lr-tb;direction:ltr;white-space:pre;shape-inside:url(#rect17);display:inline;fill:#000000;fill-opacity:1;stroke:none;stroke-width:0;stroke-linecap:round;stroke-linejoin:round;stroke-dasharray:none;stroke-opacity:1;paint-order:stroke fill markers"><tspan
       x="33.056641"
       y="145.04053"
       id="tspan1">Jim Mackey
</tspan><tspan
       x="33.056641"
       y="153.57389"
       id="tspan5"><tspan
         style="font-size:6.66667px;letter-spacing:-0.219913px;display:inline"
         id="tspan4">CEO/Founder
</tspan></tspan><tspan
       x="33.056641"
       y="162.10724"
       id="tspan7"><tspan
         style="font-size:6.66667px;letter-spacing:-0.219913px;display:inline"
         id="tspan6">jim@jmackeyconstruction.com</tspan></tspan></text><g
     id="layer1"
     style="display:inline"><g
       style="fill:none;stroke:#000000;stroke-width:2.56041;stroke-dasharray:none;stroke-opacity:1"
       id="g1"
       transform="matrix(0.00203418,0,0,0.00203418,1.2512768,0.38095767)"><path
         d="M 486.34326,301.31348 H 295.91689 c -2.20899,0 -4,-1.79102 -4,-4 V 269.73242 H 191.05653 c -2.20898,0 -4,-1.79101 -4,-4 V 149.29004 L 78.731343,200.84277 v 96.54881 c 0,2.20899 -1.791015,4 -4,4 H 4 c -2.2089844,0 -4,-1.79101 -4,-4 0,-2.20898 1.7910156,-4 4,-4 h 66.731343 v -95.07517 c 0,-1.54297 0.887696,-2.94922 2.28125,-3.61133 L 187.05653,140.43018 V 4 c 0,-2.2089844 1.79102,-4 4,-4 h 103.10645 c 2.20898,0 4,1.7910156 4,4 v 89.887695 c 0,1.542969 -0.8877,2.948731 -2.28125,3.611817 l -100.8252,47.983398 v 116.24951 h 96.86036 V 116.11768 c 0,-1.45313 0.78808,-2.79248 2.05859,-3.49756 1.27246,-0.70362 2.82422,-0.66553 4.05762,0.10302 l 100.03125,62.37061 c 1.17187,0.73047 1.88379,2.01367 1.88379,3.39453 v 87.24414 c 0,2.20899 -1.79102,4 -4,4 h -96.03125 v 23.58106 h 186.42637 c 2.20899,0 4,1.79101 4,4 0,2.20898 -1.79101,4 -4,4 z M 299.91689,261.73242 h 92.03125 V 180.70801 L 299.91689,123.32568 Z M 195.05653,8 V 136.62305 L 290.16298,91.361328 V 8 Z"
         style="display:none;fill:none;stroke:#000000;stroke-width:2.56041;stroke-dasharray:none;stroke-opacity:1"
         id="path1" /><path
         d="M 988.18348,301.31348 H 295.91689 c -2.20899,0 -4,-1.79102 -4,-4 V 269.73242 H 191.05653 c -2.20898,0 -4,-1.79101 -4,-4 V 149.29004 L 78.731343,200.84277 v 96.54881 c 0,2.20899 -1.791015,4 -4,4 H -497.84022 c -2.20898,0 -4,-1.79101 -4,-4 0,-2.20898 1.79102,-4 4,-4 H 70.731343 v -95.07517 c 0,-1.54297 0.887696,-2.94922 2.28125,-3.61133 L 187.05653,140.43018 V 4 c 0,-2.2089844 1.79102,-4 4,-4 h 103.10645 c 2.20898,0 4,1.7910156 4,4 v 89.887695 c 0,1.542969 -0.8877,2.948731 -2.28125,3.611817 l -100.8252,47.983398 v 116.24951 h 96.86036 V 116.11768 c 0,-1.45313 0.78808,-2.79248 2.05859,-3.49756 1.27246,-0.70362 2.82422,-0.66553 4.05762,0.10302 l 100.03125,62.37061 c 1.17187,0.73047 1.88379,2.01367 1.88379,3.39453 v 87.24414 c 0,2.20899 -1.79102,4 -4,4 h -96.03125 v 23.58106 h 688.26659 c 2.20899,0 4,1.79101 4,4 0,2.20898 -1.79101,4 -4,4 z M 299.91689,261.73242 h 92.03125 V 180.70801 L 299.91689,123.32568 Z M 195.05653,8 V 136.62305 L 290.16298,91.361328 V 8 Z"
         style="display:inline;fill:none;stroke:#000000;stroke-width:2.56041;stroke-dasharray:none;stroke-opacity:1"
         id="widespan"
         transform="translate(-1.4338292e-5,-92.174719)" /></g></g><g
     id="g3"
     transform="matrix(0.99098932,0,0,0.99098932,-0.46182193,-0.27267336)"
     style="display:inline"><text
       xml:space="preserve"
       style="font-style:normal;font-variant:normal;font-weight:300;font-stretch:normal;font-size:0.241932px;font-family:Montserrat;-inkscape-font-specification:'Montserrat Light';text-align:start;letter-spacing:-0.0104167px;writing-mode:lr-tb;direction:ltr;text-anchor:start;display:inline;fill:#000000;fill-opacity:1;stroke:#000000;stroke-width:0;stroke-linecap:round;stroke-linejoin:round;stroke-dasharray:none;stroke-opacity:1;paint-order:stroke fill markers"
       x="0.76501858"
       y="1.326876"
       id="text2"><tspan
         id="tspan2"
         style="font-style:normal;font-variant:normal;font-weight:bold;font-stretch:normal;font-family:Montserrat;-inkscape-font-specification:'Montserrat Bold';letter-spacing:-0.0104167px;fill:#000000;fill-opacity:1;stroke:none;stroke-width:0;stroke-dasharray:none"
         x="0.76501858"
         y="1.326876">MACKEY</tspan></text><text
       xml:space="preserve"
       style="font-style:normal;font-variant:normal;font-weight:300;font-stretch:normal;font-size:0.241932px;line-height:0;font-family:Montserrat;-inkscape-font-specification:'Montserrat Light';text-align:start;letter-spacing:-0.0104167px;writing-mode:lr-tb;direction:ltr;text-anchor:start;fill:#000000;fill-opacity:1;stroke:#000000;stroke-width:0;stroke-linecap:round;stroke-linejoin:round;stroke-dasharray:none;stroke-opacity:1;paint-order:stroke fill markers"
       x="1.8094631"
       y="1.326876"
       id="text3"><tspan
         id="tspan3"
         style="line-height:0;letter-spacing:-0.0104167px;writing-mode:lr-tb;stroke-width:0;stroke-dasharray:none"
         x="1.8094631"
         y="1.326876"
         dx="0"
         dy="0">CONSTRUCTION</tspan></text></g><g
     id="layer3"><text
       xml:space="preserve"
       style="font-style:normal;font-variant:normal;font-weight:normal;font-stretch:normal;font-size:0.0694444px;line-height:1.6;font-family:Sans;-inkscape-font-specification:Sans;text-align:start;letter-spacing:-0.00229167px;word-spacing:0px;writing-mode:lr-tb;direction:ltr;text-anchor:start;white-space:pre;inline-size:1.31035;fill:#000000;fill-opacity:1;stroke:none;stroke-width:0;stroke-linecap:round;stroke-linejoin:round;stroke-dasharray:none;stroke-opacity:1;paint-order:stroke fill markers"
       x="2.2097096"
       y="1.7324047"
       id="text19"
       transform="translate(0.01104854,-0.00212778)"><tspan
         x="2.2097096"
         y="1.7324047"
         id="tspan8">www.jmackeyconstruction.com
</tspan><tspan
         x="2.2097096"
         y="1.8435158"
         id="tspan9">Phone: 214-437-8113</tspan></text></g><text
     xml:space="preserve"
     style="font-style:normal;font-variant:normal;font-weight:normal;font-stretch:normal;font-size:0.111111px;line-height:0.8;font-family:Sans;-inkscape-font-specification:Sans;text-align:start;letter-spacing:-0.00229167px;word-spacing:0px;writing-mode:lr-tb;direction:ltr;text-anchor:start;fill:#000000;fill-opacity:1;stroke:none;stroke-width:0;stroke-linecap:round;stroke-linejoin:round;stroke-dasharray:none;stroke-opacity:1;paint-order:stroke fill markers"
     x="0.80360538"
     y="1.2349098"
     id="text20"><tspan
       id="tspan20"
       style="font-style:normal;font-variant:normal;font-weight:500;font-stretch:normal;font-size:0.111111px;font-family:Montserrat;-inkscape-font-specification:'Montserrat Medium';stroke-width:0"
       x="0.80360538"
       y="1.2349098">DFW PROUD FOR OVER 45 YEARS!</tspan></text><text
     xml:space="preserve"
     style="font-style:normal;font-variant:normal;font-weight:500;font-stretch:normal;font-size:0.0833334px;line-height:1.6;font-family:Montserrat;-inkscape-font-specification:'Montserrat Medium';text-align:center;letter-spacing:-0.00229167px;word-spacing:0px;writing-mode:lr-tb;direction:ltr;text-anchor:middle;fill:#000000;fill-opacity:1;stroke:none;stroke-width:0;stroke-linecap:round;stroke-linejoin:round;stroke-dasharray:none;stroke-opacity:1;paint-order:stroke fill markers"
     x="1.7518333"
     y="1.438622"
     id="text25"><tspan
       id="tspan25"
       style="stroke-width:0"
       x="1.7506875"
       y="1.438622">Commercial and Residential</tspan></text></svg>
