<?xml version="1.0" encoding="UTF-8" standalone="no"?>
<!-- Created with Inkscape (http://www.inkscape.org/) -->

<svg
   width="88.899994mm"
   height="50.799999mm"
   viewBox="0 0 3.4999998 2"
   id="SVGRoot"
   version="1.1"
   xml:space="preserve"
   inkscape:export-filename="mack_card_t1.svg"
   inkscape:export-xdpi="96"
   inkscape:export-ydpi="96"
   inkscape:version="1.4.2 (f4327f4, 2025-05-13)"
   sodipodi:docname="mack_card2.svg"
   xmlns:inkscape="http://www.inkscape.org/namespaces/inkscape"
   xmlns:sodipodi="http://sodipodi.sourceforge.net/DTD/sodipodi-0.dtd"
   xmlns="http://www.w3.org/2000/svg"
   xmlns:svg="http://www.w3.org/2000/svg"><sodipodi:namedview
     inkscape:document-units="in"
     inkscape:zoom="2.8284271"
     inkscape:cx="179.07479"
     inkscape:cy="100.23239"
     id="namedview1"
     pagecolor="#ffffff"
     bordercolor="#000000"
     borderopacity="0.25"
     inkscape:showpageshadow="2"
     inkscape:pageopacity="0.0"
     inkscape:pagecheckerboard="0"
     inkscape:deskcolor="#d1d1d1"
     showguides="true"
     inkscape:window-width="1920"
     inkscape:window-height="974"
     inkscape:window-x="-11"
     inkscape:window-y="-11"
     inkscape:window-maximized="1"
     inkscape:current-layer="layer1"><sodipodi:guide
       position="0,2"
       orientation="0,336.00001"
       id="guide5"
       inkscape:locked="false" /><sodipodi:guide
       position="3.5000001,2"
       orientation="192,0"
       id="guide6"
       inkscape:locked="false" /><sodipodi:guide
       position="3.5000001,0"
       orientation="0,-336.00001"
       id="guide7"
       inkscape:locked="false" /><sodipodi:guide
       position="0,0"
       orientation="-192,0"
       id="guide8"
       inkscape:locked="false" /><sodipodi:guide
       position="3.25,2"
       orientation="-1,0"
       id="guide9"
       inkscape:label=""
       inkscape:locked="false"
       inkscape:color="rgb(0,134,229)" /><sodipodi:guide
       position="0.25,0"
       orientation="-1,0"
       id="guide10"
       inkscape:label=""
       inkscape:locked="false"
       inkscape:color="rgb(0,134,229)" /><sodipodi:guide
       position="0.25,2"
       orientation="0,1"
       id="guide11"
       inkscape:label=""
       inkscape:locked="false"
       inkscape:color="rgb(0,134,229)" /><sodipodi:guide
       position="0,1.75"
       orientation="0,1"
       id="guide12"
       inkscape:label=""
       inkscape:locked="false"
       inkscape:color="rgb(0,134,229)" /><sodipodi:guide
       position="3.5000001,0.24999997"
       orientation="0,1"
       id="guide13"
       inkscape:label=""
       inkscape:locked="false"
       inkscape:color="rgb(0,134,229)" /><sodipodi:guide
       position="1.75,2"
       orientation="-1,0"
       id="guide14"
       inkscape:label=""
       inkscape:locked="false"
       inkscape:color="rgb(0,134,229)" /><inkscape:page
       x="0"
       y="0"
       width="3.4999998"
       height="2"
       id="page2"
       margin="0"
       bleed="0" /></sodipodi:namedview><defs
     id="defs1" /><g
     inkscape:label="LOGO"
     inkscape:groupmode="layer"
     id="layer1"
     style="display:inline"><g
       style="fill:none;fill-opacity:1;stroke:#000000;stroke-width:1.53625;stroke-dasharray:none;stroke-opacity:1"
       id="g1"
       transform="matrix(0.00203418,0,0,0.00203418,1.2512768,0.38095767)"
       inkscape:label="LOGO PATH"><path
         d="M 988.18348,301.31348 H 295.91689 c -2.20899,0 -4,-1.79102 -4,-4 V 269.73242 H 191.05653 c -2.20898,0 -4,-1.79101 -4,-4 V 149.29004 L 78.731343,200.84277 v 96.54881 c 0,2.20899 -1.791015,4 -4,4 H -497.84022 c -2.20898,0 -4,-1.79101 -4,-4 0,-2.20898 1.79102,-4 4,-4 H 70.731343 v -95.07517 c 0,-1.54297 0.887696,-2.94922 2.28125,-3.61133 L 187.05653,140.43018 V 4 c 0,-2.2089844 1.79102,-4 4,-4 h 103.10645 c 2.20898,0 4,1.7910156 4,4 v 89.887695 c 0,1.542969 -0.8877,2.948731 -2.28125,3.611817 l -100.8252,47.983398 v 116.24951 h 96.86036 V 116.11768 c 0,-1.45313 0.78808,-2.79248 2.05859,-3.49756 1.27246,-0.70362 2.82422,-0.66553 4.05762,0.10302 l 100.03125,62.37061 c 1.17187,0.73047 1.88379,2.01367 1.88379,3.39453 v 87.24414 c 0,2.20899 -1.79102,4 -4,4 h -96.03125 v 23.58106 h 688.26659 c 2.20899,0 4,1.79101 4,4 0,2.20898 -1.79101,4 -4,4 z M 299.91689,261.73242 h 92.03125 V 180.70801 L 299.91689,123.32568 Z M 195.05653,8 V 136.62305 L 290.16298,91.361328 V 8 Z"
         style="display:inline;fill:none;fill-opacity:1;stroke:#000000;stroke-width:1.53625;stroke-dasharray:none;stroke-opacity:1"
         id="widespan"
         sodipodi:nodetypes="ssscssccssssscsccsssssccccscccsssccssscccccccccc"
         transform="translate(-1.4338292e-5,-92.174719)"
         inkscape:label="widespan" /></g></g></svg>
