<?xml version="1.0" encoding="UTF-8" standalone="no"?>
<!-- Created with Inkscape (http://www.inkscape.org/) -->

<svg
   width="88.899994mm"
   height="50.799999mm"
   viewBox="0 0 3.4999998 2"
   id="SVGRoot"
   version="1.1"
   xml:space="preserve"
   inkscape:export-filename="mack_card_t2.svg"
   inkscape:export-xdpi="96"
   inkscape:export-ydpi="96"
   inkscape:version="1.4.2 (f4327f4, 2025-05-13)"
   sodipodi:docname="mack_card2.svg"
   xmlns:inkscape="http://www.inkscape.org/namespaces/inkscape"
   xmlns:sodipodi="http://sodipodi.sourceforge.net/DTD/sodipodi-0.dtd"
   xmlns="http://www.w3.org/2000/svg"
   xmlns:svg="http://www.w3.org/2000/svg"><sodipodi:namedview
     inkscape:document-units="in"
     inkscape:zoom="2.8284271"
     inkscape:cx="179.07479"
     inkscape:cy="100.23239"
     id="namedview1"
     pagecolor="#ffffff"
     bordercolor="#000000"
     borderopacity="0.25"
     inkscape:showpageshadow="2"
     inkscape:pageopacity="0.0"
     inkscape:pagecheckerboard="0"
     inkscape:deskcolor="#d1d1d1"
     showguides="true"
     inkscape:window-width="1920"
     inkscape:window-height="974"
     inkscape:window-x="-11"
     inkscape:window-y="-11"
     inkscape:window-maximized="1"
     inkscape:current-layer="layer1"><sodipodi:guide
       position="0,2"
       orientation="0,336.00001"
       id="guide5"
       inkscape:locked="false" /><sodipodi:guide
       position="3.5000001,2"
       orientation="192,0"
       id="guide6"
       inkscape:locked="false" /><sodipodi:guide
       position="3.5000001,0"
       orientation="0,-336.00001"
       id="guide7"
       inkscape:locked="false" /><sodipodi:guide
       position="0,0"
       orientation="-192,0"
       id="guide8"
       inkscape:locked="false" /><sodipodi:guide
       position="3.25,2"
       orientation="-1,0"
       id="guide9"
       inkscape:label=""
       inkscape:locked="false"
       inkscape:color="rgb(0,134,229)" /><sodipodi:guide
       position="0.25,0"
       orientation="-1,0"
       id="guide10"
       inkscape:label=""
       inkscape:locked="false"
       inkscape:color="rgb(0,134,229)" /><sodipodi:guide
       position="0.25,2"
       orientation="0,1"
       id="guide11"
       inkscape:label=""
       inkscape:locked="false"
       inkscape:color="rgb(0,134,229)" /><sodipodi:guide
       position="0,1.75"
       orientation="0,1"
       id="guide12"
       inkscape:label=""
       inkscape:locked="false"
       inkscape:color="rgb(0,134,229)" /><sodipodi:guide
       position="3.5000001,0.24999997"
       orientation="0,1"
       id="guide13"
       inkscape:label=""
       inkscape:locked="false"
       inkscape:color="rgb(0,134,229)" /><sodipodi:guide
       position="1.75,2"
       orientation="-1,0"
       id="guide14"
       inkscape:label=""
       inkscape:locked="false"
       inkscape:color="rgb(0,134,229)" /><inkscape:page
       x="0"
       y="0"
       width="3.4999998"
       height="2"
       id="page2"
       margin="0"
       bleed="0" /></sodipodi:namedview><defs
     id="defs1" /><g
     id="g37"><path
       d="m 1.4453125,0.87304688 c -0.012587,0 -0.022521,0.00149 -0.033203,0.005859 -0.010669,0.004203 -0.021208,0.009813 -0.029297,0.0175781 -0.00793,0.00777 -0.013214,0.016832 -0.017578,0.0273438 -0.00437,0.0103672 -0.00781,0.0227272 -0.00781,0.0351563 0,0.0124289 0.00344,0.0226793 0.00781,0.0332031 0.00437,0.0103515 0.00965,0.0195768 0.017578,0.0273437 0.00793,0.00777 0.016678,0.01517 0.027344,0.019531 0.010836,0.0042 0.022573,0.00586 0.035156,0.00586 0.01194,0 0.024803,-0.00198 0.035156,-0.00586 0.010525,-0.00405 0.017931,-0.00963 0.025391,-0.017578 a 0.00104177,0.00104177 0 0 0 0,-0.00195 c 0,0 -2.04e-5,2.04e-5 -2.04e-5,2.04e-5 0,0 -2.03e-5,2.03e-5 -2.03e-5,2.03e-5 -3.914e-4,2.999e-4 -0.0015,-3.522e-4 -0.00189,-6.1e-5 0,0 -2.04e-5,2.03e-5 -2.04e-5,2.03e-5 -0.00702,0.00715 -0.015656,0.013834 -0.025391,0.017578 -0.010106,0.00379 -0.021488,0.00586 -0.033203,0.00586 -0.012352,1e-7 -0.022622,-0.00176 -0.033203,-0.00586 -0.010433,-0.00427 -0.01961,-0.011953 -0.027344,-0.019531 -0.00773,-0.00758 -0.013314,-0.015283 -0.017578,-0.0253906 -0.00426,-0.0102547 -0.00781,-0.0210176 -0.00781,-0.0332031 0,-0.0121856 0.00356,-0.0231115 0.00781,-0.0332031 0.00426,-0.0102669 0.00984,-0.0197692 0.017578,-0.0273438 0.00789,-0.007579 0.016915,-0.0134696 0.027344,-0.0175781 C 1.4225225,0.87659567 1.432966,0.875 1.4453125,0.875 c 0.011715,0 0.023097,0.00207 0.033203,0.005859 0.010248,0.003784 0.020101,0.00791 0.027344,0.015625 -0.00746,-0.007949 -0.01486,-0.01369 -0.025391,-0.0175781 -0.010353,-0.003882 -0.023216,-0.005859 -0.035156,-0.005859 z m 0.1523437,0 c -0.012587,0 -0.024317,0.001492 -0.035156,0.005859 -0.010673,0.004205 -0.021207,0.00965 -0.029297,0.0175781 -0.00793,0.00777 -0.013214,0.016832 -0.017578,0.0273438 -0.00437,0.0103654 -0.00781,0.0228854 -0.00781,0.0351563 0,0.0122707 0.00344,0.0226811 0.00781,0.0332031 0.00437,0.0103496 0.00965,0.0194191 0.017578,0.0273437 0.00809,0.00777 0.018633,0.015171 0.029297,0.019531 0.010836,0.0042 0.022573,0.00586 0.035156,0.00586 0.012582,0 0.022524,-0.00165 0.033203,-0.00586 0.010825,-0.00436 0.021365,-0.011761 0.029297,-0.019531 0.00793,-0.00777 0.013213,-0.016992 0.017578,-0.0273437 0.00453,-0.0105265 0.00781,-0.0207696 0.00781,-0.0332031 0,-0.0124335 -0.00328,-0.0247863 -0.00781,-0.0351563 -0.00437,-0.0105115 -0.00965,-0.0195741 -0.017578,-0.0273438 -0.00793,-0.007772 -0.018467,-0.0133749 -0.029297,-0.0175781 -0.010682,-0.00437 -0.020616,-0.005859 -0.033203,-0.005859 z m 0.1191407,0 A 0.00104177,0.00104177 0 0 0 1.7161865,0.87438965 0.00104177,0.00104177 0 0 0 1.7148641,0.875 v 0.1679687 a 0.00104177,0.00104177 0 0 0 0.00195,0 h 0.011719 a 0.00104177,0.00104177 0 0 0 0.00193,0 V 0.90039063 L 1.8417969,1.0429687 a 0.00104177,0.00104177 0 0 0 0.00195,0 h 0.00781 0.00195 V 1.0410156 0.875 a 0.00104177,0.00104177 0 0 0 0,-0.001953 h -0.013672 a 0.00104177,0.00104177 0 0 0 0,0.001953 V 1.0175781 L 1.7265625,0.875 1.8398437,1.0195312 v 0.00586 0.00195 h 0.00195 0.00391 v -0.00195 l -0.00391,-0.00391 0.00195,0.00391 h -0.00195 V 1.0214844 1.0195312 0.875 h 0.00977 V 1.0410156 H 1.84375 L 1.7304687,0.89648438 v -0.007813 a 0.00104177,0.00104177 0 0 0 -0.00195,0 h -0.00195 -0.00195 -0.00193 a 0.00104177,0.00104177 0 0 0 0,0.001953 l 0.00391,0.005859 V 1.0410156 h -0.00977 V 0.875 h 0.00975 V 0.873047 Z m 0.2304687,0 c -0.013851,0 -0.024223,0.001614 -0.033203,0.005859 -0.00893,0.004221 -0.015256,0.008714 -0.019531,0.015625 -0.00425,0.00687 -0.00781,0.0152653 -0.00781,0.0234375 1e-7,0.008936 0.00205,0.0156811 0.00586,0.0214844 0,0 2.04e-5,2.034e-5 2.04e-5,2.034e-5 0,0 2.03e-5,2.035e-5 2.03e-5,2.035e-5 0,0 2.04e-5,2.034e-5 2.04e-5,2.034e-5 0,0 2.03e-5,2.035e-5 2.03e-5,2.035e-5 0,0 2.04e-5,0 2.04e-5,0 3.786e-4,1.5864e-4 0.00138,-2.9353e-4 0.00177,-1.4242e-4 0,0 2.03e-5,0 2.03e-5,0 0,0 2.04e-5,2.034e-5 2.04e-5,2.034e-5 0,0 2.03e-5,0 2.03e-5,0 -0.00352,-0.005382 -0.00389,-0.0128179 -0.00389,-0.0214437 0,-0.007811 0.0018,-0.0149286 0.00586,-0.0214844 0.00403,-0.006515 0.00892,-0.0115348 0.017578,-0.015625 0.0086,-0.004066 0.019562,-0.005859 0.033203,-0.005859 0.00917,0 0.018489,0.001218 0.027344,0.003906 0.00902,0.00269 0.017157,0.005212 0.023437,0.009766 l -0.00391,0.007813 L 2,0.88867188 a 0.00104177,0.00104177 0 0 0 0,-0.001953 c -0.00651,-0.004716 -0.014236,-0.007021 -0.023437,-0.009766 -0.00905,-0.002746 -0.019923,-0.003906 -0.029297,-0.003906 z m 0.046875,0.0234375 c -0.00713,-0.004856 -0.015179,-0.007498 -0.023437,-0.009766 -0.00808,-0.002423 -0.015815,-0.003906 -0.023437,-0.003906 -0.010807,0 -0.018181,7.9355e-4 -0.025391,0.003906 -0.00552,0.002384 -0.010201,0.006885 -0.013631,0.0110881 0.00329,-0.003702 0.00799,-0.006701 0.013631,-0.009135 0.00686,-0.00296 0.01478,-0.003906 0.025391,-0.003906 0.0074,0 0.015533,0.001535 0.023437,0.003906 0.00804,0.002207 0.016498,0.005033 0.023437,0.009766 z m 0.011719,-0.0234375 a 0.00104177,0.00104177 0 0 0 0,0.001953 v 0.009766 a 0.00104177,0.00104177 0 0 0 0,0.001953 h 0.060547 v 0.15429682 0.00195 h 0.00195 0.00977 a 0.00104177,0.00104177 0 0 0 0.00195,0 V 0.88671875 h 0.058594 a 0.00104177,0.00104177 0 0 0 6.103e-4,-0.001343 0.00104177,0.00104177 0 0 0 0.00134,-6.1035e-4 V 0.875 a 0.00104177,0.00104177 0 0 0 -0.00134,-6.1035e-4 0.00104177,0.00104177 0 0 0 -6.103e-4,-0.001343 z m 0.1523437,0 a 0.00104177,0.00104177 0 0 0 0,0.001953 v 0.16601562 0.00195 h 0.00195 0.011719 V 0.98828125 H 2.21875 c 0.00521,0 0.00899,-0.001342 0.013672,-0.001953 l 0.042969,0.0546876 v 0.00195 h 0.013672 v -0.00195 a 0.00104177,0.00104177 0 0 0 0.00195,0 L 2.2480469,0.984375 2.2871094,1.0410156 h -0.00977 L 2.2363234,0.9863281 c 0.0039,-6.7327e-4 0.00822,-8.2417e-4 0.011719,-0.001953 0.00237,-7.6237e-4 0.00563,-9.821e-4 0.00781,-0.001953 0.00797,-0.003669 0.013585,-0.0103858 0.018372,-0.0170492 -0.00468,0.006184 -0.010313,0.0113868 -0.018372,0.015096 -0.00211,9.3993e-4 -0.00551,0.001212 -0.00781,0.001953 h -0.00195 v -0.001953 h -0.013672 v 0.001953 a 0.00104177,0.00104177 0 0 0 -0.00195,0 l 0.00195,0.001953 c -0.00458,5.9816e-4 -0.00854,0.001953 -0.013672,0.001953 H 2.171875 V 0.9824219 0.9785159 H 2.21875 c 0.018215,0 0.033445,-0.005462 0.042969,-0.0136719 0.00967,-0.008191 0.013672,-0.0185904 0.013672,-0.0332031 0,-0.01477 -0.004,-0.0271218 -0.013672,-0.0351563 C 2.252199,0.8882746 2.236965,0.8847658 2.21875,0.8847658 H 2.171875 v -0.003906 l -0.00195,-0.001953 -0.00391,0.005859 a 0.00104177,0.00104177 0 0 0 0,0.001953 h 0.00391 v 0.0878906 h -0.00391 a 0.00104177,0.00104177 0 0 0 0,0.001953 v 0.001953 l 0.00195,0.001953 0.00195,-0.001953 v 0.001953 h -0.00195 l 0.00195,0.001953 -0.00393,0.003906 a 0.00104177,0.00104177 0 0 0 0,0.001953 h 0.00393 V 1.0410147 H 2.160125 V 0.875 H 2.21875 c 0.020935,0 0.037071,0.005906 0.048828,0.015625 0.01175,0.009713 0.017578,0.0233467 0.017578,0.0410156 0,0.0114883 -0.0025,0.0209769 -0.00779,0.0292562 0,0 2.03e-5,0 2.03e-5,0 0,0 2.04e-5,-2.035e-5 2.04e-5,-2.035e-5 0,0 2.03e-5,0 2.03e-5,0 0,0 2.04e-5,-2.034e-5 2.04e-5,-2.034e-5 3.745e-4,-1.4895e-4 0.0014,2.9645e-4 0.00177,1.4242e-4 0,0 2.03e-5,0 2.03e-5,0 0,0 2.04e-5,-2.035e-5 2.04e-5,-2.035e-5 0,0 2.03e-5,0 2.03e-5,0 0,0 0,-2.034e-5 0,-2.034e-5 0,0 2.04e-5,-2.035e-5 2.04e-5,-2.035e-5 0.00555,-0.008654 0.00781,-0.0174673 0.00781,-0.0292969 0,-0.018134 -0.00535,-0.0328629 -0.017578,-0.0429687 -0.012219,-0.0101009 -0.02952,-0.015625 -0.050781,-0.015625 z m 0.1621094,0 A 0.00104177,0.00104177 0 0 0 2.3197021,0.87438965 0.00104177,0.00104177 0 0 0 2.3183594,0.875 v 0.0957031 c 0,0.0234332 0.00687,0.0412133 0.018453,0.0535685 -0.011029,-0.011961 -0.0165,-0.0305004 -0.0165,-0.0535685 V 0.875 h 0.011719 v 0.0957031 c 0,0.0210974 0.00383,0.0365443 0.013672,0.046875 0.00981,0.0103 0.023235,0.015625 0.041016,0.015625 0.017623,0 0.031208,-0.00533 0.041016,-0.015625 3.689e-4,-3.874e-4 -3.549e-4,-0.00155 0,-0.00195 -0.00937,0.00984 -0.023794,0.015625 -0.041016,0.015625 -0.017383,0 -0.029692,-0.00579 -0.039063,-0.015625 -0.00934,-0.00981 -0.013672,-0.0241426 -0.013672,-0.0449219 V 0.875 a 0.00104177,0.00104177 0 0 0 -0.00134,-6.1035e-4 0.00104177,0.00104177 0 0 0 -6.103e-4,-0.001343 z M 2.4277344,1.015625 c 0.00219,-0.00229 0.00409,-0.00484 0.00574,-0.00765 -0.00175,0.00277 -0.00367,0.00531 -0.00574,0.00765 z m 0.00574,-0.00765 c 0.00598,-0.00946 0.00989,-0.0215631 0.00989,-0.0372722 V 0.875 h 0.00977 v 0.0957031 c 0,0.0237746 -0.00582,0.0427407 -0.017537,0.0546468 4.47e-4,-3.165e-4 0.00152,4.421e-4 0.00191,4.07e-5 0.012228,-0.012391 0.017578,-0.0305387 0.017578,-0.0546875 V 0.875 a 0.00104177,0.00104177 0 0 0 0,-0.001953 h -0.013672 a 0.00104177,0.00104177 0 0 0 0,0.001953 v 0.0957031 c 0,0.0159181 -0.00255,0.0280558 -0.00793,0.0372722 z M 2.5722656,0.87304688 c -0.012587,0 -0.024474,0.00149 -0.035156,0.005859 -0.010669,0.004203 -0.019254,0.009813 -0.027344,0.0175781 0,0 -2.03e-5,2.034e-5 -2.03e-5,2.034e-5 0,0 -2.04e-5,2.035e-5 -2.04e-5,2.035e-5 -2.883e-4,3.9242e-4 3.424e-4,0.001494 6.11e-5,0.001892 0.00788,-0.007569 0.016904,-0.0134529 0.027323,-0.0175578 0.010416,-0.004261 0.02281,-0.005859 0.035156,-0.005859 0.011715,0 0.023097,0.00207 0.033203,0.005859 0.00868,0.003203 0.015657,0.006665 0.021993,0.0123291 -0.00638,-0.005976 -0.013523,-0.0111553 -0.021993,-0.0142822 -0.010353,-0.003882 -0.021263,-0.005859 -0.033202,-0.005859 z m 0.056641,0 A 0.00104177,0.00104177 0 0 0 2.6282959,0.87438965 0.00104177,0.00104177 0 0 0 2.6269531,0.875 v 0.009766 a 0.00104177,0.00104177 0 0 0 0.00134,6.1035e-4 0.00104177,0.00104177 0 0 0 6.104e-4,0.001343 H 2.6875 V 1.0429687 a 0.00104177,0.00104177 0 0 0 0.00195,0 h 0.011719 a 0.00104177,0.00104177 0 0 0 0.00195,0 V 0.88671875 h 0.058594 a 0.00104177,0.00104177 0 0 0 6.103e-4,-0.001343 0.00104177,0.00104177 0 0 0 0.00134,-6.1035e-4 V 0.875 a 0.00104177,0.00104177 0 0 0 -0.00134,-6.1035e-4 0.00104177,0.00104177 0 0 0 -6.103e-4,-0.001343 z m 0.1523437,0 a 0.00104177,0.00104177 0 0 0 0,0.001953 v 0.16601562 0.00195 h 0.00195 0.00977 a 0.00104177,0.00104177 0 0 0 0.00195,0 V 0.875 a 0.00104177,0.00104177 0 0 0 -0.00134,-6.1035e-4 0.00104177,0.00104177 0 0 0 -6.103e-4,-0.001343 z m 0.1328125,0 c -0.012587,-2e-8 -0.024318,0.001492 -0.035156,0.005859 -0.010673,0.004205 -0.021207,0.00965 -0.029297,0.0175781 -0.00793,0.00777 -0.013214,0.016832 -0.017578,0.0273438 -0.00437,0.0103654 -0.00781,0.0228854 -0.00781,0.0351563 0,0.0122707 0.00344,0.0226811 0.00781,0.0332031 0.00437,0.0103496 0.00965,0.0194191 0.017578,0.0273437 0.00809,0.00777 0.018633,0.015171 0.029297,0.019531 0.010836,0.0042 0.022573,0.00586 0.035156,0.00586 0.012582,0 0.022524,-0.00165 0.033203,-0.00586 0.010825,-0.00436 0.021365,-0.011761 0.029297,-0.019531 0.00793,-0.00777 0.013213,-0.016992 0.017578,-0.0273437 0.00453,-0.0105265 0.00781,-0.0207696 0.00781,-0.0332031 0,-0.0124335 -0.00328,-0.0247863 -0.00781,-0.0351563 -0.00437,-0.0105115 -0.00965,-0.0195741 -0.017578,-0.0273438 -0.00793,-0.007772 -0.018467,-0.0133749 -0.029297,-0.0175781 -0.010682,-0.00437 -0.020616,-0.005859 -0.033203,-0.005859 z m 0.1191406,0 A 0.00104177,0.00104177 0 0 0 3.0325928,0.87438965 0.00104177,0.00104177 0 0 0 3.0312703,0.875 v 0.1679687 a 0.00104177,0.00104177 0 0 0 0.00193,0 h 0.011719 V 0.8984375 l 0.1132812,0.1445312 a 0.00104177,0.00104177 0 0 0 0.00195,0 h 0.00781 0.00195 V 1.0410156 0.875 a 0.00104177,0.00104177 0 0 0 0,-0.001953 H 3.15625 a 0.00104177,0.00104177 0 0 0 0,0.001953 V 1.0175781 L 3.0429688,0.875 3.15625,1.0195312 v 0.00586 0.00195 H 3.1582 3.16211 v -0.00195 l -0.00391,-0.00391 0.00195,0.00391 H 3.1582 V 1.0214844 1.0195312 0.875 H 3.16797 V 1.0410156 H 3.16016 L 3.0449219,0.89453125 v -0.003906 -0.001953 h -0.00195 -0.00195 -0.00195 a 0.00104177,0.00104177 0 0 0 0,0.001953 l 0.00393,0.005859 V 1.0410156 h -0.00979 V 0.875 h 0.00977 V 0.873047 Z M 1.5976562,0.875 c 0.012347,0 0.022788,0.001598 0.033203,0.005859 0.010587,0.004109 0.019614,0.0100066 0.027344,0.0175781 0.00773,0.007575 0.013314,0.0170767 0.017578,0.0273438 0.00441,0.0100889 0.00781,0.0210221 0.00781,0.0332031 1e-7,0.0121811 -0.0034,0.0229511 -0.00781,0.0332031 -0.00426,0.0101073 -0.00984,0.0178136 -0.017578,0.0253906 -0.00773,0.00757 -0.016752,0.015263 -0.027344,0.019531 -0.010419,0.0041 -0.020852,0.00586 -0.033203,0.00586 -0.012352,10e-8 -0.024575,-0.00176 -0.035156,-0.00586 -0.010434,-0.00427 -0.019447,-0.011948 -0.027344,-0.019531 -0.00774,-0.00774 -0.013313,-0.015281 -0.017578,-0.0253906 -0.00426,-0.0102565 -0.00781,-0.021179 -0.00781,-0.0332031 0,-0.0120242 0.00356,-0.0231097 0.00781,-0.0332031 0.00426,-0.0102669 0.00984,-0.0197692 0.017578,-0.0273438 0.00789,-0.007736 0.016919,-0.013471 0.027344,-0.0175777 C 1.5730785,0.87659679 1.5853091,0.875 1.5976562,0.875 Z m 0.4101563,0 h 0.1308594 v 0.009766 h -0.058594 -0.00195 v 0.001953 0.1542968 h -0.00977 V 0.88476563 a 0.00104177,0.00104177 0 0 0 -0.00195,0 h -0.058594 z m 0.6210938,0 h 0.1308593 v 0.009766 h -0.056641 -0.00195 V 0.886719 1.0410158 H 2.6894531 V 0.88671875 0.88476563 H 2.6875 2.6289063 Z m 0.1542968,0 h 0.00977 v 0.1660156 h -0.00977 z m 0.1308594,0 c 0.012347,0 0.022788,0.001598 0.033203,0.005859 0.010587,0.004109 0.019614,0.0100066 0.027344,0.0175781 0.00773,0.007575 0.013314,0.0170767 0.017578,0.0273438 C 2.9965994,0.93587049 3,0.94680331 3,0.95898438 3,0.97116548 2.9966,0.98193548 2.99219,0.99218748 2.98793,1.0022948 2.98235,1.0100011 2.974612,1.0175781 c -0.00773,0.00757 -0.016752,0.015263 -0.027344,0.019531 -0.010419,0.0041 -0.020852,0.00586 -0.033203,0.00586 -0.012352,0 -0.024575,-0.00176 -0.035156,-0.00586 C 2.868475,1.0328391 2.859462,1.0251611 2.851565,1.0175781 2.843825,1.0098381 2.838251,1.0022971 2.833987,0.9921875 2.829727,0.981931 2.826177,0.9710085 2.826177,0.9589844 c 0,-0.0120242 0.00356,-0.0231097 0.00781,-0.0332031 C 2.838247,0.9155144 2.843827,0.9060121 2.851565,0.8984375 2.859455,0.8907015 2.868484,0.8849661 2.878909,0.8808594 2.8894821,0.87659642 2.9017154,0.875 2.9140625,0.875 Z M 1.4472656,0.882813 c -0.010828,0 -0.021852,0.002133 -0.03125,0.005859 -0.00923,0.003724 -0.016468,0.008817 -0.023437,0.015625 0,0 -2.03e-5,2.034e-5 -2.03e-5,2.034e-5 0,0 0,2.035e-5 0,2.035e-5 -2.79e-4,3.8902e-4 3.328e-4,0.001477 6.1e-5,0.001872 0.00677,-0.0066 0.014425,-0.011964 0.023397,-0.0155843 0.00914,-0.003625 0.020661,-0.005859 0.03125,-0.005859 0.00964,0 0.018832,0.002707 0.027344,0.005859 0.00864,0.002984 0.016343,0.006735 0.023437,0.0136719 -0.00729,-0.007129 -0.014495,-0.0125357 -0.023437,-0.015625 -0.00875,-0.003241 -0.017481,-0.005859 -0.027345,-0.005859 z m 0.1503906,0 c -0.010828,0 -0.022008,0.00213 -0.03125,0.005859 -0.00923,0.003724 -0.016468,0.008817 -0.023437,0.015625 -3.803e-4,3.804e-4 3.438e-4,0.00148 4.07e-5,0.001912 0.00678,-0.006601 0.016377,-0.0119638 0.02535,-0.0155843 0.00898,-0.003623 0.018707,-0.005859 0.029297,-0.005859 0.010589,-2e-8 0.020318,0.002236 0.029297,0.005859 0.00897,0.00362 0.016792,0.008989 0.023397,0.0155843 -3.028e-4,-4.3248e-4 4.215e-4,-0.001532 4.07e-5,-0.001912 C 1.6435816,0.897485 1.6361846,0.8923973 1.6269546,0.888672 1.6177146,0.884943 1.6084866,0.882813 1.5976576,0.882813 Z m 0.9746094,0 c -0.010828,0 -0.019898,0.002133 -0.029297,0.005859 -0.00923,0.003724 -0.018421,0.008817 -0.025391,0.015625 -0.00681,0.006807 -0.011739,0.0143712 -0.015625,0.0234375 -0.00373,0.009084 -0.00586,0.02058 -0.00586,0.03125 0,0.01067 0.00213,0.0202132 0.00586,0.0292969 0.00388,0.009066 0.00882,0.0166309 0.015625,0.0234375 0.00697,0.00681 0.01616,0.011901 0.025391,0.015625 0.0094,0.00372 0.018469,0.00586 0.029297,0.00586 0.00986,0 0.018596,-8.216e-4 0.027344,-0.00391 0.00844,-0.00307 0.016469,-0.00896 0.023437,-0.015625 H 2.625 v -0.00195 a 0.00104177,0.00104177 0 0 0 -0.00195,0 c -0.0071,0.00709 -0.014797,0.01248 -0.023437,0.015625 -0.00852,0.003 -0.017702,0.00391 -0.027344,0.00391 -0.01059,0 -0.020154,-0.00224 -0.029297,-0.00586 C 2.533982,1.0217639 2.526309,1.0163839 2.519535,1.0097689 2.512915,1.0031489 2.507694,0.9951664 2.50391,0.9863314 2.50029,0.9775134 2.49805,0.9694158 2.49805,0.9589876 c 0,-0.0104282 0.00224,-0.0204791 0.00586,-0.0292969 0.00379,-0.008835 0.00901,-0.016818 0.015625,-0.0234375 0.00678,-0.006619 0.014447,-0.0119973 0.023437,-0.015625 0.00914,-0.003625 0.018707,-0.005859 0.029297,-0.005859 0.00964,0 0.018832,0.002707 0.027344,0.005859 0.00746,0.002577 0.014232,0.005727 0.020508,0.0110067 C 2.613871,0.8961389 2.606894,0.8911905 2.599613,0.8886751 2.590863,0.8854341 2.582133,0.8828161 2.572269,0.8828161 Z M 2.625,1.0136719 l 0.00391,0.00586 c -0.00702,0.00713 -0.013718,0.01384 -0.023437,0.017578 -0.010106,0.00379 -0.021488,0.00586 -0.033203,0.00586 -0.012352,0 -0.024575,-0.00176 -0.035156,-0.00586 -0.010424,-0.00427 -0.019594,-0.011939 -0.027323,-0.019511 0,0 0,2.03e-5 0,2.03e-5 2.812e-4,3.978e-4 -3.289e-4,0.00151 -4.07e-5,0.00189 0,0 2.03e-5,2.03e-5 2.03e-5,2.03e-5 0.00793,0.00777 0.016678,0.01517 0.027344,0.019531 0.010836,0.0042 0.022573,0.00586 0.035156,0.00586 0.011941,0 0.02285,-0.00198 0.033203,-0.00586 0.00999,-0.00384 0.018159,-0.01022 0.025391,-0.017578 0,0 2.03e-5,-2.04e-5 2.03e-5,-2.04e-5 0,0 2.04e-5,-2.03e-5 2.04e-5,-2.03e-5 4.068e-4,-3e-4 0.0015,3.697e-4 0.00189,6.1e-5 0,0 2.03e-5,-2.03e-5 2.03e-5,-2.03e-5 a 0.00104177,0.00104177 0 0 0 0,-0.00195 h -0.00195 z M 2.9140625,0.8828125 c -0.010828,0 -0.022008,0.00213 -0.03125,0.005859 -0.00923,0.003724 -0.016469,0.008817 -0.023437,0.015625 0,0 -2.03e-5,2.034e-5 -2.03e-5,2.034e-5 0,0 0,2.035e-5 0,2.035e-5 -2.79e-4,3.8902e-4 3.327e-4,0.001477 6.1e-5,0.001872 0.00678,-0.006601 0.016377,-0.0119638 0.02535,-0.0155843 0.00898,-0.003623 0.018707,-0.005859 0.029297,-0.005859 0.01059,0 0.020317,0.002236 0.029297,0.005859 0.00897,0.00362 0.016792,0.008989 0.023397,0.0155843 -3.029e-4,-4.3248e-4 4.214e-4,-0.001532 4.07e-5,-0.001912 -0.00681,-0.006812 -0.014206,-0.0118997 -0.023437,-0.015625 -0.00924,-0.003729 -0.018469,-0.005859 -0.029297,-0.005859 z M 2.171875,0.88671875 H 2.21875 c 0.017908,0 0.031998,0.003945 0.041016,0.0117188 0.00919,0.007629 0.013672,0.0188833 0.013672,0.0332031 0,0.0141575 -0.00448,0.0234576 -0.013672,0.03125 -0.00902,0.007773 -0.023108,0.0117188 -0.041016,0.0117188 H 2.171875 Z m 0.3362834,0.0133667 c -0.00692,0.007036 -0.014067,0.014451 -0.017924,0.0237427 -0.00437,0.0103672 -0.00586,0.0227272 -0.00586,0.0351563 0,0.0124289 0.00149,0.0226793 0.00586,0.0332031 0.00362,0.008581 0.010121,0.0157679 0.016622,0.0224405 -0.00626,-0.00666 -0.010957,-0.013642 -0.014669,-0.0224405 -0.00426,-0.0102547 -0.00586,-0.0210176 -0.00586,-0.0332031 0,-0.0121856 0.0016,-0.0231115 0.00586,-0.0332031 0.00396,-0.009541 0.00906,-0.018409 0.015971,-0.0256959 z M 1.9045003,0.9002889 c -3.5e-5,4.97e-6 -9.42e-5,2.931e-5 -1.22e-4,4.069e-5 0,0 -2.04e-5,0 -2.04e-5,0 0,0 -2.03e-5,2.034e-5 -2.03e-5,2.034e-5 0,0 -2.04e-5,0 -2.04e-5,0 0,0 0,2.035e-5 0,2.035e-5 0,0 -2.03e-5,2.035e-5 -2.03e-5,2.035e-5 -0.00347,0.005123 -0.00391,0.0111576 -0.00391,0.0175781 0,0.005257 0.00172,0.009257 0.00399,0.0128581 -0.00178,-0.003424 -0.00203,-0.007371 -0.00203,-0.0128581 0,-0.006047 6.629e-4,-0.0108383 0.00391,-0.015625 a 0.00104177,0.00104177 0 0 0 0,-0.001953 c 0,0 -2.03e-5,2.034e-5 -2.03e-5,2.034e-5 0,0 -2.04e-5,2.035e-5 -2.04e-5,2.035e-5 0,0 -2.03e-5,2.034e-5 -2.03e-5,2.034e-5 0,0 -2.04e-5,0 -2.04e-5,0 0,0 -2.03e-5,2.035e-5 -2.03e-5,2.035e-5 -3.464e-4,1.3006e-4 -0.00123,-2.427e-4 -0.00165,-1.8311e-4 z m -1.22e-4,0.0305379 c 4.963e-4,9.5378e-4 0.00111,0.001874 0.00187,0.002767 -6.472e-4,-9.0199e-4 -0.00128,-0.001824 -0.00187,-0.002767 z M 1.3913574,0.90751139 c -0.00603,0.006122 -0.012915,0.0121901 -0.016357,0.020223 -0.00373,0.009084 -0.00391,0.02058 -0.00391,0.03125 0,0.01067 1.747e-4,0.0202132 0.00391,0.0292969 0.00344,0.008022 0.010312,0.0140894 0.016337,0.0202027 -0.00603,-0.00636 -0.010842,-0.013885 -0.014384,-0.0221558 -0.00362,-0.008818 -0.00391,-0.0169156 -0.00391,-0.0273438 0,-0.0104282 2.837e-4,-0.0204791 0.00391,-0.0292969 0.00355,-0.008282 0.00837,-0.0158129 0.014404,-0.0221761 z m 1.4667969,0 c -0.00603,0.006122 -0.012915,0.0121899 -0.016357,0.020223 -0.00373,0.00893 -0.00391,0.020422 -0.00391,0.03125 0,0.01067 1.747e-4,0.0202132 0.00391,0.0292969 0.00344,0.008021 0.010292,0.0140896 0.016317,0.0202027 -0.00603,-0.00636 -0.010821,-0.0138852 -0.014364,-0.0221558 -0.00362,-0.008818 -0.00391,-0.0169156 -0.00391,-0.0273438 0,-0.0105898 2.871e-4,-0.0206448 0.00391,-0.0292969 0.00355,-0.008282 0.00837,-0.0158127 0.014404,-0.0221761 z m -1.2063802,2.0345e-4 c 0.00573,0.006319 0.00893,0.0137841 0.012288,0.0219727 0.00377,0.008649 0.00586,0.0187122 0.00586,0.0292969 0,0.0104229 -0.00208,0.0185291 -0.00586,0.0273438 -0.00337,0.008197 -0.00658,0.0156694 -0.012309,0.021993 0.00573,-0.00605 0.011009,-0.0121198 0.014262,-0.0200399 0.00389,-0.009087 0.00586,-0.0186216 0.00586,-0.0292969 0,-0.0108332 -0.00196,-0.0223171 -0.00586,-0.03125 -0.00325,-0.007912 -0.00852,-0.0139744 -0.014242,-0.0200195 z m 1.3164062,0 c 0.00573,0.006319 0.00893,0.013784 0.012288,0.0219727 0.00377,0.008649 0.00586,0.0187122 0.00586,0.0292969 0,0.0104229 -0.00208,0.0185291 -0.00586,0.0273438 -0.00337,0.008197 -0.00658,0.0156694 -0.012309,0.021993 0.00573,-0.00605 0.011009,-0.0121198 0.014262,-0.0200399 0.00389,-0.009087 0.00586,-0.0186216 0.00586,-0.0292969 -1e-7,-0.0108332 -0.00196,-0.0223171 -0.00586,-0.03125 -0.00325,-0.007912 -0.00852,-0.0139743 -0.014242,-0.0200195 z M 1.526123,0.93304443 c -0.00268,0.007848 -0.00464,0.0170692 -0.00464,0.0259399 0,0.00871 0.00197,0.0164768 0.00464,0.0240275 -0.00247,-0.00759 -0.00269,-0.0149137 -0.00269,-0.0240275 0,-0.009244 2.224e-4,-0.0180887 0.00269,-0.0259399 z m 0.380188,6.5105e-4 c 1.886e-4,5.1434e-4 -4.191e-4,0.001431 -6.1e-5,0.001851 0.00395,0.004449 0.00927,0.007158 0.015625,0.009766 0.00629,0.002581 0.011972,0.006043 0.019531,0.007813 0.0075,0.001754 0.0161,0.003786 0.023437,0.005859 0.00729,0.0019 0.013371,0.004652 0.019531,0.007813 0.0061,0.003127 0.00993,0.006423 0.013672,0.0117188 0.00368,0.005222 0.00586,0.0130078 0.00586,0.0214844 0,0.00762 -0.00164,0.014734 -0.00584,0.021444 0,0 2.04e-5,0 2.04e-5,0 0,0 2.03e-5,-2.04e-5 2.03e-5,-2.04e-5 0,0 2.04e-5,0 2.04e-5,0 0,0 2.03e-5,-2.03e-5 2.03e-5,-2.03e-5 3.765e-4,-1.458e-4 0.00141,2.955e-4 0.00177,1.424e-4 0,0 2.04e-5,0 2.04e-5,0 0,0 2.03e-5,-2.03e-5 2.03e-5,-2.03e-5 0,0 2.04e-5,0 2.04e-5,0 0,0 0,-2.04e-5 0,-2.04e-5 0,0 2.03e-5,-2.03e-5 2.03e-5,-2.03e-5 C 2.00441,1.0144644 2.0058594,1.008023 2.0058594,1 2.0058594,0.991215 2.00398,0.9822094 2,0.9765625 1.99607,0.9709895 1.99074,0.96811055 1.984375,0.96484375 c -0.00631,-0.003234 -0.012111,-0.005876 -0.019531,-0.007813 -0.00737,-0.002082 -0.015911,-0.004098 -0.023437,-0.005859 -0.00747,-0.001747 -0.013356,-0.005279 -0.019531,-0.007813 -0.00608,-0.00249 -0.011846,-0.005527 -0.015564,-0.009664 z m -0.010885,0.006938 c 0.00355,0.004701 0.00732,0.009694 0.012777,0.0124919 0.0063,0.003232 0.013912,0.005718 0.021484,0.007813 0.00752,0.001919 0.014126,0.0041 0.021484,0.005859 0.00731,0.001747 0.015306,0.003325 0.021484,0.005859 0.00518,0.002122 0.00872,0.004652 0.011943,0.007914 -0.00333,-0.00364 -0.00696,-0.007827 -0.011943,-0.009867 -0.00629,-0.00258 -0.012132,-0.00409 -0.019531,-0.005859 -0.00735,-0.001757 -0.015931,-0.003943 -0.023437,-0.005859 -0.00745,-0.002061 -0.013367,-0.004652 -0.019531,-0.007813 -0.00563,-0.002887 -0.010998,-0.005924 -0.01473,-0.0105389 z m 0.092468,0.041687 c -4.726e-4,2.804e-5 -0.0012,2.9488e-4 -0.00151,1.4242e-4 0,0 -2.04e-5,-2.035e-5 -2.04e-5,-2.035e-5 0,0 -2.03e-5,0 -2.03e-5,0 0.00363,0.004102 0.00584,0.0105622 0.00584,0.0175578 0,0.00587 -0.00246,0.010836 -0.00586,0.015625 -0.00322,0.00475 -0.00661,0.00874 -0.013672,0.011719 -0.00685,0.00281 -0.016244,0.00391 -0.027344,0.00391 -0.011065,0 -0.021304,-0.00191 -0.03125,-0.00586 -0.00907,-0.00381 -0.016603,-0.00733 -0.022135,-0.01241 0.00541,0.00522 0.011462,0.010707 0.020182,0.014364 0.010192,0.00404 0.021891,0.00586 0.033203,0.00586 0.011278,0 0.020132,-9.49e-4 0.027344,-0.00391 0.00733,-0.0031 0.01213,-0.00656 0.015625,-0.011719 0.00363,-0.00512 0.00586,-0.011302 0.00586,-0.017578 0,-0.007378 -0.00184,-0.0130478 -0.00586,-0.0175781 0,0 -2.03e-5,-2.035e-5 -2.03e-5,-2.035e-5 0,0 -2.03e-5,-2.035e-5 -2.03e-5,-2.035e-5 0,0 -2.04e-5,0 -2.04e-5,0 0,0 0,-2.034e-5 0,-2.034e-5 -8.1e-5,-4.352e-5 -1.966e-4,-4.834e-5 -3.255e-4,-4.069e-5 z m 0.2464803,1.0173e-4 h 0.00977 c -0.00296,7.9955e-4 -0.00652,0.001462 -0.00977,0.001953 z M 1.3925985,1.009786 c 0,0 0,2.03e-5 0,2.03e-5 2.718e-4,3.947e-4 -3.198e-4,0.00151 -4.07e-5,0.00189 0,0 2.03e-5,2.03e-5 2.03e-5,2.03e-5 0.00697,0.00681 0.014208,0.011901 0.023437,0.015625 0.0094,0.00372 0.020422,0.00586 0.03125,0.00586 0.00986,0 0.018597,-8.216e-4 0.027344,-0.00391 0.00894,-0.00325 0.01615,-0.00834 0.023437,-0.015625 v -0.00195 c -0.0071,0.00709 -0.014798,0.01248 -0.023437,0.015625 -0.00851,0.003 -0.017702,0.00391 -0.027344,0.00391 -0.01059,0 -0.022107,-0.00224 -0.03125,-0.00586 -0.00898,-0.00363 -0.016646,-0.009 -0.023417,-0.015606 z m 1.4667968,0 c 0,0 0,2.03e-5 0,2.03e-5 2.719e-4,3.947e-4 -3.198e-4,0.00151 -4.06e-5,0.00189 0,0 2.03e-5,2.03e-5 2.03e-5,2.03e-5 0.00697,0.00681 0.014207,0.011901 0.023437,0.015625 0.00924,0.00373 0.020422,0.00586 0.03125,0.00586 0.010828,0 0.020055,-0.00213 0.029297,-0.00586 0.00923,-0.00372 0.016625,-0.00881 0.023437,-0.015625 3.89e-4,-3.89e-4 -3.777e-4,-0.00152 -2.04e-5,-0.00193 -0.00661,0.00661 -0.014434,0.011983 -0.023417,0.015605 -0.00898,0.00362 -0.018707,0.00586 -0.029297,0.00586 -0.01059,0 -0.020317,-0.00224 -0.029297,-0.00586 -0.00898,-0.00363 -0.018594,-0.009 -0.025369,-0.015606 z m -1.3163859,2.03e-5 c 3.033e-4,4.323e-4 -4.212e-4,0.00153 -4.07e-5,0.00191 0.00697,0.00681 0.014207,0.011901 0.023437,0.015625 0.00924,0.00373 0.020422,0.00586 0.03125,0.00586 0.010828,0 0.020055,-0.00213 0.029297,-0.00586 0.00923,-0.00372 0.016625,-0.00881 0.023437,-0.015625 3.806e-4,-3.805e-4 -3.443e-4,-0.00148 -4.07e-5,-0.00191 -0.0066,0.0066 -0.014427,0.011968 -0.023397,0.015584 -0.00898,0.00362 -0.018707,0.00586 -0.029297,0.00586 -0.01059,0 -0.020317,-0.00224 -0.029297,-0.00586 -0.00897,-0.00362 -0.018576,-0.00899 -0.02535,-0.015584 z m 0.3472087,0.00181 c -4.968e-4,3.22e-5 -0.00124,3.274e-4 -0.00153,1.221e-4 0,0 -2.03e-5,-2.04e-5 -2.03e-5,-2.04e-5 l -0.00586,0.00781 a 0.00104177,0.00104177 0 0 0 0,0.00195 c 0,0 2.03e-5,2.03e-5 2.03e-5,2.03e-5 0,0 2.04e-5,0 2.04e-5,0 0,0 2.03e-5,2.04e-5 2.03e-5,2.04e-5 0,0 2.04e-5,0 2.04e-5,0 3.774e-4,1.975e-4 0.00143,-2.74e-4 0.00181,-8.14e-5 0,0 2.03e-5,0 2.03e-5,0 0,0 2.04e-5,2.03e-5 2.04e-5,2.03e-5 0,0 2.03e-5,2.04e-5 2.03e-5,2.04e-5 0.00613,0.0064 0.014815,0.013442 0.025391,0.017578 0.011306,0.0042 0.022573,0.00586 0.035156,0.00586 0.014006,0 0.026178,-0.00178 0.035156,-0.00586 0.00776,-0.00361 0.012233,-0.00983 0.016296,-0.015706 -0.00419,0.00562 -0.010293,0.01006 -0.01825,0.013753 -0.0086,0.00391 -0.019397,0.00586 -0.033203,0.00586 -0.012352,0 -0.024087,-0.00175 -0.035156,-0.00586 C 1.8992322,1.032833 1.8906972,1.02609 1.8847592,1.019525 l 0.00586,-0.00781 c 0,0 -2.03e-5,-2.03e-5 -2.03e-5,-2.03e-5 0,0 -2.04e-5,0 -2.04e-5,0 -8.92e-5,-6.12e-5 -2.15e-4,-9.12e-5 -3.662e-4,-8.14e-5 z m 0.5453288,0.013774 c -0.00279,0.00267 -0.00581,0.00515 -0.00905,0.00739 0.00326,-0.00212 0.00629,-0.00458 0.00905,-0.00739 z m -0.097595,6.11e-5 c 0.012191,0.012327 0.027817,0.01947 0.048767,0.01947 0.013807,0 0.025613,-0.00378 0.035624,-0.0097 -0.00988,0.00524 -0.021759,0.00775 -0.035624,0.00775 -0.020544,0 -0.036995,-0.00562 -0.048767,-0.017517 z"
       style="font-weight:300;font-size:0.239752px;line-height:0;font-family:Montserrat;-inkscape-font-specification:'Montserrat Light';letter-spacing:-0.0103228px;baseline-shift:baseline;display:inline;overflow:visible;opacity:1;vector-effect:none;stroke-linecap:round;stroke-linejoin:round;paint-order:stroke fill markers;enable-background:accumulate;stop-color:#000000;stop-opacity:1"
       id="path38" /></g></svg>
